NidahasFMAbhaya-Regular.sfdir
StartChar: exclaim
Encoding: 1 33 247
Width: 185
GlyphClass: 2
Flags: W
HStem: -6 85<58.892 126.619>
VStem: 46 87<6.89172 66.108> 55 72.1053<385.827 678.264> 68 45<128.54 546.579>
LayerCount: 2
Back
Fore
SplineSet
102 119 m 1,0,-1
 78 119 l 1,1,2
 75 185 75 185 68 337 c 0,3,4
 55 570 55 570 55 624 c 0,5,6
 55 682 55 682 93 682 c 0,7,8
 127 682 127 682 127 629 c 0,9,10
 127 626 127 626 127 623 c 0,11,12
 127 566 127 566 113 340 c 0,13,14
 111 273 111 273 102 119 c 1,0,-1
89 79 m 0,15,16
 106 79 106 79 119.5 67 c 128,-1,17
 133 55 133 55 133 38 c 0,18,19
 133 20 133 20 119.5 7 c 128,-1,20
 106 -6 106 -6 89 -6 c 0,21,22
 71 -6 71 -6 58.5 6.5 c 128,-1,23
 46 19 46 19 46 36 c 0,24,25
 46 54 46 54 58.5 66.5 c 128,-1,26
 71 79 71 79 89 79 c 0,15,16
EndSplineSet
Validated: 1
EndChar
StartChar: percentage
Encoding: 2 37 227
Width: 556
GlyphClass: 2
Flags: HW
HStem: 0 37<253.716 341.681> 163 35<251.972 338.077> 475 37<179.916 266.564> 637 36<176.778 262.965>
VStem: 121 36<531.212 614.221> 196 36<55.3706 143.64> 286 38<534.064 618.241> 361 38<59.0045 144.409>
LayerCount: 2
Back
Fore
SplineSet
297 163 m 0
 262.274167341 163 232 137.213161946 232 100 c 0
 232 64.9206213858 258.078744057 37 295 37 c 0
 329.057765939 37 361 62.1701959346 361 99 c 0
 361 133.477148376 334.038973077 163 297 163 c 0
196 100 m 0
 196 156.64732653 241.551806116 198 296 198 c 0
 354.268236495 198 399 153.325340489 399 98 c 0
 399 40.4110312188 353.103748522 0 297 0 c 0
 238.482226969 0 196 45.5801877534 196 100 c 0
223 637 m 0
 188.942234061 637 157 611.829804066 157 575 c 0
 157 542.667200408 183.35332629 512 220 512 c 0
 254.057765939 512 286 537.170195934 286 574 c 0
 286 606.332799592 259.64667371 637 223 637 c 0
121 574 m 0
 121 632.570333541 168.35172584 673 224 673 c 0
 282.070539273 673 324 628.857835009 324 574 c 0
 324 516.060899719 277.989380375 475 223 475 c 0
 164.720205198 475 121 518.992075362 121 574 c 0
39 0 m 1
 435 677 l 1
 475 677 l 1
 80 0 l 1
 39 0 l 1
EndSplineSet
EndChar
StartChar: apostrophe
Encoding: 3 39 233
Width: 60
GlyphClass: 2
Flags: W
HStem: 349 173<18 159>
VStem: 18 141<349 522>
LayerCount: 2
Back
Fore
SplineSet
18 522 m 1,0,-1
 159 522 l 1,1,-1
 159 349 l 1,2,-1
 18 349 l 1,3,-1
 18 522 l 1,0,-1
EndSplineSet
Validated: 1
EndChar
StartChar: parenleft
Encoding: 4 40 228
Width: 261
GlyphClass: 2
Flags: HW
VStem: 36 59<109.602 403.27>
LayerCount: 2
Back
Fore
SplineSet
236 627 m 1
 236 618 l 1
 185 556 150 501 130 453 c 0
 107 396 95 333 95 263 c 2
 95 257 l 2
 95 188 106 123 128 64 c 0
 149 6 185 -52 234 -111 c 1
 234 -122 l 1
 102 -32 36 91 36 248 c 2
 36 267 l 2
 36 340 51 406 82 464 c 128
 114 525 166 579 236 627 c 1
EndSplineSet
EndChar
StartChar: parenright
Encoding: 5 41 209
Width: 261
GlyphClass: 2
Flags: HW
VStem: 175.027 61.092<110.779 400.315>
LayerCount: 2
Back
Fore
SplineSet
236 248 m 0
 232.666666667 90.6666666667 166.333333333 -32.6666666667 37 -122 c 1
 37 -111 l 1
 86.3333333333 -53 121.666666667 5.33333333333 143 64 c 128
 164.333333333 122.666666667 175 187 175 257 c 0
 175 260 175 260 175 263 c 0
 175.018018018 264.855855857 175.027027027 266.707815926 175.027027027 268.555880207 c 0
 175.027027027 335.086194304 163.351351351 396.567567568 140 453 c 0
 119.333333333 503 84.6666666667 558 36 618 c 1
 36 627 l 1
 169.491295406 531.276973538 236.236943108 412.174163781 236.236943108 269.69157073 c 0
 236.236943108 266.234260924 236.197644613 262.763185572 236.119047619 259.278344671 c 0
 236.03968254 255.759448224 236 252 236 248 c 0
EndSplineSet
EndChar
StartChar: asterisk
Encoding: 6 42 212
Width: 383
GlyphClass: 2
Flags: HW
HStem: 383 73<267.75 332.483> 385 62<47.3406 98.687> 505 71<63.4087 116.241 265.308 333.652>
VStem: 160 64.0303<321.544 421.612 540.201 639.629> 186.444 10.5556<489.201 529.883>
LayerCount: 2
Back
Fore
SplineSet
191.466875 319.975 m 0
 170.540429041 319.975 157.6 336.121273351 157.6 364.44 c 0
 157.6 380.562353718 175.347985585 419.043956754 177 424 c 0
 179.666666667 434 182.666666667 449 186 469 c 1
 170.666666667 463.666666667 157.333333333 454 146 440 c 0
 137.333333333 428.666666667 121.666666667 412.333333333 99 391 c 0
 92.3333333333 387 85 385 77 385 c 0
 56.3333333333 385 46 394.666666667 46 414 c 0
 46 441.492342658 68.9296511621 452.932900137 95 456 c 128
 112 458 112 458 129 460 c 0
 138.333333333 461.333333333 156 468 182 480 c 1
 164.004949544 491.073877203 134.964336232 501.146678261 99 505 c 0
 70.0647363254 507.516109884 45 518.651618592 45 546 c 0
 45 566 55.6666666667 576 77 576 c 0
 90.3333333333 576 100.666666667 572 108 564 c 0
 117.333333333 552.666666667 131 537 149 517 c 0
 154.333333333 511.666666667 166.666666667 502.333333333 186 489 c 1
 186.296296296 493.296296296 186.444444444 497.543209876 186.444444444 501.740740741 c 0
 186.444444444 533.109132397 181.864215955 547.052717894 168 571 c 0
 162.666666667 581 160 591.333333333 160 602 c 0
 160 628 171 641 193 641 c 0xb0
 213.686868687 641 224.03030303 628.462503826 224.03030303 603.387511478 c 0
 224.03030303 584.92120355 207.994650171 554.978600686 205 543 c 0
 200.333333333 523 197.666666667 505 197 489 c 1
 205 493.666666667 218 504 236 520 c 1
 242 529.333333333 255 544.333333333 275 565 c 0
 283 571.666666667 293 575 305 575 c 0
 327.666666667 575 339 565.333333333 339 546 c 0
 339 505.696628612 290.117837115 506.019639519 254 500 c 0
 238.666666667 496.666666667 221.666666667 490.333333333 203 481 c 1
 224.53266686 467.400420931 261.664840396 462.467031922 294 456 c 128
 316.317729396 451.53645412 338 439.546569717 338 415 c 0
 338 393.666666667 327.666666667 383 307 383 c 0xb0
 271.98674782 383 257.731781219 423.460638918 238 441 c 0
 228.666666667 449.666666667 215.333333333 459.333333333 198 470 c 1
 197.888888889 467.555555555 197.833333333 465.074074074 197.833333333 462.555555556 c 0
 197.833333333 432.865285944 202.05812117 415.077945542 214 390 c 0
 220 378.666666667 223 368.666666667 223 360 c 0
 223 333.49931767 212.702772795 319.975 191.466875 319.975 c 0
EndSplineSet
EndChar
StartChar: plus
Encoding: 7 43 237
Width: 470
GlyphClass: 2
Flags: HW
HStem: 185 41<58 200 250 394>
VStem: 200 50<60 185 226 354>
LayerCount: 2
Back
Fore
SplineSet
58 226 m 1
 200 226 l 1
 200 354 l 1
 250 354 l 1
 250 226 l 1
 394 226 l 1
 394 185 l 1
 250 185 l 1
 250 60 l 1
 200 60 l 1
 200 185 l 1
 58 185 l 1
 58 226 l 1
EndSplineSet
Validated: 1
EndChar
StartChar: comma
Encoding: 8 44 207
Width: 202
GlyphClass: 2
Flags: HW
HStem: 12.5 84.5<50.2578 95.3251>
VStem: 101 50<-53.8031 35>
LayerCount: 2
Back
Fore
SplineSet
92 97 m 0
 131.81361774 97 151 61.6806107753 151 19 c 0
 151 -17.4509423123 143.772267628 -32.3415985569 124 -62 c 0
 112 -78.6666666667 101 -91.6666666667 91 -101 c 1
 57 -99 l 1
 86.3333333333 -69.6666666667 101 -43.6666666667 101 -21 c 0
 101 -0.378301765811 92.0785239398 8.59584256732 72 12.5 c 128
 57.8235867178 15.2565248048 41 28.5190374519 41 49 c 0
 41 74.2646074411 65.8831783771 97 92 97 c 0
EndSplineSet
EndChar
StartChar: short_dash1
Encoding: 9 45 213
Width: 344
GlyphClass: 2
Flags: HW
HStem: 187 47<43 271>
VStem: 43 228<187 234>
LayerCount: 2
Back
Fore
SplineSet
43 234 m 1
 271 234 l 1
 271 187 l 1
 43 187 l 1
 43 234 l 1
EndSplineSet
EndChar
StartChar: dot
Encoding: 10 46 211
Width: 208
GlyphClass: 2
Flags: W
HStem: -9 108<58.017 133.468>
VStem: 41 110<6.98645 83.0138>
LayerCount: 2
Back
Fore
SplineSet
96 99 m 0,0,1
 119 99 119 99 135 83 c 128,-1,2
 151 67 151 67 151 46 c 0,3,4
 151 22 151 22 134 6.5 c 128,-1,5
 117 -9 117 -9 95 -9 c 0,6,7
 72 -9 72 -9 56.5 7.5 c 128,-1,8
 41 24 41 24 41 45 c 0,9,10
 41 68 41 68 57.5 83.5 c 128,-1,11
 74 99 74 99 96 99 c 0,0,1
EndSplineSet
Validated: 1
EndChar
StartChar: slash
Encoding: 11 47 208
Width: 407
GlyphClass: 2
Flags: HW
VStem: 49 307
LayerCount: 2
Back
Fore
SplineSet
329 607 m 1
 356 607 l 1
 74 -32 l 1
 49 -32 l 1
 329 607 l 1
EndSplineSet
EndChar
StartChar: zero
Encoding: 12 48 215
Width: 454
GlyphClass: 2
Flags: HW
HStem: -4 29<167.898 281.874> 540 25.0099<172 268.576>
VStem: 27 69<133.427 425.159> 343.062 68.9375<140.365 420.394>
LayerCount: 2
Back
Fore
SplineSet
371 466 m 0
 398.333333333 414.666666667 412 353.666666667 412 283 c 0
 412 226.333333333 403.666666667 175.333333333 387 130 c 0
 353.666666667 40.6666666667 297 -4 217 -4 c 0
 161.666666667 -4 117 19.6666666667 83 67 c 0
 45.6666666667 118.333333333 27 189.666666667 27 281 c 0
 27 351.666666667 39.3333333333 412 64 462 c 0
 98.2101849025 530.420369805 151.190856552 565.00990099 223.896774826 565.00990099 c 0
 286.982093259 565.00990099 336.01650165 532.00660066 371 466 c 0
220 540 m 0
 114.379218816 540 96 401.25211725 96 268 c 0
 96 212.666666667 101.333333333 164.666666667 112 124 c 0
 129.333333333 58 166.333333333 25 223 25 c 0
 273 25 305.333333333 45.8333333333 320 87.5 c 128
 335.072949193 130.320878388 343.0625 201.200467696 343.0625 285.63671875 c 0
 343.0625 343.25390625 338.375 392.375 329 433 c 0
 313 504.333333333 276.666666667 540 220 540 c 0
EndSplineSet
EndChar
StartChar: one
Encoding: 13 49 194
Width: 372
GlyphClass: 2
Flags: W
HStem: 1 19<73 130.709 241.03 303>
VStem: 154 69<30.3816 468.685>
LayerCount: 2
Back
Fore
SplineSet
223 554 m 2,0,-1
 223 69 l 2,1,2
 223 37 223 37 240 30 c 0,3,4
 256 20 256 20 303 19 c 1,5,-1
 303 1 l 1,6,-1
 73 1 l 1,7,-1
 73 20 l 1,8,9
 119 23 119 23 132 30 c 0,10,11
 154 42 154 42 154 81 c 2,12,-1
 154 439 l 2,13,14
 154 459 154 459 148 469 c 128,-1,15
 142 479 142 479 127 480 c 0,16,17
 118 480 118 480 98 473 c 0,18,19
 74 463 74 463 68 462 c 1,20,-1
 68 481 l 1,21,-1
 216 557 l 1,22,-1
 221 557 l 2,23,24
 222 555 222 555 223 554 c 2,0,-1
EndSplineSet
Validated: 1
EndChar
StartChar: two
Encoding: 14 50 217
Width: 447
GlyphClass: 2
Flags: HW
HStem: -1 48<101 355.809> 513 50<116.952 245.847>
VStem: 29 26<394.923 435.141> 297 65<323.726 460.891>
LayerCount: 2
Back
Fore
SplineSet
292 47 m 2
 349.563152313 47 365.037148315 75.104554139 392 118 c 1
 407 113 l 1
 360 -1 l 1
 28 -1 l 1
 28 9 l 1
 122.666666667 105.666666667 191.166666667 181.833333333 233.5 237.5 c 128
 275.833333333 293.166666667 297 340.666666667 297 380 c 0
 297 453.051623684 250.188521517 513 180 513 c 0
 144.666666667 513 113 497.333333333 85 466 c 0
 71.6666666667 451.333333333 61.6666666667 426.666666667 55 392 c 1
 29 396 l 1
 51.6666666667 507.333333333 110.666666667 563 206 563 c 0
 294.760182016 563 362 502.941173007 362 414 c 128
 362 369.333333333 346.666666667 326 316 284 c 0
 275.333333333 228.666666667 203.666666667 149.666666667 101 47 c 1
 292 47 l 2
EndSplineSet
EndChar
StartChar: three
Encoding: 15 51 218
Width: 401
GlyphClass: 2
Flags: HW
HStem: -9 41<109.374 232.538> 520 44<114.446 239.323>
VStem: 29 24<424.083 445.477> 120 11<276 277.593> 267 62<385.63 492.036> 297 63<97.327 232.337>
LayerCount: 2
Back
Fore
SplineSet
267 437 m 0
 267 484.289143643 229.083211125 520 176 520 c 0
 141 520 121 509 88 479 c 0
 75 467 63 446 53 417 c 1
 29 427 l 1
 49 503 108 564 200 564 c 0
 271 564 329 520 329 449 c 0
 329 393 289 360 246 331 c 1
 275 326 297 314 314 295 c 0
 345 260 360 223 360 184 c 0
 360 123 335 75 284 39 c 0
 239 7 185 -9 120 -9 c 0
 87 -9 64 -4 50 5 c 128
 36 14 28 25 28 38 c 0
 28 56 42 67 61 67 c 0
 78 67 97 60 118 47 c 0xf8
 134 37 156 32 184 32 c 0
 255 32 297 80 297 156 c 0
 297 230 247 284 184 284 c 0
 170 284 131 276 131 276 c 2
 129 276 126 274 120 273 c 1
 119 293 l 1
 170 310 205 327 224 342 c 0
 248 362 267 395 267 437 c 0
EndSplineSet
EndChar
StartChar: four
Encoding: 16 52 220
Width: 461
GlyphClass: 2
Flags: W
HStem: -1 21G<262 333> 139 51<63 260 333 419>
VStem: 260 73<-1 139 190 464>
LayerCount: 2
Back
Fore
SplineSet
293 561 m 1,0,-1
 333 561 l 1,1,-1
 333 190 l 1,2,-1
 419 190 l 1,3,-1
 419 139 l 1,4,-1
 333 139 l 1,5,-1
 333 -1 l 1,6,-1
 262 -1 l 1,7,-1
 262 139 l 1,8,-1
 25 139 l 1,9,-1
 25 192 l 1,10,-1
 293 561 l 1,0,-1
260 464 m 1,11,-1
 63 190 l 1,12,-1
 260 190 l 1,13,-1
 260 464 l 1,11,-1
EndSplineSet
Validated: 1
EndChar
StartChar: five
Encoding: 17 53 220
Width: 407
GlyphClass: 2
Flags: HW
HStem: -8 44<106.74 241.336> 0 73<40.4675 119.537> 354 57<114 199.129> 491 64<152 339.994>
VStem: 309 57<107.909 258.328>
LayerCount: 2
Back
Fore
SplineSet
135 -8 m 0xb8
 87 -8 28 1 28 43 c 0
 28 55 32 63 40 66 c 0
 50 70 58 73 65 73 c 0
 67 73 69 72 71 72 c 0
 78 70 95 63 120 51 c 0x78
 138 41 157 36 178 36 c 0
 256 36 309 91 309 160 c 0
 309 245 274 302 203 331 c 0
 166 346 131 354 99 354 c 0
 88 354 79 353 71 351 c 1
 55 354 56 352 58 359 c 1
 148 555 l 1
 321 555 l 2
 342 555 350 564 364 576 c 1
 373 570 l 1
 340 498 l 1
 340 493 331 491 314 491 c 2
 152 491 l 1
 114 411 l 1
 229 407 318 361 352 280 c 128
 362 257 366 232 366 203 c 0
 366 77 263 -7 135 -8 c 0xb8
EndSplineSet
EndChar
StartChar: six
Encoding: 18 54 221
Width: 431
GlyphClass: 2
Flags: HW
HStem: -8 32<175.212 274.187> 308.021 44.9787<141.715 273.992> 542 20<326.944 371>
VStem: 28 69.9375<120.906 270.796> 321 69<90.0198 260.631>
LayerCount: 2
Back
Fore
SplineSet
307 248 m 0
 287 287.333333333 252.333333333 307.333333333 203 308 c 0
 202.163120567 308.014184397 201.330315376 308.021276596 200.501584427 308.021276596 c 0
 162.379960766 308.021276596 132.879432624 293.014184397 112 263 c 0
 102.625 249.25 97.9375 230.2265625 97.9375 205.9296875 c 0
 97.9375 157.291513481 109.958333333 115.648284314 134 81 c 0
 160.666666667 43 190.333333333 24 223 24 c 0
 256.333333333 24 280.333333333 37 295 63 c 0
 312.333333333 93.6666666667 321 123.666666667 321 153 c 0
 321 197.666666667 316.333333333 229.333333333 307 248 c 0
217 -8 m 0
 159 -8 112 18.6666666667 76 72 c 0
 44 119.333333333 28 173.333333333 28 234 c 0
 28 330 66 410.666666667 142 476 c 0
 207.333333333 532 283.666666667 560.666666667 371 562 c 1
 373 542 l 1
 352.333333333 538.666666667 323.333333333 532 286 522 c 1
 254.666666667 508 231.666666667 495.333333333 217 484 c 0
 191.666666667 464.666666667 169.5 439 150.5 407 c 128
 131.5 375 118 342.333333333 110 309 c 1
 126 323.666666667 143.333333333 334 162 340 c 0
 188 348.666666667 213.333333333 353 238 353 c 0
 286 353 323.333333333 336.833333333 350 304.5 c 128
 376.666666667 272.166666667 390 231.666666667 390 183 c 0
 390 132.333333333 374 88.3333333333 342 51 c 0
 308.666666667 11.6666666667 267 -8 217 -8 c 0
EndSplineSet
EndChar
StartChar: seven
Encoding: 19 55 222
Width: 422
GlyphClass: 2
Flags: HW
HStem: -1 21G<154 211.567> 493 56<87.72 317>
VStem: 154 51<-1 20.2147>
LayerCount: 2
Back
Fore
SplineSet
22 428 m 1
 51 494 49 488 72 549 c 1
 381 549 l 1
 381 535 l 1
 205 -1 l 1
 154 -1 l 1
 317 493 l 1
 138 493 l 2
 119 493 102 488 87 477 c 0
 78 470 63 451 44 419 c 1
 22 428 l 1
EndSplineSet
EndChar
StartChar: eight
Encoding: 20 56 223
Width: 399
GlyphClass: 2
Flags: HW
HStem: -11 30<140.498 258.279> 531 31<128.174 252.621>
VStem: 27.9722 60.0278<62.3742 198.341 391.61 493.51> 282.138 60.8621<378.752 507.867> 303.118 55.8824<54.1147 169.078>
LayerCount: 2
Back
Fore
SplineSet
194 -11 m 0
 104.426458415 -11 27.9722222222 38.1839935817 27.9722222222 125.825617284 c 0
 27.9722222222 158.701131687 39.3148148148 188.425925926 62 215 c 0
 82 239 107 260.666666667 137 280 c 1
 105 305.333333333 81 326.666666667 65 344 c 0xe0
 43.6666666667 367.333333333 33 396.666666667 33 432 c 0
 33 513.497422533 111.08511871 562 197 562 c 0
 273.720530144 562 343 516.216921999 343 443 c 0
 343 411 329.666666667 382.666666667 303 358 c 0
 282.333333333 339.333333333 255.333333333 321 222 303 c 1
 276 263.666666667 310.666666667 234.666666667 326 216 c 0
 348 188.666666667 359 159.333333333 359 128 c 0
 359 41.038537059 284.056224373 -11 194 -11 c 0
184 531 m 0
 132.643964628 531 86.6097560976 494.755125826 86.6097560976 447.93753718 c 0
 86.6097560976 426.044219711 97.7398373984 403.065040651 120 379 c 0
 144.666666667 352.333333333 169.333333333 331.333333333 194 316 c 1
 227.333333333 340 248.333333333 356.666666667 257 366 c 0
 273.758620689 388.344827586 282.137931034 412.423305588 282.137931034 438.235434007 c 0
 282.137931034 467.428436981 273.842025769 490.91739544 259 510 c 0
 248.333333333 524 223.333333333 531 184 531 c 0
201 19 m 0
 255.422948 19 303.117647059 56.6533397159 303.117647059 108.024221453 c 0
 303.117647059 134.635524798 293.078431373 158.294117647 273 179 c 0
 256.333333333 197 220 224.666666667 164 262 c 1
 130.666666667 239.333333333 108.666666667 215.333333333 98 190 c 0
 91.3333333333 174 88 155.333333333 88 134 c 0
 88 67.9273336008 131.784939117 19 201 19 c 0
EndSplineSet
EndChar
StartChar: nine
Encoding: 21 57 224
Width: 431
GlyphClass: 2
Flags: HW
HStem: -7 27<47 113.805> 202 41<145.4 272.452> 530 32<145.303 251.473>
VStem: 28 68.5909<293.161 462.901> 317.265 72.7353<284.789 433.239>
LayerCount: 2
Back
Fore
SplineSet
96.5909090909 381.297520661 m 0
 96.5909090909 298.53103617 137.180785084 243 215 243 c 0
 245.666666667 243 274 258.333333333 300 289 c 0
 311.200916747 302.441100096 317.264705882 328.968019271 317.264705882 360.416089965 c 0
 317.264705882 399.550461361 307.843137255 436.745098039 289 472 c 0
 268.333333333 510.666666667 237.333333333 530 196 530 c 0
 124.590331149 530 96.5909090909 457.940661545 96.5909090909 381.297520661 c 0
180 202 m 0
 82.7916796205 202 28 272.294977874 28 372 c 128
 28 422 44.3333333333 466.166666667 77 504.5 c 128
 109.666666667 542.833333333 150.666666667 562 200 562 c 0
 258 562 305.333333333 535.333333333 342 482 c 0
 374 434.666666667 390 380.666666667 390 320 c 0
 390 224 351.666666667 143.333333333 275 78 c 0
 209.666666667 22.6666666667 133.666666667 -5.66666666667 47 -7 c 1
 44 20 l 1
 65.3333333333 22.6666666667 95 28.6666666667 133 38 c 1
 163.666666667 50 186.333333333 62 201 74 c 0
 250.240241047 114.402249064 291.334798271 176.339193085 308 243 c 1
 280.525996232 219.863996827 233.025848845 202 180 202 c 0
EndSplineSet
EndChar
StartChar: colon
Encoding: 22 58 211
Width: 202
GlyphClass: 2
Flags: HW
HStem: 80 96<63.4382 121.624> 246 97<63.407 121.624>
VStem: 44 99<93.408 156.624 265.376 322.624>
LayerCount: 2
Back
Fore
SplineSet
44 294 m 0
 44 324 67 343 94 343 c 0
 123 343 143 318 143 293 c 0
 143 264 118 246 92 246 c 0
 64 246 44 267 44 294 c 0
44 129 m 0
 44 157 66 176 93 176 c 0
 123 176 143 152 143 126 c 0
 143 99 120 80 94 80 c 0
 65 80 44 101 44 129 c 0
EndSplineSet
EndChar
StartChar: semicolon
Encoding: 23 59 235
Width: 202
GlyphClass: 2
Flags: HW
HStem: 12.5 84.5<50.2578 95.3251> 163 108<61.017 136.468>
VStem: 41 110<15.7188 71.3411 178.986 255.014> 101 50<-53.8031 35>
LayerCount: 2
Back
Fore
SplineSet
44 217 m 0
 44 246.934953152 69.4114840364 271 99 271 c 0xc0
 128.353707572 271 154 246.770816165 154 218 c 0
 154 187.223245948 128.109277922 163 98 163 c 0
 68.5969704287 163 44 188.231828962 44 217 c 0
92 97 m 0
 131.81361774 97 151 61.6806107753 151 19 c 0xe0
 151 -17.4509423123 143.772267628 -32.3415985569 124 -62 c 0
 112 -78.6666666667 101 -91.6666666667 91 -101 c 1
 57 -99 l 1
 86.3333333333 -69.6666666667 101 -43.6666666667 101 -21 c 0xd0
 101 -0.378301765811 92.0785239398 8.59584256732 72 12.5 c 128
 57.8235867178 15.2565248048 41 28.5190374519 41 49 c 0
 41 74.2646074411 65.8831783771 97 92 97 c 0
EndSplineSet
EndChar
StartChar: equals
Encoding: 24 61 230
Width: 356
GlyphClass: 2
Flags: HW
HStem: 153 37<50 303> 248 37<52 305>
VStem: 50 253
LayerCount: 2
Back
Fore
SplineSet
52 285 m 1
 305 285 l 1
 305 248 l 1
 52 248 l 1
 52 285 l 1
50 190 m 1
 303 190 l 1
 303 153 l 1
 50 153 l 1
 50 190 l 1
EndSplineSet
EndChar
StartChar: question
Encoding: 25 63 225
Width: 385
GlyphClass: 2
Flags: HW
HStem: -7 80<154.376 211.139> 353 56.9333<78.4401 143.779> 564 31<105.729 231.124>
VStem: 29.5283 33.4717<422.858 522.83> 142 81<4.86047 60.6238> 158.889 28.2929<135.053 227.348> 268.154 74.8462<375.25 530.607>
LayerCount: 2
Back
Fore
SplineSet
142 32 m 128
 142 54.4843003388 160.516341486 73 183 73 c 128xfa
 205.510352671 73 223 54.4836585146 223 32 c 0
 223 9.79497698474 205.8343233 -7 183 -7 c 0
 160.515699661 -7 142 9.464053442 142 32 c 128
186 595 m 0
 274.888008224 595 343 540.946715715 343 455 c 0
 343 396.333333333 318.333333333 348.666666667 269 312 c 0
 214.454545455 272 187.181818182 219.327823691 187.181818182 153.983471074 c 0
 187.181818182 147.449035813 187.454545455 140.787878788 188 134 c 1
 166 134 l 1
 161.259259259 156.518518519 158.888888889 175.086419753 158.888888889 189.703703704 c 0
 158.888888889 235.307056414 179.335114327 279.378056678 217 328 c 0
 251.59429819 373.184389472 268.153846154 412.459764681 268.153846154 457.455621302 c 0
 268.153846154 486.946745562 260.769230769 512.461538461 246 534 c 0
 232.666666667 554 204.333333333 564 161 564 c 0
 108.359110809 564 63 527.932982742 63 470 c 0
 63 430.67337752 79.3847830464 409.933333333 116.453333333 409.933333333 c 0
 129.9889224 409.933333333 138.346823861 408.7873608 144 399.5 c 128
 160.43288991 372.503109435 138.518984758 353 108 353 c 0
 94 353 82.3333333333 356 73 362 c 0
 44.0188679245 380.716981132 29.5283018868 412.284086864 29.5283018868 456.701317195 c 0
 29.5283018868 542.933258494 93.4889028849 595 186 595 c 0
EndSplineSet
EndChar
StartChar: roman_I
Encoding: 26 73 243
Width: 301
GlyphClass: 2
Flags: W
HStem: -1 26<37 101.43 200.992 261> 582 30<37 103.106 195.314 261>
VStem: 116 69<36.2542 574.776>
LayerCount: 2
Back
Fore
SplineSet
261 25 m 1,0,-1
 261 -1 l 1,1,-1
 37 -1 l 1,2,-1
 37 25 l 1,3,4
 84 25 84 25 102 36 c 0,5,6
 116 44 116 44 116 69 c 2,7,-1
 116 540 l 2,8,9
 116 569 116 569 103.5 575.5 c 128,-1,10
 91 582 91 582 63 582 c 2,11,-1
 37 582 l 1,12,-1
 37 612 l 1,13,-1
 261 612 l 1,14,-1
 261 582 l 1,15,-1
 222 582 l 2,16,17
 205 582 205 582 195 575 c 128,-1,18
 185 568 185 568 185 540 c 2,19,-1
 185 67 l 2,20,21
 185 36 185 36 200.5 31 c 128,-1,22
 216 26 216 26 261 25 c 1,0,-1
EndSplineSet
Validated: 1
EndChar
StartChar: roman_V
Encoding: 27 86 244
Width: 654
GlyphClass: 2
Flags: W
HStem: 581 30<31 82.4644 199.507 258 417 475.022 564.202 616>
LayerCount: 2
Back
Fore
SplineSet
526 500 m 2,0,-1
 329 -13 l 1,1,-1
 302 -13 l 1,2,-1
 106 533 l 2,3,4
 95 563 95 563 83 570 c 0,5,6
 66 580 66 580 31 581 c 1,7,-1
 31 611 l 1,8,-1
 258 611 l 1,9,-1
 258 581 l 1,10,11
 215 581 215 581 199 572 c 0,12,13
 184 567 184 567 184 540 c 0,14,15
 184 529 184 529 188 518 c 2,16,-1
 337 97 l 1,17,-1
 479 474 l 2,18,19
 490.013333333 504.837333333 490.013333333 504.837333333 490.013333333 528.457066667 c 0,20,21
 490.013333333 582.013333333 490.013333333 582.013333333 417 583 c 1,22,-1
 417 611 l 1,23,-1
 616 611 l 1,24,-1
 616 583 l 1,25,26
 582 583 582 583 563 565 c 128,-1,27
 544 547 544 547 526 500 c 2,0,-1
EndSplineSet
Validated: 1
EndChar
StartChar: roman_X
Encoding: 28 88 245
Width: 654
GlyphClass: 2
Flags: W
HStem: -1 28<31 80.5938 190.475 244 353 409.525 540.603 614> 583 30<36 94.0283 212.198 266 366 421.942 529.868 576>
LayerCount: 2
Back
Fore
SplineSet
244 27 m 1,0,-1
 244 -1 l 1,1,-1
 31 -1 l 1,2,-1
 31 27 l 1,3,4
 68 27 68 27 94.5 51.5 c 128,-1,5
 121 76 121 76 161 135 c 2,6,-1
 275 302 l 1,7,-1
 123 540 l 2,8,9
 112 557 112 557 90 571 c 0,10,11
 73 582 73 582 36 583 c 1,12,-1
 36 613 l 1,13,-1
 266 613 l 1,14,-1
 266 581 l 1,15,16
 218 581 218 581 212 573 c 0,17,18
 202 560 202 560 202 556 c 0,19,20
 202 548 202 548 211 534 c 2,21,-1
 319 359 l 1,22,-1
 417 502 l 2,23,24
 431 522 431 522 433 545 c 0,25,26
 433 581 433 581 366 583 c 1,27,-1
 366 613 l 1,28,-1
 576 613 l 1,29,-1
 576 585 l 1,30,31
 561 584 561 584 511 559 c 0,32,33
 489 551 489 551 455 502 c 2,34,-1
 341 337 l 1,35,-1
 508 82 l 2,36,37
 518 66 518 66 540 41 c 1,38,39
 559 29 559 29 614 27 c 1,40,-1
 614 -1 l 1,41,-1
 353 -1 l 1,42,-1
 353 27 l 1,43,44
 395 27 395 27 410 38 c 128,-1,45
 425 49 425 49 425 61 c 128,-1,46
 425 73 425 73 413 92 c 2,47,-1
 295 275 l 1,48,-1
 200 132 l 2,49,50
 175 94 175 94 175 71 c 0,51,52
 175 46 175 46 190 37 c 128,-1,53
 205 28 205 28 244 27 c 1,0,-1
EndSplineSet
Validated: 1
EndChar
StartChar: roman_i
Encoding: 29 105 240
Width: 301
GlyphClass: 2
Flags: W
HStem: 0 22<50 106.622 192.29 247> 380 26<48 104.74> 489 88<113.923 177.077>
VStem: 98.931 93.1356<502.38 564.077> 117 66<34.2534 373.777>
LayerCount: 2
Back
Fore
SplineSet
145 577 m 0,0,1
 164 577 164 577 177.5 564.5 c 0,2,3
 192.066666667 551.012345679 192.066666667 551.012345679 192.066666667 530.622222222 c 0,4,5
 192.066666667 514.133333333 192.066666667 514.133333333 179 502 c 0,6,7
 165 489 165 489 145 489 c 0,8,9
 127 489 127 489 113.5 501 c 0,10,11
 98.9310344828 513.950191571 98.9310344828 513.950191571 98.9310344828 535.589774078 c 0,12,13
 98.9310344828 552.862068966 98.9310344828 552.862068966 111.5 564.5 c 0,14,15
 125 577 125 577 145 577 c 0,0,1
247 21 m 1,16,-1
 247 0 l 1,17,-1
 50 0 l 1,18,-1
 50 22 l 1,19,20
 94 22 94 22 108 34 c 0,21,22
 117 42 117 42 117 64 c 2,23,-1
 117 344 l 2,24,25
 117 367 117 367 105 374 c 0,26,27
 97 379 97 379 48 380 c 1,28,-1
 48 406 l 1,29,-1
 183 416 l 1,30,-1
 183 64 l 2,31,32
 183 39 183 39 192 33 c 0,33,34
 201 22 201 22 247 21 c 1,16,-1
EndSplineSet
Validated: 1
EndChar
StartChar: roman_v
Encoding: 30 118 241
Width: 470
GlyphClass: 2
Flags: W
HStem: 389 22<33 70.6633 165.241 207 290 330.529 403.594 435>
LayerCount: 2
Back
Fore
SplineSet
365 322 m 2,0,-1
 245 -5 l 1,1,-1
 224 -5 l 1,2,-1
 91 345 l 2,3,4
 82 369 82 369 72 377 c 0,5,6
 58 388 58 388 33 389 c 1,7,-1
 33 411 l 1,8,-1
 207 411 l 1,9,-1
 207 389 l 1,10,11
 165 389 165 389 158 367 c 0,12,13
 157.307692308 364.461538462 157.307692308 364.461538462 157.307692308 361.017751479 c 0,14,15
 157.307692308 349.538461538 157.307692308 349.538461538 165 328 c 2,16,-1
 253 92 l 1,17,-1
 335 319 l 2,18,19
 341 336 341 336 341 348 c 0,20,21
 341 374 341 374 331 380 c 0,22,23
 316 389 316 389 290 390 c 1,24,-1
 290 411 l 1,25,-1
 435 411 l 1,26,-1
 435 388 l 1,27,28
 389 388 389 388 365 322 c 2,0,-1
EndSplineSet
Validated: 1
EndChar
StartChar: roman_x
Encoding: 31 120 242
Width: 462
GlyphClass: 2
Flags: W
HStem: 0 21.7647<25 61.2359 134.565 186 234 275.365 372.562 411> 388 24<30 70.1562 160.37 207 252 297.329 368.538 403>
LayerCount: 2
Back
Fore
SplineSet
186 22 m 1,0,-1
 186 0 l 1,1,-1
 25 0 l 1,2,-1
 25 22 l 2,3,4
 27 21.7647058824 27 21.7647058824 29.0830449827 21.7647058824 c 0,5,6
 44.7058823529 21.7647058824 44.7058823529 21.7647058824 65 35 c 0,7,8
 78 43 78 43 95 67 c 2,9,-1
 189 198 l 1,10,-1
 86 360 l 2,11,12
 69 386 69 386 30 388 c 1,13,-1
 30 412 l 1,14,-1
 207 412 l 1,15,-1
 207 389 l 1,16,17
 163 389 163 389 156 369 c 0,18,19
 155 366 155 366 155 362.5625 c 0,20,21
 155 352.25 155 352.25 164 338 c 2,22,-1
 224 246 l 1,23,-1
 287 331 l 2,24,25
 301.222222222 349.666666667 301.222222222 349.666666667 301.222222222 367.543209877 c 0,26,27
 301.222222222 384.949074074 301.222222222 384.949074074 252 387 c 1,28,-1
 252 412 l 1,29,-1
 403 412 l 1,30,-1
 403 388 l 1,31,32
 383 386 383 386 362 372 c 0,33,34
 349 367 349 367 334 347 c 2,35,-1
 240 222 l 1,36,-1
 335 68 l 2,37,38
 345 51 345 51 362 39 c 0,39,40
 382 24 382 24 411 23 c 1,41,-1
 411 0 l 1,42,-1
 234 0 l 1,43,-1
 234 26 l 1,44,45
 240.333333333 25.5 240.333333333 25.5 245.833333333 25.5 c 0,46,47
 273.333333333 25.5 273.333333333 25.5 280 38 c 0,48,49
 281.8 41.3 281.8 41.3 281.8 45.5 c 0,50,51
 281.8 55.3 281.8 55.3 272 70 c 2,52,-1
 205 176 l 1,53,-1
 138 82 l 2,54,55
 124 63 124 63 124 50 c 0,56,57
 124 40 124 40 133 33 c 0,58,59
 158 22 158 22 186 22 c 1,0,-1
EndSplineSet
Validated: 1
EndChar
StartChar: braceleft
Encoding: 26 123 246
Width: 416
GlyphClass: 2
Flags: HW
HStem: -36 21<262.988 315> 304 24<41 90.0784> 650 20<268.969 315>
VStem: 159 57<27.2266 266.275 365.294 603.523>
LayerCount: 2
Back
Fore
SplineSet
315 670 m 1
 315 650 l 1
 282.333333333 650 257.666666667 639 241 617 c 1
 224.333333333 600.333333333 216 573 216 535 c 2
 216 476 l 2
 216 426.666666667 210 390.666666667 198 368 c 0
 188 348.666666667 152.666666667 331.333333333 92 316 c 1
 142.666666667 305.333333333 176 290.666666667 192 272 c 128
 208 253.333333333 216 216.666666667 216 162 c 2
 216 97 l 2
 216 65.6666666667 225.333333333 37.6666666667 244 13 c 1
 254 -5 277.666666667 -14.3333333333 315 -15 c 1
 315 -36 l 1
 295 -36 l 2
 265.666666667 -36 235.333333333 -24.6666666667 204 -2 c 0
 176.488618071 17.8693313932 159 74.6128299131 159 123 c 2
 159 184 l 2
 159 222 152 249.333333333 138 266 c 0
 121.333333333 285.333333333 89 298 41 304 c 1
 41 328 l 1
 87.6666666667 336 119.666666667 348.333333333 137 365 c 0
 151.666666667 379 159 407 159 449 c 2
 159 510 l 2
 159 564.666666667 173 603.666666667 201 627 c 0
 234.333333333 655 272.333333333 669.333333333 315 670 c 1
EndSplineSet
EndChar
StartChar: braceright
Encoding: 27 125 242
Width: 416
GlyphClass: 2
Flags: HW
HStem: -36 21<83 134.552> 304 24<306.587 357> 650 20<83 129.031>
VStem: 181 58<27.5312 266.275 365.536 603.595>
LayerCount: 2
Back
Fore
SplineSet
181 535 m 2
 181 602 149 650 83 650 c 1
 83 670 l 1
 126 669 164 655 197 627 c 0
 225 604 239 565 239 510 c 2
 239 449 l 2
 239 408 247 380 262 364 c 128
 277 348 309 336 357 328 c 1
 357 304 l 1
 306 297 274 285 260 266 c 0
 246 250 239 223 239 184 c 2
 239 123 l 2
 239 75 222 18 194 -2 c 0
 162 -25 132 -36 103 -36 c 2
 83 -36 l 1
 83 -15 l 1
 120 -14 144 -5 154 13 c 0
 172 38 181 66 181 97 c 2
 181 162 l 2
 181 217 189 253 206 272 c 0
 219 291 253 305 306 316 c 1
 245 331 210 349 200 368 c 0
 187 392 181 428 181 476 c 2
 181 535 l 2
EndSplineSet
EndChar
StartChar: next_page
Encoding: 28 187 239
Width: 804
GlyphClass: 2
Flags: HW
HStem: -16 28<360.173 453.058> -2 73<477.385 532.275> 31 30<137 171> 59 39<208.127 292.104> 109 5<476.95 498.6> 136 28<401.499 471.724> 191 32<404.17 455.757> 233 31<541 721.653> 301 27<137 171> 335 28<298.625 410.184 453.163 716.476>
VStem: 32 105<61 301> 171 37<98 267> 334 41<166 219.78> 454 4<90.0938 99.2812> 549 30<82.9036 117.5> 563 16<149.601 182.894> 727 31<277.76 326.311>
LayerCount: 2
Back
Fore
SplineSet
137 61 m 1x2ffc80
 171 61 l 1
 171 301 l 1
 137 301 l 1
 137 61 l 1x2ffc80
479 114 m 0
 506 114 563 141 563 166 c 0x1ffd80
 563 169 562 173 560 176 c 0
 552 189 541 198 526 201 c 1
 511 166 478 136 429 136 c 0
 421 136 412 137 401 140 c 1
 408 117 420 99 438 88 c 128
 456 77 473 71 488 71 c 0x4ffd80
 512 71 535 80 547 94 c 0
 548 95 549 97 549 98 c 0x1ffe80
 549 105 536 109 510 109 c 0
 506 109 493 108 471 106 c 0
 464 104 460 102 457 100 c 1
 453 132 l 2
 455 120 464 114 479 114 c 0
510 248 m 1
 502 217 478 191 443 191 c 0
 413 191 376 215 370 239 c 1
 389 272 l 1
 389 259 394 248 404 239 c 0
 417 228 427 223 436 223 c 0
 459 223 466 246 466 270 c 1
 449 300 423 320 390 329 c 0
 379 334 366 336 351 336 c 0
 335 336 320.277430273 334.366458164 308 327 c 2
 208 267 l 1
 208 98 l 1x1ffe80
 278 98 325 72 354 30 c 1
 370 18 387 12 405 12 c 0x8ffe80
 433 12 457 24 477 47 c 1
 417 63 l 1
 410 92 l 1
 384 96 l 1
 381 124 l 1
 350 127 l 1
 340 160 l 1
 336 198 l 2
 335 202 334 204 334 205 c 0
 334 215 343 229 354 229 c 0
 364 229 375 215 375 201 c 2
 375 166 l 1
 452 164 l 1
 475 177 495 197 510 225 c 0
 516 241 520 254 522 264 c 1
 686 264 l 2
 713 264 723 274 727 295 c 0
 727 314 709 335 691 335 c 2
 486 335 l 1
 471 336 449 351 437 363 c 1
 686 363 l 2
 721 363 758 335 758 300 c 0
 758 263 740 240 705 233 c 1
 541 233 l 1
 554 207 l 1
 568 200 576 190 579 176 c 1x8ffd80
 579 161 576 150 571 143 c 1
 576 131 579 120 579 110 c 0
 579 101 576 92 571 81 c 1
 539 66 l 1
 541 60 542 54 542 49 c 0
 542 14 514 -2 478 -2 c 1x4ffe80
 455 -11 432 -16 408 -16 c 0
 383 -16 359 -12 336 -4 c 1
 307 38 271 59 226 59 c 0x9ffe80
 217 59 211 59 208 58 c 1
 201 31 l 1x2ffe80
 32 32 l 1
 32 328 l 1
 222 328 l 1
 260 348 298 364 336 365 c 2
 397 367 l 1
 453 354 498 306 510 248 c 1
457 100 m 1
 458 90 l 1
 455 92 454 94 454 96 c 0
 454 97 455 99 457 100 c 1
EndSplineSet
EndChar
StartChar: multiply
Encoding: 37 215 213
Width: 493
GlyphClass: 2
Flags: W
LayerCount: 2
Back
Fore
SplineSet
56 330 m 1,0,-1
 91 365 l 1,1,-1
 229 225 l 1,2,-1
 371 362 l 1,3,-1
 407 329 l 1,4,-1
 263 188 l 1,5,-1
 412 46 l 1,6,-1
 374 11 l 1,7,-1
 228 155 l 1,8,-1
 81 10 l 1,9,-1
 47 43 l 1,10,-1
 199 194 l 1,11,-1
 56 330 l 1,0,-1
EndSplineSet
Validated: 1
EndChar
StartChar: divide
Encoding: 30 247 238
Width: 397
GlyphClass: 2
Flags: HW
HStem: 67 61<175.945 236.938> 182 40<38 373> 265 63<174.65 234.742>
VStem: 175 64<68.0547 126.22 266.436 325.693>
LayerCount: 2
Back
Fore
SplineSet
207 128 m 0
 215.666666667 128 223.166666667 124.666666667 229.5 118 c 128
 235.833333333 111.333333333 239 103.666666667 239 95 c 0
 239 76.3333333333 228 67 206 67 c 0
 185.333333333 67 175 77 175 97 c 0
 175 117.666666667 185.666666667 128 207 128 c 0
206 328 m 128
 214.666666667 328 222 324.5 228 317.5 c 128
 234 310.5 237 303 237 295 c 0
 237 275 226.333333333 265 205 265 c 128
 183.666666667 265 173 275.666666667 173 297 c 0
 173 305 176.333333333 312.166666667 183 318.5 c 128
 189.666666667 324.833333333 197.333333333 328 206 328 c 128
38 182 m 1
 38 222 l 1
 373 222 l 1
 373 182 l 1
 38 182 l 1
EndSplineSet
EndChar
StartChar: top_white_circle
Encoding: 31 730 243
Width: 263
GlyphClass: 2
Flags: HW
HStem: 540 26<82.6943 158.636> 688 28<80.5774 159.222>
VStem: 31 27<589.284 664.135> 183 28<589.874 665.675>
LayerCount: 2
Back
Fore
SplineSet
31 628 m 0
 31 677 73 716 122 716 c 128
 170 716 211 676 211 628 c 0
 211 580 170 540 122 540 c 0
 73 540 31 580 31 628 c 0
119 688 m 0
 88 688 58 663 58 627 c 0
 58 596 83 566 120 566 c 0
 152 566 183 591 183 628 c 0
 183 660 155 688 119 688 c 0
EndSplineSet
EndChar
StartChar: anusvara
Encoding: 32 3458 97
Width: 364
GlyphClass: 2
Flags: HW
HStem: 25 44<109.009 235.24> 275 29<118.342 225.127>
VStem: 31 37<112.869 229.667> 277 38<114.785 231.217>
LayerCount: 2
Back
Fore
SplineSet
173 275 m 0
 117.300838009 275 68 230.863938218 68 172 c 0
 68 116.515645722 114.041801539 69 172 69 c 0
 226.420041572 69 277 114.169529238 277 173 c 0
 277 226.816853268 231.074116039 275 173 275 c 0
31 166 m 0
 31 245.662863239 96.9797810126 304 174 304 c 0
 254.258356515 304 315 240.291031798 315 164 c 0
 315 84.4947799158 251.991277569 25 175 25 c 0
 139.666666667 25 108.333333333 36.3333333333 81 59 c 0
 47.6666666667 86.3333333333 31 122 31 166 c 0
EndSplineSet
EndChar
StartChar: visarga
Encoding: 41 3459 99
Width: 248
GlyphClass: 2
Flags: W
HStem: 37 26<80.644 151.963> 171 30<77.696 151.403> 224 26<80.7203 152.066> 358 29<78.0895 151.108>
VStem: 32 28<81.8359 152.764 268.836 339.764> 171 28<82.3984 152.449 269.398 339.324>
LayerCount: 2
Back
Fore
SplineSet
60 118 m 0,0,1
 60 92 60 92 81 75 c 0,2,3
 96 63 96 63 116 63 c 0,4,5
 143 63 143 63 159 83 c 0,6,7
 171 98 171 98 171 117 c 0,8,9
 171 143 171 143 150 159 c 0,10,11
 134 171 134 171 115 171 c 0,12,13
 93 171 93 171 76.5 155.5 c 128,-1,14
 60 140 60 140 60 118 c 0,0,1
60 305 m 0,15,16
 60 279 60 279 81 262 c 0,17,18
 96 250 96 250 116 250 c 0,19,20
 143 250 143 250 159 270 c 0,21,22
 171 285 171 285 171 304 c 0,23,24
 171 330 171 330 150 346 c 0,25,26
 134 358 134 358 115 358 c 0,27,28
 93 358 93 358 76.5 342.5 c 128,-1,29
 60 327 60 327 60 305 c 0,15,16
53 360 m 0,30,31
 78 387 78 387 115 387 c 0,32,33
 147 387 147 387 171 366 c 0,34,35
 199 342 199 342 199 306 c 0,36,37
 199 275 199 275 177 251 c 0,38,39
 152 224 152 224 116 224 c 0,40,41
 84 224 84 224 60 245 c 0,42,43
 32 270 32 270 32 306 c 0,44,45
 32 337 32 337 53 360 c 0,30,31
53 173 m 0,46,47
 79 201 79 201 116 201 c 0,48,49
 148 201 148 201 171 180 c 0,50,51
 199 155 199 155 199 119 c 0,52,53
 199 88 199 88 177 64 c 0,54,55
 152 37 152 37 115 37 c 0,56,57
 84 37 84 37 60 58 c 0,58,59
 32 83 32 83 32 119 c 0,60,61
 32 150 32 150 53 173 c 0,46,47
EndSplineSet
Validated: 1
EndChar
StartChar: si_A
Encoding: 42 3461 100
Width: 573
GlyphClass: 2
Flags: W
HStem: -4.5 27.4375<207.344 359 388 418.977> 200 29<388 447.437> 287 22<183.944 316> 393 40.0256<198.399 289.333>
VStem: 32.7576 80.2424<87.7183 234.294> 316 31<309 361.269> 359 29<-215 0 29 206 229.61 379.885> 463.125 62.8893<240.59 338.424>
LayerCount: 2
Back
Fore
SplineSet
424 401 m 1,0,1
 388 382 388 382 388 317 c 2,2,-1
 388 233 l 1,3,4
 400 229 400 229 411 229 c 0,5,6
 433 229 433 229 447.5 242.5 c 0,7,8
 463.124808572 257.047235567 463.124808572 257.047235567 463.124808572 280.953223775 c 0,9,10
 463.124808572 315.29718607 463.124808572 315.29718607 427 374 c 0,11,12
 419 387 419 387 424 401 c 1,0,1
316 309 m 1,13,14
 314 368 314 368 268 386 c 0,15,16
 250 393 250 393 235.75 393 c 128,-1,17
 221.5 393 221.5 393 211 386 c 0,18,19
 200 379 200 379 185 354 c 0,20,21
 174 335 174 335 152 332 c 0,22,23
 148 331.4 148 331.4 144.32 331.4 c 0,24,25
 129.6 331.4 129.6 331.4 120 341 c 0,26,27
 108 353 108 353 108 371 c 0,28,29
 108 384 108 384 115 395 c 0,30,31
 140 431 140 431 214 433 c 0,32,33
 215.512820513 433.025641026 215.512820513 433.025641026 217.011176857 433.025641026 c 0,34,35
 273.948717949 433.025641026 273.948717949 433.025641026 310 396 c 0,36,37
 348 355 348 355 347 287 c 1,38,-1
 236 287 l 2,39,40
 182 287 182 287 147.5 251 c 128,-1,41
 113 215 113 215 113 164 c 0,42,43
 113 48 113 48 250 26 c 0,44,45
 270.125 22.9375 270.125 22.9375 293.50390625 22.9375 c 0,46,47
 323.5625 22.9375 323.5625 22.9375 359 28 c 1,48,-1
 359 313 l 2,49,50
 359 369 359 369 386 401 c 0,51,52
 409 427 409 427 439 435 c 1,53,-1
 462 424 l 1,54,55
 445 418 445 418 445 403 c 0,56,57
 445 398 445 398 448.5 392 c 128,-1,58
 452 386 452 386 491 352 c 0,59,60
 521 326 521 326 525 296 c 0,61,62
 526.014084507 288.732394366 526.014084507 288.732394366 526.014084507 281.936123785 c 0,63,64
 526.014084507 248.521126761 526.014084507 248.521126761 501.5 226.5 c 0,65,66
 472 200 472 200 428 200 c 0,67,68
 408 200 408 200 388 206 c 1,69,-1
 388 29 l 1,70,71
 425 35 425 35 463 50 c 0,72,73
 491 61 491 61 523 83 c 1,74,-1
 523 51 l 1,75,76
 503 39 503 39 472 26 c 128,-1,77
 441 13 441 13 388 2 c 1,78,-1
 388 -215 l 1,79,-1
 359 -215 l 1,80,-1
 359 0 l 1,81,82
 317.75 -4.5 317.75 -4.5 282.125 -4.5 c 0,83,84
 270.25 -4.5 270.25 -4.5 259 -4 c 0,85,86
 39 8 39 8 33 151 c 0,87,88
 32.7575757576 156.090909091 32.7575757576 156.090909091 32.7575757576 161.034894399 c 0,89,90
 32.7575757576 237.666666667 32.7575757576 237.666666667 91 279 c 0,91,92
 133 309 133 309 206 309 c 2,93,-1
 316 309 l 1,13,14
EndSplineSet
Validated: 33
EndChar
StartChar: si_Aa
Encoding: 35 3462 100
Width: 850
GlyphClass: 2
Flags: HW
HStem: -4 27<207.344 359 388 418.977> -4 40<600.809 694.781> 200 29<388 447.437> 287 22<183.944 316> 361 37<614.282 700.954> 393 40<198.399 289.333>
VStem: 33 80<87.7183 234.294> 316 31<309 361.269> 359 29<-215 0 29 206 229.61 379.885> 463 63<240.59 338.424> 553 28<62.4011 128 253 319.216> 734 66<78.4691 324.817>
LayerCount: 2
Back
Fore
SplineSet
734 210 m 0
 734 275 717 361 664 361 c 0
 612 361 583 318 580 265 c 0
 580 261 580 257 581 253 c 1x73f0
 553 253 l 1
 553 266 l 2
 553 340 603 398 675 398 c 0
 767 398 800 309 800 207 c 0
 800 69 754 -4 664 -4 c 0
 597 -4 552 38 552 106 c 0
 552 113 552 121 553 128 c 1
 579 128 l 1
 578 123 578 118 578 113 c 0
 578 69 608 36 652 36 c 0
 707 36 734 100 734 210 c 0
EndSplineSet
Refer: 99 3461 S 1 0 0 1 0 0 2
EndChar
StartChar: si_Ae
Encoding: 44 3463 102
Width: 872
GlyphClass: 2
Flags: W
HStem: -145.49 54.4902<731.424 815.654> -4.5 27.4375<207.344 359 388 418.977> 200 29<388 447.437> 287 22<183.944 316> 315 26<535 743> 393 40.0256<198.399 289.333>
VStem: 32.7576 80.2424<87.7183 234.294> 316 31<309 361.269> 359 29<-215 0 29 206 229.61 379.885> 463.125 62.8893<240.59 338.424> 616 69.1071<-41.6523 132.486>
LayerCount: 2
Back
Fore
SplineSet
535 341 m 1
 781 341 l 2
 780 338 780 338 778 325 c 1
 685.107142857 188.392857143 685.107142857 188.392857143 685.107142857 50.9563137755 c 0
 685.107142857 37.4821428571 685.107142857 37.4821428571 686 24 c 0
 689 -25 689 -25 719 -58 c 0
 749 -91 749 -91 796 -91 c 0
 815 -91 815 -91 834 -86 c 1
 838 -104 l 1
 801.019607843 -145.490196078 801.019607843 -145.490196078 744.514417532 -145.490196078 c 0
 738.37254902 -145.490196078 738.37254902 -145.490196078 732 -145 c 0
 674 -140 674 -140 644 -95.5 c 0
 615.875 -53.78125 615.875 -53.78125 615.875 9.470703125 c 0
 615.875 13.6875 615.875 13.6875 616 18 c 0
 619 102 619 102 659 185 c 0
 702 274 702 274 743 315 c 1
 535 315 l 1
 535 341 l 1
EndSplineSet
Refer: 100 3461 S 1 0 0 1 0 0 2
Validated: 1
EndChar
StartChar: si_Aee
Encoding: 45 3464 103
Width: 874
GlyphClass: 2
Flags: W
HStem: -145 42<751.434 844.812> -4.5 27.4375<207.344 359 388 418.977> 200 29<388 447.437> 202 22<660 776> 287 22<183.944 316> 318 24<545 746> 393 40.0256<198.399 289.333>
VStem: 32.7576 80.2424<87.7183 234.294> 316 31<309 361.269> 359 29<-215 0 29 206 229.61 379.885> 463.125 62.8893<240.59 338.424> 631 69<-56.8392 71.3485>
LayerCount: 2
Back
Fore
SplineSet
545 342 m 1
 790 342 l 1
 790 320 l 1
 660 224 l 1
 813 224 l 1
 813 204 l 1
 799 196 799 196 758 149 c 0
 700 82 700 82 700 14 c 0
 700 -69 700 -69 775 -93 c 0
 806 -103 806 -103 847 -103 c 1
 846 -128 l 1
 808 -145 808 -145 770 -145 c 0
 755 -145 755 -145 741 -142 c 0
 631 -120 631 -120 631 -9 c 0
 631 4 631 4 633 19 c 0
 639 67 639 67 697 133 c 0
 731 172 731 172 776 202 c 1
 613 202 l 1
 613 221 l 1
 746 318 l 1
 545 318 l 1
 545 342 l 1
EndSplineSet
Refer: 100 3461 S 1 0 0 1 0 0 2
Validated: 1
EndChar
StartChar: si_I
Encoding: 46 3465 104
Width: 593
GlyphClass: 2
Flags: W
HStem: -160.291 23.0242<252.719 351.992> -13 23<238 318.918> 54 26.9808<151.371 286> 121 28<265.871 332.67> 247 28.5818<264.985 334.427> 357.4 74.9906<168.527 399.408>
VStem: 32.8846 40.5347<142.803 274.492> 173 57<-125.479 -41.75> 216 34<162.23 232.854> 350 39<162.212 234.522> 375.242 63.7801<-123.289 -40.3154> 506 38<105.865 256.828>
LayerCount: 2
Back
Fore
SplineSet
250 198 m 0,0,1
 250 176 250 176 265.5 162.5 c 128,-1,2
 281 149 281 149 300 149 c 0,3,4
 322 149 322 149 336 164 c 128,-1,5
 350 179 350 179 350 198 c 0,6,7
 350 220 350 220 334.5 233.5 c 128,-1,8
 319 247 319 247 300 247 c 0,9,10
 278 247 278 247 264 232 c 128,-1,11
 250 217 250 217 250 198 c 0,0,1
333 131 m 1,12,13
 317 121 317 121 297 121 c 0,14,15
 266 121 266 121 241 142.5 c 128,-1,16
 216 164 216 164 216 195 c 0,17,18
 216 232 216 232 246 255.5 c 0,19,20
 271.636363636 275.581818182 271.636363636 275.581818182 302.38446281 275.581818182 c 0,21,22
 307.618181818 275.581818182 307.618181818 275.581818182 313 275 c 0,23,24
 347 272 347 272 368 246 c 128,-1,25
 389 220 389 220 389 186 c 0,26,27
 389 143 389 143 356 108.5 c 128,-1,28
 323 74 323 74 274 61 c 0,29,30
 247 54 247 54 218 54 c 0,31,32
 140 54 140 54 87.5 98 c 128,-1,33
 35 142 35 142 33 210 c 0,34,35
 32.8846153846 214.115384615 32.8846153846 214.115384615 32.8846153846 218.162721893 c 0,36,37
 32.8846153846 319.346153846 32.8846153846 319.346153846 105 378 c 0,38,39
 171.375 432.390625 171.375 432.390625 279.392822266 432.390625 c 0,40,41
 288.546875 432.390625 288.546875 432.390625 298 432 c 0,42,43
 416 427 416 427 479 368 c 0,44,45
 544 306 544 306 544 191 c 0,46,47
 544 117 544 117 497 61.5 c 128,-1,48
 450 6 450 6 384 -6 c 1,49,50
 439.02173913 -16.1892109501 439.02173913 -16.1892109501 439.02173913 -74.8175803403 c 0,51,52
 439.02173913 -115.52173913 439.02173913 -115.52173913 395 -139 c 0,53,54
 359 -158 359 -158 311 -160 c 0,55,56
 304.163636364 -160.290909091 304.163636364 -160.290909091 297.639338843 -160.290909091 c 0,57,58
 214.454545455 -160.290909091 214.454545455 -160.290909091 182 -113 c 0,59,60
 173 -101 173 -101 173 -83 c 0,61,62
 173 -39 173 -39 211 -39 c 0,63,64
 236 -39 236 -39 236 -65 c 0,65,66
 236 -69 236 -69 233 -77.5 c 128,-1,67
 230 -86 230 -86 230 -92 c 0,68,69
 230 -113 230 -113 252 -126 c 0,70,71
 271.066666667 -137.266666667 271.066666667 -137.266666667 302.151111111 -137.266666667 c 0,72,73
 306.933333333 -137.266666667 306.933333333 -137.266666667 312 -137 c 0,74,75
 371 -133 371 -133 375 -86 c 0,76,77
 375.241610738 -83.2617449664 375.241610738 -83.2617449664 375.241610738 -80.6256474934 c 0,78,79
 375.241610738 -17.7986577181 375.241610738 -17.7986577181 238 -13 c 1,80,-1
 238 15 l 1,81,82
 275 10 275 10 306 10 c 0,83,84
 400 10 400 10 456 58 c 0,85,86
 506 101 506 101 506 179 c 0,87,88
 506 255 506 255 449 304 c 128,-1,89
 392 353 392 353 302 357 c 0,90,91
 292.6 357.4 292.6 357.4 283.53 357.4 c 0,92,93
 201.9 357.4 201.9 357.4 147 325 c 0,94,95
 81 288 81 288 74 216 c 0,96,97
 73.4193548387 210 73.4193548387 210 73.4193548387 204.168574402 c 0,98,99
 73.4193548387 149.741935484 73.4193548387 149.741935484 124 110 c 0,100,101
 159 82 159 82 222 81 c 0,102,103
 223.288461538 80.9807692308 223.288461538 80.9807692308 224.56841716 80.9807692308 c 0,104,105
 289.846153846 80.9807692308 289.846153846 80.9807692308 333 131 c 1,12,13
EndSplineSet
Validated: 1
EndChar
StartChar: si_Ii
Encoding: 47 3466 105
Width: 528
GlyphClass: 2
Flags: W
HStem: 0 73<154.306 334.271> 403 27<418.777 476.281> 414 23.2857<247.709 328.2> 474 27<155.16 213.368> 505 27<418.241 476.767> 576 27<154.099 213.338>
VStem: 31 35<165.864 302.318> 117 28<510.735 566.995> 224 25<511.98 565.507> 381 27<440.4 494.96> 430 52.0183<171.072 320.747> 486 26<440.361 494.995>
LayerCount: 2
Back
Fore
SplineSet
408 468 m 128,-1,1
 408 452 408 452 419.5 441 c 128,-1,2
 431 430 431 430 447 430 c 128,-1,3
 463 430 463 430 474.5 441.5 c 128,-1,4
 486 453 486 453 486 468 c 0,5,6
 486 484 486 484 474 494.5 c 128,-1,7
 462 505 462 505 447 505 c 0,8,9
 431 505 431 505 419.5 494.5 c 128,-1,0
 408 484 408 484 408 468 c 128,-1,1
145 540 m 0,10,11
 145 524 145 524 157 512.5 c 128,-1,12
 169 501 169 501 185 501 c 128,-1,13
 201 501 201 501 212.5 512 c 128,-1,14
 224 523 224 523 224 539 c 128,-1,15
 224 555 224 555 212 565.5 c 128,-1,16
 200 576 200 576 184 576 c 0,17,18
 169 576 169 576 157 565.5 c 128,-1,19
 145 555 145 555 145 540 c 0,10,11
445 532 m 128,-1,21
 472 532 472 532 492 513 c 128,-1,22
 512 494 512 494 512 467 c 0,23,24
 512 442 512 442 494 422.5 c 128,-1,25
 476 403 476 403 448 403 c 0,26,27
 421 403 421 403 401 422 c 128,-1,28
 381 441 381 441 381 468 c 0,29,30
 381 493 381 493 399.5 512.5 c 128,-1,20
 418 532 418 532 445 532 c 128,-1,21
119 355 m 0,31,32
 66 306 66 306 66 237 c 0,33,34
 66 172 66 172 115 124 c 0,35,36
 167 73 167 73 244 73 c 0,37,38
 331 73 331 73 385 136 c 0,39,40
 430 189 430 189 430 254 c 0,41,42
 430 322 430 322 380 370 c 0,43,44
 334 414 334 414 266 414 c 0,45,46
 183 414 183 414 119 355 c 0,31,32
170 422 m 0,47,48
 195 435 195 435 235 459 c 0,49,50
 256 471 256 471 308 517 c 0,51,52
 331 541 331 541 357 578 c 0,53,54
 377 606 377 606 392 618 c 0,55,56
 399 623 399 623 409 623 c 0,57,58
 433 623 433 623 433 606 c 0,59,60
 433 576 433 576 360 515 c 0,61,62
 311 474 311 474 247 436 c 1,63,64
 258.142857143 437.285714286 258.142857143 437.285714286 268.183673469 437.285714286 c 0,65,66
 281.571428571 437.285714286 281.571428571 437.285714286 293 435 c 0,67,68
 376 427 376 427 429.5 366.5 c 0,69,70
 482.018348624 307.110091743 482.018348624 307.110091743 482.018348624 225.074657015 c 0,71,72
 482.018348624 120.844766472 482.018348624 120.844766472 393 47 c 0,73,74
 336 0 336 0 248 0 c 0,75,76
 154 0 154 0 92.5 60 c 128,-1,77
 31 120 31 120 31 213 c 0,78,79
 31 295 31 295 76 347 c 0,80,81
 113 390 113 390 170 422 c 0,47,48
181 603 m 128,-1,83
 208 603 208 603 228.5 584 c 128,-1,84
 249 565 249 565 249 538 c 0,85,86
 249 513 249 513 230.5 493.5 c 128,-1,87
 212 474 212 474 184 474 c 0,88,89
 157 474 157 474 137 492.5 c 128,-1,90
 117 511 117 511 117 540 c 0,91,92
 117 564 117 564 135.5 583.5 c 128,-1,82
 154 603 154 603 181 603 c 128,-1,83
EndSplineSet
Validated: 1
EndChar
StartChar: si_U
Encoding: 48 3467 106
Width: 651
GlyphClass: 2
Flags: W
HStem: -160.821 32.9556<254.182 430.514> 271 25<216.117 507> 390 42.0816<356.481 460.309>
VStem: 31.8605 76.9729<8.15503 186.729> 574 29<0.210938 69>
LayerCount: 2
Back
Fore
SplineSet
282 271 m 6,0,1
 208 271 208 271 157 221 c 4,2,3
 108.833333333 173.777777778 108.833333333 173.777777778 108.833333333 110.5 c 4,4,5
 108.833333333 106.777777778 108.833333333 106.777777778 109 103 c 4,6,7
 114 -3 114 -3 186 -69 c 4,8,9
 250.216216216 -127.864864865 250.216216216 -127.864864865 339.887509131 -127.864864865 c 4,10,11
 350.756756757 -127.864864865 350.756756757 -127.864864865 362 -127 c 4,12,13
 451 -120 451 -120 512 -65 c 132,-1,14
 573 -10 573 -10 574 69 c 5,15,-1
 603 69 l 5,16,17
 604 -26 604 -26 528 -91 c 4,18,19
 456 -153 456 -153 350 -160 c 4,20,21
 337.384615385 -160.820512821 337.384615385 -160.820512821 325.084812623 -160.820512821 c 4,22,23
 217.461538462 -160.820512821 217.461538462 -160.820512821 134 -98 c 4,24,25
 36 -24 36 -24 32 93 c 4,26,27
 31.8604651163 96.9069767442 31.8604651163 96.9069767442 31.8604651163 100.760951866 c 4,28,29
 31.8604651163 179.76744186 31.8604651163 179.76744186 90.5 236.5 c 4,30,31
 152 296 152 296 237 296 c 6,32,-1
 507 296 l 5,33,34
 502 347 502 347 462 372 c 4,35,36
 434 390 434 390 408 390 c 4,37,38
 385 390 385 390 364 376 c 4,39,40
 356 371 356 371 346.5 354.5 c 132,-1,41
 337 338 337 338 318 331 c 4,42,43
 312 329 312 329 305 329 c 4,44,45
 290 329 290 329 278.5 339.5 c 132,-1,46
 267 350 267 350 267 366 c 4,47,48
 267 372 267 372 269 378 c 4,49,50
 286 430 286 430 372 432 c 4,51,52
 374.979591837 432.081632653 374.979591837 432.081632653 377.917534361 432.081632653 c 4,53,54
 446.959183673 432.081632653 446.959183673 432.081632653 493 387 c 132,-1,55
 539.08 341.88 539.08 341.88 539.08 276.4848 c 4,56,57
 539.08 273.76 539.08 273.76 539 271 c 5,58,-1
 282 271 l 6,0,1
EndSplineSet
Validated: 33
EndChar
StartChar: si_Uu
Encoding: 41 3468 106
Width: 994
GlyphClass: 2
Flags: HW
HStem: -160.821 32.9556<254.182 430.514> -2 27.9655<742.32 823.055> 211.933 25.0667<643.658 715.95> 271 25<216.117 507> 390 42.0816<356.481 460.309> 408.067 23.9333<760.505 829.814>
VStem: 31.8605 76.9729<8.15503 186.729> 580 29<15.3184 69 271.029 395.725> 681 27<65.7863 157> 712.342 27.484<337.189 389.783> 733 43<249.259 333.089> 870.178 69.8545<103.058 343.92>
LayerCount: 2
Back
Fore
SplineSet
683.115555556 211.933333333 m 0
 621.800236408 211.933333333 580 259.831385678 580 321 c 0
 580 369.666666667 592.333333333 405.333333333 617 428 c 1
 652 428 l 1xf3b0
 623.333333333 410 609 374.666666667 609 322 c 0
 609 276.285471968 639.379024046 237 685 237 c 0
 713.344175654 237 733 261.461621133 733 290 c 0
 733 307.333333333 726.333333333 323 713 337 c 0
 712.561403509 341.035087719 712.342105263 344.977839335 712.342105263 348.828254848 c 0
 712.342105263 374.24099723 721.894736842 395.631578947 741 413 c 0
 755 425.666666667 780.333333333 432 817 432 c 0
 900.902993956 432 940.032258065 318.99638824 940.032258065 225.204994797 c 0
 940.032258065 113.012830767 889.33656202 -2 786 -2 c 0
 721.191647155 -2 681 53.985434109 681 120 c 0
 681 132 682.333333333 144.333333333 685 157 c 1
 711 157 l 1
 709 146.333333333 708 135.666666667 708 125 c 0
 708 72.1479509623 734.281241353 25.9655172414 785.466706302 25.9655172414 c 0
 843.107657484 25.9655172414 870.177777778 91.9027257512 870.177777778 219.829135802 c 0
 870.177777778 335.834756061 850.188629453 408.066666667 798.573333333 408.066666667 c 0
 762.633463412 408.066666667 739.826086957 384.974160575 739.826086957 348.950850662 c 0
 739.826086957 347.012602395 739.884057971 345.028985507 740 343 c 0
 764 330.333333333 776 312 776 288 c 0
 776 239.191217437 732.005153926 211.933333333 683.115555556 211.933333333 c 0
EndSplineSet
Refer: 105 3467 N 1 0 0 1 0 0 2
EndChar
StartChar: si_vocalicR
Encoding: 42 3469 107
Width: 894
GlyphClass: 2
Flags: HW
HStem: -1.09524 30.0952<692.272 788.044> -1 73<119.538 263.558 362.836 521.541> 17 26<758.564 804.915> 194 28<710.271 801> 283.5 26.8333<141.362 275.175 434.464 516.448> 358 35<688.473 767.751> 382.013 50.8958<154.725 243.61> 392 40<388.934 504.959>
VStem: 31 39<120.508 228.976> 299 30<106.719 182> 521 38<306.223 375.623> 568.028 39.8713<118.827 240.669> 632.869 23.7026<242 311.165> 633 31<57.4081 157.82> 801 62.0345<118.257 194 222 316.083> 802 45<40.6339 193.335>
LayerCount: 2
Back
Fore
SplineSet
521 339 m 0
 521 373.7789663 486.37941811 392 450 392 c 0
 395.333333333 392 366 364.333333333 362 309 c 1x19f0
 381.333333333 314.333333333 405 317 433 317 c 0
 464.333333333 317 488.666666667 313.333333333 506 306 c 1
 516 315.333333333 521 326.333333333 521 339 c 0
163.082644628 432.909090909 m 0
 248.970859937 432.909090909 291.39516129 384.543305493 291.39516129 297.179110302 c 0
 291.39516129 292.253251821 291.26344086 287.193548387 291 282 c 1
 268.333333333 283 248.666666667 283.5 232 283.5 c 0
 176.328443334 283.5 139.721185696 275.992449336 108 251 c 0
 82.6666666667 231.666666667 70 206 70 174 c 0
 70 116.040698896 133.006660621 72 192 72 c 0
 244.612624053 72 299 97.4278148154 299 145 c 2
 299 182 l 1
 329 182 l 1
 329 145 l 2
 329 93.0392524785 392.028804923 72 450 72 c 0
 511.805893191 72 568.027777778 116.098260651 568.027777778 177.456018519 c 0
 568.027777778 239.54185048 518.730412178 283.75178071 461 289 c 0
 450.298245614 289.877192983 439.388734995 290.315789474 428.271468144 290.315789474 c 0
 397.14312096 290.315789474 364.385964912 286.877192983 330 280 c 1
 329.806451613 283.870967742 329.709677419 287.682622269 329.709677419 291.43496358 c 0
 329.709677419 375.02184204 378.905407744 432.324675325 460.894754596 432.324675325 c 0
 511.874009108 432.324675325 543.909090909 409.883116883 557 365 c 0
 558.333333333 360.333333333 559 355.333333333 559 350 c 0
 559 326.957580983 546.149075474 304.145448113 529 297 c 1
 579.305496911 272.5659015 607.899082569 227.57371117 607.899082569 160.050164128 c 0
 607.899082569 120.102348287 594.099388379 84.5856269113 566.5 53.5 c 0
 534.833333333 17.8333333333 494 0 444 0 c 0
 380 0 336 27.3333333333 312 82 c 1
 291.333333333 26.6666666667 246.666666667 -1 178 -1 c 0x59f0
 135.333333333 -1 100.166666667 14.3333333333 72.5 45 c 0
 44.8333333333 75.6666666667 31 111.666666667 31 153 c 0
 31 258.117118396 110.920808543 310.333333333 224.950617284 310.333333333 c 0
 236.390946502 310.333333333 248.407407407 309.888888889 261 309 c 1
 258.368888889 357.675555555 234.969540741 382.013333333 190.801955556 382.013333333 c 0
 190.205096297 382.013333333 189.604444445 382.008888889 189 382 c 0
 171.666666667 382 159 372.666666667 151 354 c 0
 142.2 333.257142857 127.473469388 322.885714286 106.820408163 322.885714286 c 0
 80.8742996967 322.885714286 67.8823529412 336.237788209 67.8823529412 361.960207612 c 0
 67.8823529412 405.765326879 114.803845415 432.909090909 163.082644628 432.909090909 c 0
EndSplineSet
Refer: 194 3544 N 1 0 0 1 600 0 2
EndChar
StartChar: si_vocalicU
Encoding: 44 3471 109
Width: 805
GlyphClass: 2
Flags: HW
HStem: 0 71<256.12 540.85> 1.8 26.2<109.813 153.228 638.221 683.512> 78 29<107.911 150.721 637.201 683.063> 282.6 22.7333<246.266 341.719 438.659 549.49> 390.333 41.8974<247.419 328.546> 400.64 31.36<468.374 572.064> 452.15 27.0695<135.928 179.928 597.945 657.168>
VStem: 31 31<125.566 348.754> 135.9 38.0872<130.239 230.918> 158 89<331.837 388.519> 190 32<426.312 451.624> 342 30<305.262 371.647> 408 30<304 370.384> 569 27<406.194 450.747> 591 30<302.254 380.499> 608.2 26.1667<38.4903 60.8964> 615.427 36.8115<124.967 235.622> 729 32<117.963 350.88>
LayerCount: 2
Back
Fore
SplineSet
255.585798817 432.230769231 m 0
 331.723985509 432.230769231 372 392.6587523 372 324 c 0
 372 310 370 295.333333333 366 280 c 1
 310 280 278 279.333333333 270 278 c 0
 223.90826092 270.525663933 173.987179487 229.297168662 173.987179487 177.594017094 c 0
 173.987179487 97.1537789379 305.642080391 71 401 71 c 0
 543.951566951 71 615.427350427 105.821535539 615.427350427 175.464606618 c 0
 615.427350427 256.407576992 553.360958644 282.6 462.96 282.6 c 0
 448.186666667 282.6 431.866666667 282.066666667 414 281 c 1
 410 295 408 308.666666667 408 322 c 0
 408 391.465160113 459.132810251 430.756715969 530 432 c 0
 548.666666667 432 563 428.666666667 573 422 c 1
 570.333333333 429.333333333 569 436.333333333 569 443 c 0xb73d40
 569 467.142857143 584.807823129 479.214285714 616.423469388 479.214285714 c 0
 668.234506341 479.214285714 704.025750597 448.79003075 731 390 c 0
 751 344.666666667 761 295.666666667 761 243 c 0
 761 155.187530813 731.288983037 1.79487179487 656.966469428 1.79487179487 c 0
 630.138016405 1.79487179487 608.2 23.4213871444 608.2 50.94 c 0
 608.2 54.18 608.466666667 57.5333333333 609 61 c 1
 563.666666667 20.3333333333 494.333333333 0 401 0 c 0xb71940
 302.333333333 0 230 20.3333333333 184 61 c 1
 184.507936508 57.8253968254 184.761904762 54.7354497355 184.761904762 51.7301587302 c 0
 184.761904762 24.8770650763 160.855467407 1.8 134.73 1.8 c 0
 60.7165510837 1.8 31 153.035849486 31 240 c 0
 31 347.785897003 77.116952129 479.219512195 174.754312909 479.219512195 c 0
 206.251437636 479.219512195 222 467.479674797 222 444 c 0
 222 438.666666667 221 432.666666667 219 426 c 1
 230.076923077 430.153846154 242.272189349 432.230769231 255.585798817 432.230769231 c 0
190 435 m 0
 190 448.206167486 185.942049252 452.15 175.4275 452.15 c 0
 107.201291564 452.15 67.2133245369 348.626517126 63 277 c 0
 62.3333333333 262.333333333 62 248.666666667 62 236 c 0
 62 184 72 132 92 80 c 1
 101.333333333 98 114 107 130 107 c 0
 136.666666667 107 143.666666667 105.666666667 151 103 c 1
 141.16160528 119.86581952 135.9 143.932463683 135.9 173.165 c 0x33b840
 135.9 242.545617293 195.750175275 291.269257735 259 301 c 0
 276.333333333 303.666666667 303.333333333 305 340 305 c 1
 341.333333333 311 342 317.333333333 342 324 c 0
 342 366.404102997 321.888307617 390.333333333 280.975308642 390.333333333 c 0
 263.065843621 390.333333333 251.740740741 383.222222222 247 369 c 0
 235.924335689 336.564125945 224.243767584 322 196 322 c 0
 170.666666667 322 158 334.333333333 158 359 c 0x335840
 158 375 166 390 182 404 c 1
 187.333333333 412.666666667 190 423 190 435 c 0
618.089179548 452.068965517 m 0
 603.137775008 452.068965517 596 444.748614126 596 428 c 0x331c40
 596 418 599 407 605 395 c 1
 615.666666667 384.333333333 621 366 621 340 c 0x331a40
 621 316 611.666666667 297.333333333 593 284 c 1
 632.492537313 256.417910448 652.23880597 217.047003787 652.23880597 165.887280018 c 0
 652.23880597 139.04370817 646.814593742 116.854343736 637 101 c 1
 644.333333333 105.666666667 652.333333333 108 661 108 c 0
 680.333333333 108 694.666666667 100 704 84 c 1
 720.666666667 140.111111111 729 194.370370371 729 246.777777778 c 0
 729 308.652821614 718.483992233 355.25265819 693 398 c 0
 671.758620689 434.045977011 646.788347205 452.068965517 618.089179548 452.068965517 c 0
686 53 m 0
 686 65.6694134264 673.364950743 78 661 78 c 0
 645.468100766 78 634.366666667 65.2989865923 634.366666667 54.5588888889 c 0
 634.366666667 37.7033704632 648.082346725 28 661 28 c 0x731840
 676.42124577 28 686 38.6886395705 686 53 c 0
483.666666667 305.333333333 m 0
 512.379805025 305.333333333 529.495887472 302.564617293 569 295 c 1x371c40
 583.666666667 307.666666667 591 323.333333333 591 342 c 0x371a40
 591 379.71306243 561.433013542 400.64 521.9312 400.64 c 0
 475.382616702 400.64 438 371.192792868 438 327 c 0
 438 319.666666667 439 312 441 304 c 1
 458.777777778 304.888888889 473 305.333333333 483.666666667 305.333333333 c 0
131 78 m 0
 113.188977956 78 96.5403955757 57.5069560845 110 39 c 128
 115.333333333 31.6666666667 122.333333333 28 131 28 c 0x731840
 149.730432673 28 164.561385597 49.2140601645 151.5 67.5 c 128
 146.5 74.5 139.666666667 78 131 78 c 0
EndSplineSet
EndChar
StartChar: si_vocalicUu
Encoding: 45 3472 110
Width: 1175
GlyphClass: 2
Flags: HW
HStem: -2 28<945.32 1026.05> 0 71<256.12 540.85> 2 26<109.813 153.228 638.221 683.512> 78 29<107.911 150.721 637.201 683.063> 212 25<846.658 918.95> 283 23<246.266 341.719 438.659 549.49> 390 42<247.419 328.546> 401 31<468.374 572.064> 408 24<963.505 1032.81> 452 27<135.928 179.928 597.945 657.168>
VStem: 31 31<125.566 348.754> 136 38<130.239 230.918> 158 89<331.837 388.519> 190 32<426.312 451.624> 342 30<305.262 371.647> 408 30<304 370.384> 569 27<406.194 450.747> 591 30<302.254 380.499> 608 26<38.4903 60.8964> 615 37<124.967 235.622> 729 32<117.963 350.88> 783 29<271.029 395.725> 884 27<65.7863 157> 915 27<337.189 389.783> 936 43<249.259 333.089> 1073 70<103.058 343.92>
LayerCount: 2
Back
Fore
SplineSet
1060 220 m 1024
EndSplineSet
Refer: 203 3551 S 1 0 0 1 750 0 2
Refer: 109 3471 N 1 0 0 1 0 0 2
EndChar
StartChar: si_E
Encoding: 46 3473 111
Width: 595
GlyphClass: 2
Flags: HW
HStem: 0 71<155.976 402.533> 289 26<16 124 151.148 260> 359 36<338.279 436.678> 394 38<157.883 235.771>
VStem: 260 35<315 366.104> 283 30<433.315 550.213>
LayerCount: 2
Back
Fore
SplineSet
451 438 m 1xe4
 437.666666667 460.666666667 420 482.666666667 398 504 c 0
 386.666666667 516 365.333333333 534.666666667 334 560 c 1
 320 544 313 518.666666667 313 484 c 0
 313 434.666666667 331.666666667 405.666666667 369 397 c 0
 375.666666667 395.666666667 382.333333333 395 389 395 c 0
 421.666666667 395 442.333333333 409.333333333 451 438 c 1xe4
16 315 m 1
 260 315 l 1
 260.666666667 333.666666667 254.666666667 351.5 242 368.5 c 128
 229.333333333 385.5 214.666666667 394 198 394 c 0
 192.666666667 394 187.666666667 393 183 391 c 0
 167 385 155.166666667 375.166666667 147.5 361.5 c 128
 139.833333333 347.833333333 127.666666667 340 111 338 c 0
 101.666666667 336.666666667 93.6666666667 339.166666667 87 345.5 c 128
 80.3333333333 351.833333333 77 359.666666667 77 369 c 0
 77 405 100.666666667 425.666666667 148 431 c 0
 155.333333333 431.666666667 163.666666667 432 173 432 c 0
 211 432.666666667 240.666666667 419.166666667 262 391.5 c 128
 283.333333333 363.833333333 294.333333333 329.333333333 295 288 c 1xd8
 204 288 l 2
 174.666666667 288 147.166666667 278.166666667 121.5 258.5 c 128
 95.8333333333 238.833333333 83 217 83 193 c 0
 83 111.666666667 152 71 290 71 c 0
 354 71 406 86.6666666667 446 118 c 0
 490.666666667 152.666666667 513 202.333333333 513 267 c 0
 513 323.666666667 498.666666667 371.666666667 470 411 c 1
 455.333333333 378.333333333 427.333333333 361 386 359 c 0
 354.666666667 357.666666667 329.5 369 310.5 393 c 128
 291.5 417 282.333333333 445 283 477 c 0
 283.666666667 529.666666667 297.666666667 569.666666667 325 597 c 1
 351 583.666666667 379 562.666666667 409 534 c 0
 443 501.333333333 471 466 493 428 c 0
 532.333333333 361.333333333 549.333333333 292 544 220 c 0
 539.333333333 156.666666667 514.166666667 104.333333333 468.5 63 c 128
 422.833333333 21.6666666667 366.666666667 0.666666666667 300 0 c 0
 227.333333333 -0.666666666667 169 11 125 35 c 0
 68.3333333333 66.3333333333 42 115.666666667 46 183 c 0
 47.3333333333 206.333333333 55.8333333333 228.166666667 71.5 248.5 c 128
 87.1666666667 268.833333333 104.666666667 282.333333333 124 289 c 1
 16 289 l 1
 16 315 l 1
EndSplineSet
Validated: 33
EndChar
StartChar: si_O
Encoding: 49 3476 114
Width: 636
GlyphClass: 2
Flags: HW
HStem: -0.384615 70.1237<129.121 272.375 341.24 475.124> 223.777 30.192<243.312 353> 291 30<286.649 352.471> 408 26.16<113.907 160.786 287.407 349.592> 555.05 22.9917<205.483 381.528>
VStem: 30.4565 30.5435<165.31 328.438> 172 27.2807<302.041 402.729> 243.158 30.8421<332.979 396.304> 294 22<105.986 167> 363 29<339.375 365> 393.923 28.188<295.073 364.002> 554 36<178.437 376.3>
LayerCount: 2
Back
Fore
SplineSet
318 408 m 0
 294.208418661 408 274 388.816991847 274 365 c 0
 274 340.343698569 294.691322173 321 319 321 c 0
 343.938618202 321 363 339.264176752 363 365 c 0
 363 389.336601506 342.606803459 408 318 408 c 0
198.86440678 351.35564493 m 0
 198.86440678 298.693140696 239.541992297 253.96875 292.327636719 253.96875 c 0
 340.032097703 253.96875 372.033662104 272.995403115 389 311 c 0
 392.282051282 318.384615385 393.923076923 328.041420118 393.923076923 339.970414201 c 0
 393.923076923 347.426035503 393.282051282 355.769230769 392 365 c 1
 393.363045381 324.108638605 359.087760816 291 318 291 c 0
 275.421244787 291 243.157894737 319.032884183 243.157894737 360.476454294 c 0
 243.157894737 403.147849656 278.065281005 434.16 321.2576 434.16 c 0
 380.867817062 434.16 422.111111111 398.81281788 422.111111111 340.592592593 c 0
 422.111111111 272.890241683 366.273699757 223.776785714 297.689174107 223.776785714 c 0
 232.366629464 223.776785714 190.470238095 257.851190476 172 326 c 0
 171.666666667 326.666666667 171.5 330.833333333 171.5 338.5 c 128
 171.5 346.166666667 171.666666667 357.333333333 172 372 c 0
 172 396.608746931 164.277515742 406.157142857 143.966734694 406.157142857 c 0
 119.674625851 406.157142857 99.685714286 388.438095238 84 353 c 0
 68.6666666667 320.333333333 61 287.333333333 61 254 c 0
 61 154.089825772 107.692492251 69.7391304348 205.007561437 69.7391304348 c 0
 257.710766762 69.7391304348 294 96.4016416997 294 141 c 2
 294 167 l 1
 316 167 l 1
 316 140 l 2
 316 95.7477792034 362.203236464 71 410 71 c 0
 505.558649722 71 554 181.873239616 554 286 c 0
 554 354.666666667 534 414.666666667 494 466 c 0
 446.408601008 526.006546555 384.730670694 555.05 303.37 555.05 c 0
 196.20627595 555.05 142.126662026 528.352677156 92 466 c 1
 62 466 l 1
 93.3333333333 509.333333333 129.333333333 539.333333333 170 556 c 0
 204.5 570.694444445 249.714699074 578.041666667 305.644097222 578.041666667 c 0
 397.057451405 578.041666667 466.180875092 545.998878087 520 477 c 0
 566.666666667 416.333333333 590 342 590 254 c 0
 590 190 578.333333333 134.666666667 555 88 c 0
 525 29.3333333333 480.666666667 0 422 0 c 0
 371.235877343 0 318.000119526 19.8996772803 305 55 c 1
 284.692307692 18.0769230769 248.479289941 -0.384615384615 196.360946746 -0.384615384615 c 0
 137.548590032 -0.384615384615 98.8430585428 24.998353426 67 80 c 0
 42.6376811594 122.188405797 30.4565217391 169.672967864 30.4565217391 222.4536862 c 0
 30.4565217391 318.493511715 65.422444131 432 150 432 c 0
 182.853801169 432 199.280701754 410.385657125 199.280701754 367.156971376 c 0
 199.280701754 362.142050652 198.86440678 356.544358046 198.86440678 351.35564493 c 0
EndSplineSet
EndChar
StartChar: si_Oo
Encoding: 50 3477 115
Width: 636
GlyphClass: 2
Flags: HW
HStem: -0 70<129.121 272.375 341.24 475.953> 224 30<241.6 353> 291 30<286.649 352.471> 408 26<113.907 161.405 287.407 349.592> 491 29<166.362 393> 591 32<173.77 381.997>
VStem: 30 31<165.31 328.438> 98 41<526.359 567.662> 170 29<298.964 390.417> 243 31<332.979 396.304> 294 22<105.986 167> 363 29<339.375 365> 394 28<294.843 364.002> 552 37<173.027 355.996>
LayerCount: 2
Back
Fore
SplineSet
531 419 m 1
 500.936745088 524.221392193 412.686489234 591 277 591 c 0
 222 591 182 583 156 566 c 0
 145 559 139 551 139 544 c 0
 139 535 145 530 157 527 c 0
 166 525 169 519 165 510 c 1
 194 517 229 520 268 520 c 0
 342 520 413 509 452 486 c 0
 489 465 516 442 531 419 c 1
144 406 m 0
 92.3544015762 406 61 309.748004079 61 254 c 0
 61 154 108 70 205 70 c 0
 258 70 294 96 294 141 c 2
 294 167 l 1
 316 167 l 1
 316 140 l 2
 316 96 362 71 410 71 c 0
 457 71 493 94 519 141 c 0
 541 179 552 223 552 273 c 0
 552 322 539 359 509 399 c 0
 488 428 466 447 444 458 c 0
 395 482 341 491 273 491 c 0
 233 491 198 488 166 482 c 0
 131 475 90 462 42 442 c 1
 42 474 l 1
 56 479 131 499 126 512 c 1
 118 517 98 530 98 543 c 0
 98 552 103 562 112 573 c 0
 137 603 204 623 274 623 c 0
 457 623 555 518 572 356 c 1
 584 329 589 288 589 250 c 0
 589 188 577 134 553 87 c 0
 523 29 479 0 422 0 c 0
 371 0 318 20 305 55 c 1
 285 18 248 0 196 -0 c 0
 137 0 99 25 67 80 c 0
 43 122 30 169 30 222 c 0
 30 318 65 432 150 432 c 0
 183 432 199 410 199 367 c 2
 199 351 l 2
 199 298 239 254 292 254 c 0
 340 254 372 273 389 311 c 0
 392 318 394 328 394 340 c 0
 394 347 393 356 392 365 c 1
 393 324 359 291 318 291 c 0
 275 291 243 319 243 360 c 0
 243 403 278 434 321 434 c 0
 381 434 422 399 422 341 c 0
 422 271 367 224 296 224 c 0
 228 224 170 277 170 344 c 0
 170 371 170 386 171 390 c 0
 168 402 158 406 144 406 c 0
318 408 m 0
 294 408 274 389 274 365 c 0
 274 340 295 321 319 321 c 0
 344 321 363 339 363 365 c 0
 363 389 343 408 318 408 c 0
EndSplineSet
EndChar
StartChar: si_Ou
Encoding: 59 3478 117
Width: 999
GlyphClass: 2
Flags: W
HStem: -0.384615 70.1237<129.121 272.375 341.24 475.124> 3 27.9655<765.32 846.055> 216.933 25.0667<666.658 738.95> 223.777 30.192<243.312 353> 291 30<286.649 352.471> 408 26.16<113.907 160.786 287.407 349.592> 413 24<783.505 852.814> 555.05 22.9917<205.483 381.528>
VStem: 30.4565 30.5435<165.31 328.438> 172 27.2807<302.041 402.729> 243.158 30.8421<332.979 396.304> 294 22<105.986 167> 363 29<339.375 365> 393.923 28.188<295.073 364.002> 554 36<178.437 376.3> 603 29<276.029 400.725> 704 27<70.7863 162> 735.342 27.484<342.189 394.783> 756 43<254.259 338.089> 893.178 69.8545<108.058 348.92>
LayerCount: 2
Back
Fore
SplineSet
675 433 m 1
 632 406 632 406 632 327 c 0
 632 292 632 292 653 267 c 0
 674 242 674 242 708 242 c 0
 729 242 729 242 742.5 257.5 c 0
 756 273 756 273 756 295 c 0
 756 321 756 321 736 342 c 0
 735.342105263 348.052631579 735.342105263 348.052631579 735.342105263 353.828254848 c 0
 735.342105263 391.947368421 735.342105263 391.947368421 764 418 c 0
 785 437 785 437 840 437 c 0
 900 437 900 437 934 367 c 0
 963.032258065 307.967741935 963.032258065 307.967741935 963.032258065 230.204994797 c 0
 963.032258065 227.612903226 963.032258065 227.612903226 963 225 c 0
 962 137 962 137 925 75 c 0
 883 3 883 3 809 3 c 0
 762 3 762 3 733 38 c 0
 704 73 704 73 704 125 c 0
 704 143 704 143 708 162 c 1
 734 162 l 1
 731 146 731 146 731 130 c 0
 731 86 731 86 752.5 58 c 0
 773.25862069 30.9655172414 773.25862069 30.9655172414 808.466706302 30.9655172414 c 0
 809.724137931 30.9655172414 809.724137931 30.9655172414 811 31 c 0
 893.177777778 33.8666666667 893.177777778 33.8666666667 893.177777778 224.829135802 c 0
 893.177777778 233.711111111 893.177777778 233.711111111 893 243 c 0
 890 411 890 411 825 413 c 0
 823.266666667 413.066666667 823.266666667 413.066666667 821.573333333 413.066666667 c 0
 797.866666667 413.066666667 797.866666667 413.066666667 782 400 c 0
 762.826086957 384.47826087 762.826086957 384.47826087 762.826086957 353.950850662 c 0
 762.826086957 351.043478261 762.826086957 351.043478261 763 348 c 0
 799 329 799 329 799 293 c 0
 799 282 799 282 795 271 c 0
 787 244 787 244 760 230 c 0
 734.8 216.933333333 734.8 216.933333333 706.115555556 216.933333333 c 0
 704.066666667 216.933333333 704.066666667 216.933333333 702 217 c 0
 658 218 658 218 630.5 249.5 c 0
 603 281 603 281 603 326 c 0
 603 399 603 399 640 433 c 1
 675 433 l 1
EndSplineSet
Refer: 115 3476 S 1 0 0 1 0 0 2
Validated: 1
EndChar
StartChar: si_Ka
Encoding: 60 3482 118
Width: 746
GlyphClass: 2
Flags: W
HStem: -1 71.6364<143.678 253.571 330.972 448.709> -0.892857 27.8929<505.497 591.973> 73 27<70.3346 109.333> 285 28<220.484 386.549> 368 64.973<341.364 517.888> 391.658 41.3421<124.902 189.664>
VStem: 21 26<19.0385 53.2001> 27 96<306.376 390.495> 194 31.7353<343 385.313> 279.062 29.8542<103.561 163> 475.367 39.4947<100.509 211.532> 648.711 52.5084<90.0171 241.59>
LayerCount: 2
Back
Fore
SplineSet
179 267 m 1,0,1
 153 245 153 245 129 211 c 0,2,3
 86 150 86 150 70 95 c 1,4,5
 79 100 79 100 89 100 c 0,6,7
 97 100 97 100 126 88 c 0,8,9
 166.714285714 70.8095238095 166.714285714 70.8095238095 195.149659864 70.8095238095 c 0,10,11
 198.142857143 70.8095238095 198.142857143 70.8095238095 201 71 c 0,12,13
 241 74 241 74 265 103 c 0,14,15
 279.0625 120.8125 279.0625 120.8125 279.0625 157.9609375 c 0,16,17
 279.0625 160.4375 279.0625 160.4375 279 163 c 2,18,-1
 309 163 l 2,19,20
 308.916666667 159.916666667 308.916666667 159.916666667 308.916666667 156.958333333 c 0,21,22
 308.916666667 124.416666667 308.916666667 124.416666667 319 107 c 0,23,24
 340.818181818 70.6363636364 340.818181818 70.6363636364 392.388429752 70.6363636364 c 0,25,26
 397.545454545 70.6363636364 397.545454545 70.6363636364 403 71 c 0,27,28
 435 73 435 73 456.5 101.5 c 0,29,30
 475.367346939 126.510204082 475.367346939 126.510204082 475.367346939 155.755935027 c 0,31,32
 475.367346939 159.836734694 475.367346939 159.836734694 475 164 c 0,33,34
 466 260 466 260 346 282 c 0,35,36
 328 285 328 285 301 285 c 0,37,38
 216 285 216 285 179 267 c 1,0,1
101 303 m 0,39,40
 91 294 91 294 72 294 c 0,41,42
 47 294 47 294 37 306 c 128,-1,43
 27 318 27 318 27 336 c 0,44,45
 27 363 27 363 48 390.5 c 128,-1,46
 69 418 69 418 100 428 c 0,47,48
 117 433 117 433 136 433 c 0,49,50
 177 433 177 433 201 412 c 0,51,52
 225.735294118 388.970588235 225.735294118 388.970588235 225.735294118 355.028546713 c 0,53,54
 225.735294118 349.176470588 225.735294118 349.176470588 225 343 c 1,55,56
 257 379 257 379 329 407 c 0,57,58
 396.027027027 432.972972973 396.027027027 432.972972973 457.438276114 432.972972973 c 0,59,60
 469.324324324 432.972972973 469.324324324 432.972972973 481 432 c 0,61,62
 572 424 572 424 634 362 c 0,63,64
 697 297 697 297 701 202 c 0,65,66
 701.219512195 196.219512195 701.219512195 196.219512195 701.219512195 190.556811422 c 0,67,68
 701.219512195 118.829268293 701.219512195 118.829268293 666 66 c 0,69,70
 630 13 630 13 576 2 c 0,71,72
 562.178571429 -0.892857142857 562.178571429 -0.892857142857 549.803571429 -0.892857142857 c 0,73,74
 523.678571429 -0.892857142857 523.678571429 -0.892857142857 504 12 c 1,75,-1
 506 38 l 1,76,77
 518 31 518 31 539 28 c 0,78,79
 546.333333333 27 546.333333333 27 552.666666667 27 c 0,80,81
 565.333333333 27 565.333333333 27 574 31 c 0,82,83
 648.711111111 62.8888888889 648.711111111 62.8888888889 648.711111111 148.735802469 c 0,84,85
 648.711111111 157.111111111 648.711111111 157.111111111 648 166 c 0,86,87
 642 236 642 236 594 290 c 0,88,89
 550 340 550 340 493 355 c 0,90,91
 446 368 446 368 400 368 c 0,92,93
 290 368 290 368 219 303 c 1,94,95
 264 313 264 313 306 313 c 0,96,97
 394 313 394 313 450 268.5 c 128,-1,98
 506 224 506 224 514 143 c 0,99,100
 514.862068966 134.034482759 514.862068966 134.034482759 514.862068966 125.42568371 c 0,101,102
 514.862068966 84.1034482759 514.862068966 84.1034482759 495 51 c 0,103,104
 471 11 471 11 424 2 c 0,105,106
 410 -1 410 -1 397 -1 c 0,107,108
 328 -1 328 -1 296 63 c 1,109,110
 270 1 270 1 207 -1 c 0,111,112
 205.925 -1.025 205.925 -1.025 204.851875 -1.025 c 0,113,114
 163 -1.025 163 -1.025 124 37 c 0,115,116
 122 39 122 39 110 59 c 0,117,118
 101 73 101 73 90 73 c 0,119,120
 72 73 72 73 59 52.5 c 128,-1,121
 46 32 46 32 47 11 c 1,122,-1
 21 22 l 1,123,124
 26 67 26 67 51.5 127.5 c 128,-1,125
 77 188 77 188 109 232 c 0,126,127
 148 286 148 286 193 326 c 1,128,129
 194 336 194 336 194 345 c 0,130,131
 194 387 194 387 163 391 c 0,132,133
 158.394736842 391.657894737 158.394736842 391.657894737 154.308864266 391.657894737 c 0,134,135
 127.342105263 391.657894737 127.342105263 391.657894737 123 363 c 0,136,137
 115 316 115 316 101 303 c 0,39,40
EndSplineSet
Validated: 33
EndChar
StartChar: si_Kha
Encoding: 53 3483 119
Width: 630
GlyphClass: 2
Flags: HW
HStem: -1 30<103.341 164.624> -0 68<391.264 480> 115 30<99.9225 163.61> 320 76<143.989 331.722> 576 25<209.881 375.681>
VStem: 33 30<105.477 228.268> 177 33<39.6509 105.961> 368 44<173.379 286.585> 548 36<191.817 408.072>
LayerCount: 2
Back
Fore
SplineSet
132 115 m 0
 107 115 90 96 90 74 c 0x3f80
 90 50 112 29 136 29 c 0
 158 29 177 49 177 71 c 0
 177 97 159 115 132 115 c 0
235 320 m 0
 134 320 63 257 63 156 c 0
 63 139 65 122 70 105 c 1
 81 132 102 145 135 145 c 0
 181 145 210 121 210 72 c 0
 210 34 177 -1 141 -1 c 0
 67 -1 33 93 33 180 c 0
 33 256 52 305 100 346 c 128
 139 379 188 396 247 396 c 0
 335 396 412 343 412 258 c 0
 412 205 390 157 346 115 c 1
 349 116 352 116 355 116 c 0
 360 116 367 111 378 101 c 0
 381 97 390 89 407 77 c 0
 418 70 429 68 439 68 c 0
 479 68 510 111 533 200 c 0
 543 238 548 276 548 312 c 0
 548 462 442 576 294 576 c 0
 204 576 139 541 98 470 c 1
 64 470 l 1
 110 555 187 601 298 601 c 0
 368 601 429 578 482 533 c 0
 551 474 584 401 584 290 c 0
 584 163 527 0 412 -0 c 0x7f80
 374 0 363 14 343 40 c 0
 335 51 327 56 319 55 c 128
 311 54 285 32 240 -13 c 1
 204 -10 l 1
 217 3 245 35 288 84 c 0
 343 149 368 191 368 228 c 0
 368 289 323 320 235 320 c 0
EndSplineSet
EndChar
StartChar: si_Ga
Encoding: 62 3484 120
Width: 636
GlyphClass: 2
Flags: W
HStem: -1.50505 69.3482<131.217 286.588> -1 27<338 435.246> 217 24<250.234 297.2> 372 59.7111<328.989 468.288> 409 23<172.037 251>
VStem: 34 31.122<152.981 301.643> 216 25<192 212.503> 319 32.9703<104.083 199.172> 544 42.5625<119.453 289.125>
LayerCount: 2
Back
Fore
SplineSet
229 409 m 4,0,1
 166 409 166 409 118.5 362 c 132,-1,2
 71 315 71 315 66 249 c 4,3,4
 65.1219512195 238.609756098 65.1219512195 238.609756098 65.1219512195 228.647828673 c 4,5,6
 65.1219512195 170.536585366 65.1219512195 170.536585366 95 127 c 4,7,8
 133 70 133 70 202 68 c 4,9,10
 206.235294118 67.8431372549 206.235294118 67.8431372549 210.332179931 67.8431372549 c 4,11,12
 258.470588235 67.8431372549 258.470588235 67.8431372549 287.5 89.5 c 4,13,14
 319 113 319 113 319 153 c 4,15,16
 319 178 319 178 304.5 197.5 c 132,-1,17
 290 217 290 217 267 217 c 4,18,19
 256 217 256 217 245 213 c 5,20,21
 241 197 241 197 241 192 c 5,22,-1
 216 192 l 5,23,24
 224 290 224 290 273 357 c 4,25,26
 325.844444444 431.711111111 325.844444444 431.711111111 409.40345679 431.711111111 c 4,27,28
 417.555555556 431.711111111 417.555555556 431.711111111 426 431 c 4,29,30
 497 425 497 425 541 366 c 4,31,32
 581 312 581 312 586 234 c 4,33,34
 586.5625 225 586.5625 225 586.5625 216.24609375 c 4,35,36
 586.5625 131.625 586.5625 131.625 534 70 c 4,37,38
 472 -1 472 -1 369 -1 c 4,39,40
 354 -1 354 -1 338 1 c 5,41,-1
 338 27 l 5,42,43
 350 26 350 26 362 26 c 4,44,45
 440 26 440 26 492 75.5 c 132,-1,46
 544 125 544 125 544 203 c 4,47,48
 544 270 544 270 501 321 c 132,-1,49
 458 372 458 372 393 372 c 4,50,51
 338 372 338 372 298 333 c 132,-1,52
 258 294 258 294 250 239 c 5,53,54
 260 241 260 241 270 241 c 4,55,56
 342 241 342 241 351 155 c 4,57,58
 351.97029703 145.01980198 351.97029703 145.01980198 351.97029703 135.567983531 c 4,59,60
 351.97029703 76.8316831683 351.97029703 76.8316831683 314.5 38.5 c 4,61,62
 275.393939394 -1.50505050505 275.393939394 -1.50505050505 209.213753699 -1.50505050505 c 4,63,64
 201.777777778 -1.50505050505 201.777777778 -1.50505050505 194 -1 c 4,65,66
 120 4 120 4 76 65 c 4,67,68
 34 123 34 123 34 204 c 4,69,70
 34 311 34 311 92 371.5 c 132,-1,71
 150 432 150 432 223 432 c 4,72,73
 237 432 237 432 251 430 c 5,74,-1
 251 407 l 5,75,76
 240 409 240 409 229 409 c 4,0,1
EndSplineSet
Validated: 1
EndChar
StartChar: si_Gha
Encoding: 63 3485 121
Width: 677
GlyphClass: 2
Flags: W
HStem: -1 72<139.672 246.697 417.477 543.857> 171 29.093<292.986 369.392> 285 23<5 144 167.641 282 382 443.785> 290.316 26.6842<382.39 525.077> 385.013 47.8964<176.351 262.053> 392 40.3247<408.627 526.752>
VStem: 51 38<120.59 228.382> 242 29<71.4407 147.814> 392 28.2258<76.2903 148.092> 540 39<306.411 377.376> 593.026 35.9737<120.999 236.179>
LayerCount: 2
Back
Fore
SplineSet
382 310 m 1,0,1
 406 317 406 317 445 317 c 0,2,3
 496 317 496 317 525 306 c 1,4,5
 540 322 540 322 540 341 c 128,-1,6
 540 360 540 360 525 374 c 128,-1,7
 510 388 510 388 488 391 c 0,8,9
 478 392 478 392 469 392 c 0,10,11
 389 392 389 392 382 310 c 1,0,1
550 297 m 1,12,13
 621 262 621 262 627 178 c 0,14,15
 629 167 629 167 629 155 c 0,16,17
 629 92 629 92 581 46 c 128,-1,18
 533 0 533 0 464 0 c 0,19,20
 428 0 428 0 382 12 c 1,21,22
 378 20 378 20 378 30 c 0,23,24
 378 39 378 39 385 63 c 128,-1,25
 392 87 392 87 392 103 c 0,26,27
 392 115 392 115 389 126 c 0,28,29
 384 145 384 145 368.5 158 c 128,-1,30
 353 171 353 171 334 171 c 0,31,32
 304 171 304 171 287.5 151 c 128,-1,33
 271 131 271 131 271 101 c 0,34,35
 271 88 271 88 276 66 c 128,-1,36
 281 44 281 44 281 33 c 128,-1,37
 281 22 281 22 277 11 c 1,38,39
 227 -1 227 -1 199 -1 c 0,40,41
 135 -1 135 -1 92 47 c 0,42,43
 51 92 51 92 51 154 c 0,44,45
 51 167 51 167 53 179 c 0,46,47
 66 261 66 261 144 285 c 1,48,-1
 5 285 l 1,49,-1
 5 308 l 1,50,-1
 282 308 l 1,51,52
 276.075949367 385.012658228 276.075949367 385.012658228 210.686428457 385.012658228 c 0,53,54
 209.848101266 385.012658228 209.848101266 385.012658228 209 385 c 0,55,56
 185 385 185 385 170.5 353.5 c 0,57,58
 156.446153846 322.969230769 156.446153846 322.969230769 125.013254438 322.969230769 c 0,59,60
 124.015384615 322.969230769 124.015384615 322.969230769 123 323 c 0,61,62
 88.8823529412 324.066176471 88.8823529412 324.066176471 88.8823529412 361.960207612 c 0,63,64
 88.8823529412 393.323529412 88.8823529412 393.323529412 119 414.5 c 0,65,66
 145.181818182 432.909090909 145.181818182 432.909090909 183.41322314 432.909090909 c 0,67,68
 191.909090909 432.909090909 191.909090909 432.909090909 201 432 c 0,69,70
 312.292682927 420.585365854 312.292682927 420.585365854 312.292682927 295.163593099 c 0,71,72
 312.292682927 288.731707317 312.292682927 288.731707317 312 282 c 1,73,74
 269.142857143 284.285714286 269.142857143 284.285714286 242.285714286 284.285714286 c 0,75,76
 222.142857143 284.285714286 222.142857143 284.285714286 211 283 c 0,77,78
 161 278 161 278 127 252 c 0,79,80
 89 222 89 222 89 175 c 0,81,82
 89 132 89 132 127 101.5 c 128,-1,83
 165 71 165 71 212 71 c 0,84,85
 242 71 242 71 247 76 c 1,86,87
 242 95 242 95 242 111 c 0,88,89
 242 140 242 140 257 161 c 0,90,91
 284.651162791 200.093023256 284.651162791 200.093023256 330.485127096 200.093023256 c 0,92,93
 332.720930233 200.093023256 332.720930233 200.093023256 335 200 c 0,94,95
 382 198 382 198 406 160 c 0,96,97
 420.225806452 136.290322581 420.225806452 136.290322581 420.225806452 107.532778356 c 0,98,99
 420.225806452 93.8387096774 420.225806452 93.8387096774 417 79 c 1,100,101
 424 71 424 71 471 71 c 0,102,103
 520 71 520 71 557 102 c 0,104,105
 593.026315789 132.184210526 593.026315789 132.184210526 593.026315789 175.641274238 c 0,106,107
 593.026315789 224.052631579 593.026315789 224.052631579 559.5 255 c 0,108,109
 527 285 527 285 481 289 c 0,110,111
 464.947368421 290.315789474 464.947368421 290.315789474 448.479224377 290.315789474 c 0,112,113
 402.368421053 290.315789474 402.368421053 290.315789474 353 280 c 1,114,115
 352.689655172 286.206896552 352.689655172 286.206896552 352.689655172 292.210463734 c 0,116,117
 352.689655172 344.24137931 352.689655172 344.24137931 376 381 c 0,118,119
 407 428 407 428 470 432 c 0,120,121
 475.584415584 432.324675325 475.584415584 432.324675325 480.894754596 432.324675325 c 0,122,123
 557.363636364 432.324675325 557.363636364 432.324675325 577 365 c 0,124,125
 579 357 579 357 579 349 c 0,126,127
 579 331 579 331 570 315.5 c 128,-1,128
 561 300 561 300 550 297 c 1,12,13
EndSplineSet
Validated: 1
EndChar
StartChar: si_Nnga
Encoding: 57 3487 126
Width: 749
GlyphClass: 2
Flags: HW
HStem: -1.50505 69.3482<247.217 403.074> -1 27<454 551.246> 217 24<366.234 414.594> 372 59.7111<445.658 584.636> 405 28.7647<151 243.656 272.695 367>
VStem: 27 30<122.322 309.491> 150 32.1<151.04 302.481> 333 24<192 212.503> 436 31.9703<105.356 197.686> 660 43.3968<120.29 289.125>
LayerCount: 2
Back
Fore
SplineSet
150 204 m 0
 150 298.237395803 186.659536518 363.524378717 244 404 c 1x77c0
 236.666666667 404.666666667 229.666666667 405 223 405 c 0x6fc0
 169.666666667 405 127 386.333333333 95 349 c 0
 69.6666666667 319.666666667 57 276 57 218 c 0
 57 137.333333333 83 74.3333333333 135 29 c 1
 135 0 l 1
 68.4610587746 33.2694706127 27 119.37128713 27 221 c 0
 27 339.032237397 87.7520230478 413.794289513 180 429 c 0
 198.705882353 432.176470588 224.979238754 433.764705882 258.820069204 433.764705882 c 0
 288.900807382 433.764705882 324.960784314 432.509803921 367 430 c 1
 367 407 l 1
 359.666666667 408.333333333 352.333333333 409 345 409 c 0
 250.871611707 409 182.1 324.006388905 182.1 228.15 c 0
 182.1 136.52174566 238.828490151 67.8431372549 326.335255671 67.8431372549 c 0
 386.312747729 67.8431372549 436 96.827931468 436 153 c 0
 436 185.381687821 415.344934306 217 383 217 c 0
 375.666666667 217 368.333333333 215.666666667 361 213 c 1
 358.333333333 202.333333333 357 195.333333333 357 192 c 1
 333 192 l 1
 342.72409972 311.120221577 407.938061014 431.711111111 526.395555556 431.711111111 c 0
 637.912826449 431.711111111 703.396825397 334.267182121 703.396825397 218.938271605 c 0
 703.396825397 161.38154027 685.597883598 111.735449735 650 70 c 0
 608.666666667 22.6666666667 553.666666667 -1 485 -1 c 0
 475 -1 464.666666667 -0.333333333333 454 1 c 1
 454 27 l 1
 462 26.3333333333 470 26 478 26 c 0
 581.322639353 26 660 98.5228804344 660 202 c 0
 660 291.255699888 596.018333853 372 509 372 c 0
 433.256075892 372 375.885604961 306.963534113 366 239 c 1
 372.666666667 240.333333333 379.333333333 241 386 241 c 0
 439.444500543 241 467.97029703 202.744844521 467.97029703 135.567983531 c 0
 467.97029703 53.285318709 408.56462493 -1.50505050505 325.213753699 -1.50505050505 c 0
 265.421807611 -1.50505050505 224.009952718 20.6225655489 192 65 c 0
 164 103.666666667 150 150 150 204 c 0
EndSplineSet
EndChar
StartChar: si_Ca
Encoding: 58 3488 127
Width: 623
GlyphClass: 2
Flags: HW
HStem: 0 71<165.194 417.502> 276 26<18 148 185.258 285> 390 43<178.385 255.136> 553 24.0426<218.375 381.128>
VStem: 64.7736 39.6458<125.989 227.832> 78 84<316.192 380.938> 542 33<208.691 384.11>
LayerCount: 2
Back
Fore
SplineSet
252 276 m 2xf6
 222 276 189.666666667 267.333333333 155 250 c 0
 121.279569893 233.139784946 104.419354839 210.56885189 104.419354839 182.287200832 c 0
 104.419354839 179.257023933 104.612903226 176.161290323 105 173 c 0
 109.666666667 132.333333333 132.666666667 104.333333333 174 89 c 0
 204 77 249.333333333 71 310 71 c 0
 384 71 442 94.3333333333 484 141 c 0
 522.666666667 183 542 236 542 300 c 0
 542 368.666666667 520.333333333 427.333333333 477 476 c 0
 431.666666667 527.333333333 374.666666667 553 306 553 c 0
 262.666666667 553 226.333333333 546.833333333 197 534.5 c 128
 167.666666667 522.166666667 140.666666667 500.666666667 116 470 c 1
 85 470 l 1
 135 540 206.333333333 575.666666667 299 577 c 0
 300.744680851 577.028368794 302.482722197 577.042553191 304.214124038 577.042553191 c 0
 383.858608722 577.042553191 449.453900709 547.028368794 501 487 c 0
 550.333333333 429 575 358.333333333 575 275 c 0
 575 198.333333333 552.666666667 134.333333333 508 83 c 0
 460 27.6666666667 396 0 316 0 c 0
 272.666666667 0 238 2 212 6 c 0
 113.849056604 22.0377358491 64.7735849057 73.5703097187 64.7735849057 160.597721609 c 0
 64.7735849057 164.010561291 64.8490566038 167.477987421 65 171 c 0
 67 219 94.6666666667 253.333333333 148 274 c 1
 77.3333333333 274 34 272.666666667 18 270 c 1
 18 302 l 1
 285 302 l 1
 283 332.666666667 272 357.333333333 252 376 c 0
 242 385.333333333 229.666666667 390 215 390 c 0
 204.333333333 390 194.333333333 387.333333333 185 382 c 0
 173.666666667 375.333333333 166 363.666666667 162 347 c 128
 158 330.333333333 151 320 141 316 c 0
 133.666666667 313.333333333 126.333333333 312 119 312 c 0
 91.6666666667 312 78 324.333333333 78 349 c 0
 78 375.666666667 90 397 114 413 c 0
 134 426.333333333 158.333333333 433 187 433 c 0
 197.666666667 433 208.333333333 432 219 430 c 0
 283.026666667 418.893333333 315.04 369.370666667 315.04 281.432 c 0
 315.04 279.637333333 315.026666667 277.826666667 315 276 c 2
 252 276 l 2xf6
EndSplineSet
EndChar
StartChar: si_Cha
Encoding: 67 3489 125
Width: 598
GlyphClass: 2
Flags: W
HStem: 0 71<151.906 434.925> 159 28<379.973 450.777> 287.267 22.3048<138.057 238.726 313.024 329> 394.29 37.7097<147.443 222.576> 407.857 25.1429<399.215 466.604>
VStem: 32.7955 34.1733<135.327 234.974> 56 88<331.812 390.656> 238.955 27.0448<309.188 375.164> 286 27<307.266 375.88> 326.421 30.5789<208.735 286.654 309 357.884> 503 28<280.457 374.443> 517.077 32.1538<132.816 232.307>
LayerCount: 2
Back
Fore
SplineSet
358 287 m 1,0,1
 357 277 357 277 357 267 c 0,2,3
 357 201 357 201 402 189 c 0,4,5
 409 187 409 187 416 187 c 0,6,7
 458 187 458 187 484 254 c 1,8,9
 468 272 468 272 429 280 c 0,10,11
 408 284 408 284 358 287 c 1,0,1
388 405 m 1,12,13
 363 365 363 365 359 309 c 1,14,15
 413 309 413 309 440 303 c 0,16,17
 476 295 476 295 497 280 c 1,18,19
 503 309 503 309 503 325 c 0,20,21
 503 367 503 367 475 390 c 0,22,23
 452.142857143 407.857142857 452.142857143 407.857142857 417.551020408 407.857142857 c 0,24,25
 403.714285714 407.857142857 403.714285714 407.857142857 388 405 c 1,12,13
359 407 m 1,26,27
 313 381 313 381 313 323 c 0,28,29
 313 315 313 315 314 307 c 0,30,31
 318 307 318 307 323.5 308 c 128,-1,32
 329 309 329 309 331 309 c 0,33,34
 334 324 334 324 341 355 c 128,-1,35
 348 386 348 386 359 407 c 1,26,27
262 284 m 1,36,37
 239.6 287.266666667 239.6 287.266666667 216.546666667 287.266666667 c 0,38,39
 190.2 287.266666667 190.2 287.266666667 163 283 c 0,40,41
 125 277 125 277 97 251 c 0,42,43
 66.96875 221.9375 66.96875 221.9375 66.96875 183.490234375 c 0,44,45
 66.96875 123.383413462 66.96875 123.383413462 146 94 c 0,46,47
 208 71 208 71 298 71 c 0,48,49
 517.076923077 71 517.076923077 71 517.076923077 185.284023669 c 0,50,51
 517.076923077 210.846153846 517.076923077 210.846153846 506 233 c 1,52,53
 486 187 486 187 457 170 c 0,54,55
 438 159 438 159 411 159 c 0,56,57
 395 159 395 159 381 164 c 0,58,59
 348 176 348 176 334 219 c 0,60,61
 326.421052632 241.105263158 326.421052632 241.105263158 326.421052632 262.412742382 c 0,62,63
 326.421052632 274.842105263 326.421052632 274.842105263 329 287 c 1,64,-1
 292 284 l 1,65,66
 286 302 286 302 286 322 c 0,67,68
 286 362 286 362 308.5 393.5 c 128,-1,69
 331 425 331 425 368 431 c 1,70,71
 389 481 389 481 440 539 c 0,72,73
 511 619 511 619 544 619 c 0,74,75
 568 619 568 619 568 597 c 0,76,77
 568 586 568 586 558 580 c 0,78,79
 528 563 528 563 471 523 c 1,80,81
 414 473 414 473 399 432 c 1,82,83
 411 433 411 433 431 433 c 0,84,85
 500 432 500 432 526 364 c 0,86,87
 531 351 531 351 531 331 c 0,88,89
 531 286 531 286 516 262 c 1,90,91
 549.230769231 218.615384615 549.230769231 218.615384615 549.230769231 165.00591716 c 0,92,93
 549.230769231 160.538461538 549.230769231 160.538461538 549 156 c 0,94,95
 544 79 544 79 470 38 c 0,96,97
 403 0 403 0 298 0 c 0,98,99
 183 0 183 0 115 38 c 0,100,101
 37 82 37 82 33 168 c 0,102,103
 32.7954545455 171.818181818 32.7954545455 171.818181818 32.7954545455 175.557334711 c 0,104,105
 32.7954545455 226.659090909 32.7954545455 226.659090909 71 263 c 0,106,107
 109 299 109 299 166 306 c 0,108,109
 191.714285714 309.571428571 191.714285714 309.571428571 217.428571429 309.571428571 c 2,110,-1
 238 309 l 1,111,112
 238.955223881 318.552238806 238.955223881 318.552238806 238.955223881 327.035197149 c 0,113,114
 238.955223881 389.597014925 238.955223881 389.597014925 187 394 c 0,115,116
 183.806451613 394.290322581 183.806451613 394.290322581 180.82830385 394.290322581 c 0,117,118
 153.032258065 394.290322581 153.032258065 394.290322581 144 369 c 0,119,120
 130 328 130 328 106 323 c 0,121,122
 99 322 99 322 93 322 c 0,123,124
 56 322 56 322 56 360 c 0,125,126
 56 370 56 370 60 378 c 0,127,128
 87 432 87 432 152 432 c 0,129,130
 204 432 204 432 235 403.5 c 128,-1,131
 266 375 266 375 266 323 c 0,132,133
 266 305 266 305 262 284 c 1,36,37
EndSplineSet
Validated: 1
EndChar
StartChar: si_Ja
Encoding: 60 3490 130
Width: 598
GlyphClass: 2
Flags: HW
HStem: 0 71<153.07 435.492> 290 21<147.492 236.344 326.346 385 404.474 437.222> 393 39<145.312 223.782> 406 27<406.211 472.058>
VStem: 33 37<134.442 236.975> 56 87<332.725 389.167> 237 29<311.179 378.116> 293 30<309.328 379.284> 359 29<323.357 392.268> 489 31<321.59 390.44> 514 35<131.402 234.295>
LayerCount: 2
Back
Fore
SplineSet
437 406 m 0
 411 406 388 385 388 359 c 0xd3c0
 388 330 412 308 440 308 c 0
 466 308 489 329 489 355 c 128
 489 383 466 406 437 406 c 0
385 309 m 1
 369 318 359 337 359 363 c 0
 359 376 362 390 368 406 c 1
 338 389 323 365 323 334 c 0
 323 327 324 318 326 309 c 1
 333 310 344 310 359 311 c 0
 366 311 374 310 385 309 c 1
154 432 m 0
 221 432 266 393 266 326 c 0
 266 314 265 301 262 288 c 1
 251 289 240 290 229 290 c 0
 172 290 125 278 96 248 c 0
 79 229 70 209 70 186 c 0
 70 98 194 71 298 71 c 0
 441 71 514 108 514 188 c 0
 514 264 434 290 355 290 c 0
 336 290 318 288 300 285 c 1
 295 301 293 316 293 331 c 0
 293 384 321 418 378 433 c 1
 391 468 411 504 440 539 c 0
 483 592 518 619 544 619 c 0
 560 619 568 612 568 597 c 0
 568 590 565 584 558 580 c 0
 538 569 507.730208463 550.584166771 472 522 c 0
 437.730208463 494.584166771 417 464 406 433 c 1
 433 433 l 2
 479 433 520 401 520 357 c 0
 520 325 505 302 474 289 c 1
 516 272 549 223 549 164 c 0
 549 47 426 0 298 0 c 0
 160 0 33 46 33 171 c 0
 33 261 114 312 208 312 c 0
 217 312 225 312 235 311 c 1
 236 318 237 324 237 331 c 0
 237 373 219 393 182 393 c 0
 161 393 149 385 143 369 c 0
 132 338 119 322 92 322 c 0
 68 322 56 335 56 360 c 0xd780
 56 366 57 372 60 378 c 0
 75 414 107 432 154 432 c 0
EndSplineSet
EndChar
StartChar: si_Jha
Encoding: 61 3491 132
Width: 1079
GlyphClass: 2
Flags: HW
HStem: -0.0434783 71.0435<142.438 254.59 330.526 448.055 567.203 705.272 791.629 927.348> 73 27<70.3346 109.333> 285 28<220.484 387.165> 391.658 41.3421<124.902 189.664> 404 30<377.051 599.774> 557 23<657.085 815.955>
VStem: 21 26<19.0385 53.2001> 27 96<306.376 390.495> 194 31.7353<343 385.313> 279.062 29.8542<103.561 163> 475.367 36.6327<139.062 219.033> 733 31<102.867 196> 1001.2 31.6608<186.476 371.477>
LayerCount: 2
Back
Fore
SplineSet
601 389 m 1
 581.768660921 396.211752155 522.13404104 404 492 404 c 0
 384 404 293 370.333333333 219 303 c 1
 249 309.666666667 277.666666667 313 305 313 c 0
 382.333333333 313 441.333333333 287.333333333 482 236 c 1xecf8
 490.186815775 311.318705141 539.970434237 364.033359461 601 389 c 1
630.615311909 -0.0434782608696 m 0
 573.513886509 -0.0434782608696 526.185355992 37.9463642694 508 80 c 1
 492 26 455 -1 397 -1 c 0
 351 -1 317.333333333 20.3333333333 296 63 c 1
 278.622007229 21.560171084 248.29682738 -1.025 204.851875 -1.025 c 0
 176.950625 -1.025 150 11.65 124 37 c 0
 122.666666667 38.3333333333 118 45.6666666667 110 59 c 0
 104 68.3333333333 97.3333333333 73 90 73 c 0
 64.9789241555 73 45.7725237613 36.7770010107 47 11 c 1
 21 22 l 1xeef8
 28.6966338401 91.2697045617 74.2942734934 184.279626054 109 232 c 0
 135 268 163 299.333333333 193 326 c 1
 193.666666667 332.666666667 194 339 194 345 c 0
 194 376.477524564 181.537402643 391.657894737 154.308864266 391.657894737 c 0
 136.331024931 391.657894737 125.894736842 382.105263158 123 363 c 0
 117.666666667 331.666666667 110.333333333 311.666666667 101 303 c 0
 94.3333333333 297 84.6666666667 294 72 294 c 0
 42.0634658092 294 27 308.47596037 27 336 c 0xedf8
 27 378.067172856 65.7453809227 416.950122878 100 428 c 0
 111.333333333 431.333333333 123.333333333 433 136 433 c 0
 187.592996345 433 225.735294118 403.493598427 225.735294118 355.028546713 c 0
 225.735294118 351.12716263 225.490196079 347.117647059 225 343 c 1
 268.485107244 392.483053071 388.948465547 434 481 434 c 0
 553.666666667 434 615.333333333 422 666 398 c 1
 666 373 l 1
 662.317460317 373.317460317 658.665154951 373.476190476 655.0430839 373.476190476 c 0
 620.633408919 373.476190476 588.952380953 359.150793651 560 330.5 c 0
 528 298.833333333 512 261.333333333 512 218 c 0
 512 142.141030569 559.452859443 71 632 71 c 0
 682.911494873 71 733 96.0042316831 733 143 c 2
 733 196 l 1
 764 196 l 1
 764 143 l 2
 764 95.1270496886 812.829957552 71 862 71 c 0
 959.607917067 71 1001.19631902 185.54053514 1001.19631902 294.728894576 c 0
 1001.19631902 363.576298192 976.630879347 423.833333333 927.5 475.5 c 0
 875.833333333 529.833333333 812.666666667 557 738 557 c 0
 658 557 591.666666667 527.333333333 539 468 c 1
 510 468 l 1
 566.666666667 542.666666667 644.666666667 580 744 580 c 0
 823.333333333 580 890.333333333 551.333333333 945 494 c 0
 1005.31117979 432.181040718 1032.85714286 359.637985396 1032.85714286 258.142857143 c 0
 1032.85714286 195.857142857 1022.57142857 142.142857143 1002 97 c 0
 973.333333333 32.3333333333 928.333333333 0 867 0 c 0
 817.666666667 0 778 19.6666666667 748 59 c 1
 716.603411786 19.4129974702 678.485919144 -0.0434782608696 630.615311909 -0.0434782608696 c 0
475.367346939 155.755935027 m 0
 475.367346939 237.502508443 404.267603281 285 301 285 c 0
 244.333333333 285 203.666666667 279 179 267 c 1
 134.138622474 229.040372861 86.1541726193 150.529968379 70 95 c 1
 76 98.3333333333 82.3333333333 100 89 100 c 0
 94.3333333333 100 106.666666667 96 126 88 c 0
 153.142857143 76.5396825397 176.192743764 70.8095238095 195.149659864 70.8095238095 c 0
 246.182372345 70.8095238095 279.0625 101.038336315 279.0625 157.9609375 c 0
 279.0625 159.611979167 279.041666667 161.291666667 279 163 c 1
 309 163 l 1
 308.944444445 160.944444445 308.916666667 158.930555556 308.916666667 156.958333333 c 0
 308.916666667 98.9409234118 338.612062057 70.6363636364 392.388429752 70.6363636364 c 0
 421.585992006 70.6363636364 439.754327928 79.3022486482 456.5 101.5 c 0
 469.078231293 118.173469388 475.367346939 136.258781064 475.367346939 155.755935027 c 0
EndSplineSet
Ligature2: "Ligature Substitution lookup 11 subtable" si_Ka si_Halant zwj si_Dha
EndChar
StartChar: si_Nya
Encoding: 62 3492 133
Width: 1024
GlyphClass: 2
Flags: HW
HStem: -238 28<938.251 980> -1 72<268.25 378.547 454.361 572.614> -1 28<767.057 888.346> 73 28<195.411 233.749> 285 28<346.595 507.747> 294 23<746.297 914> 392 41<250.258 312.592 618 714.938 787.936 883.898> 406 27<148.242 185 520.748 704.204>
VStem: 27 30<122.322 309.257> 146 25<18.76 50.9949> 151 97<306.376 389.761> 319 32<345 383.789> 404 30<103.09 163> 600 79<99.7723 222.982> 820 58<-167.616 -65.2406>
LayerCount: 2
Back
Fore
SplineSet
978 75 m 1
 940.463106618 32.7709949453 878 -27.8805299938 878 -104 c 0
 878 -129 886 -150 900 -168 c 128
 914 -186 941 -201 980 -210 c 1
 980 -238 l 1
 966 -241 948 -242 927 -242 c 0
 903 -241 886 -239 877 -234 c 0
 839 -214 820 -183 820 -142 c 0
 820 -134 821 -126 822 -117 c 0
 826 -89 849 -47 890 10 c 1
 855 3 823 -1 795 -1 c 0
 719 -1 653 34 629 71 c 1xb8be
 610 23 575 -1 522 -1 c 0
 476 -1 442 20 420 63 c 1
 404 22 374 -1 329 -1 c 0
 301 -1 274 12 249 37 c 0
 248 38 243 45 234 59 c 0
 229 68 222 73 213 73 c 0
 189 73 175 38 171 13 c 1
 146 21 l 1xd0de
 156 92 185 162 233 230 c 0
 251 255 280 288 319 327 c 1
 319 334 l 2
 319 373 308 392 280 392 c 0
 262 392 251 382 248 363 c 0
 243 332 235 312 225 303 c 0
 218 297 208 294 195 294 c 0
 166 294 151 309 151 335 c 0
 151 360 162 383 185 404 c 1
 152 400 122 382 95 349 c 0
 70 319 57 275 57 218 c 0
 57 137 83 74 135 29 c 1
 135 0 l 1
 68 33 27 119 27 221 c 0
 27 307 55 359 102 398 c 128
 132 423 158 432 200 432 c 0
 210 432 221 432 232 430 c 1
 241 432 250 433 260 433 c 0
 314 433 351 405 351 351 c 0
 351 349 351 347 351 345 c 1
 385 382 464 413 526 425 c 0
 552 430 579 433 606 433 c 0
 653 433 702 425 733 412 c 1
 749 426 773 433 803 433 c 0
 888 433 931 389 951 294 c 1
 820 294 l 2xd5be
 732 294 679 260 679 179 c 0
 679 91 745 27 833 27 c 0
 876 27 917 49 955 92 c 1
 978 75 l 1
716 389 m 1
 701 397 644 406 617 406 c 0x959e
 545 406 464 380 408 349 c 128
 377 332 356 316 345 303 c 1
 374 310 403 313 431 313 c 0
 519 313 579 286 611 231 c 1
 621 256 641 278 672 296 c 0
 696 310 745 317 819 317 c 2
 914 317 l 1
 905 359 878 397 832 397 c 0
 807 397 797 389 784 366 c 128
 773 346 761 336 739 336 c 0
 720 336 711 347 711 368 c 0
 711 376 716 382 716 389 c 1
600 156 m 0
 600 235 529 285 426 285 c 0x989e
 375 285 333 279 300 266 c 1
 285 252 266 229 245 197 c 0
 229 174 212 140 195 95 c 1
 200 99 206 101 213 101 c 0
 219 101 232 97 252 88 c 0
 279 77 301 71 319 71 c 0
 358 71 399 96 404 135 c 1
 404 163 l 1
 434 163 l 1
 434 158 l 2
 434 104 459 70 512 70 c 0
 544 70 565 79 582 102 c 0
 595 119 600 137 600 156 c 0
EndSplineSet
EndChar
StartChar: si_Jnya
Encoding: 63 3493 135
Width: 842
GlyphClass: 2
Flags: HW
HStem: -238 28<756.604 799> -2 70<231.217 386.588> -1 26<588.343 704.055> 217 24<350.234 397.549> 294 23<562.523 732> 407 26<154.245 234.712 263.029 351 465.834 539.699>
VStem: 27 30<122.322 309.461> 134 31<153.035 301.577> 316 25<192 212.503> 419 79<98.0656 205.569> 639 57<-167.921 -67.0006>
LayerCount: 2
Back
Fore
SplineSet
614 -1 m 0
 533 -1 467 36 442 80 c 1xbfe0
 420 26 377 -2 312 -2 c 0
 250 -2 209 20 176 66 c 0
 148 104 134 150 134 204 c 0
 134 301 171 368 235 406 c 1
 229 407 223 407 217 407 c 0
 169 407 128 388 95 349 c 0
 70 319 57 275 57 218 c 0
 57 137 83 74 135 29 c 1
 135 0 l 1
 68 33 27 119 27 221 c 0
 27 329 85 418 178 429 c 0
 198 432 224 433 256 433 c 0
 283 433 315 432 351 430 c 1
 351 407 l 1
 344 408 336 409 329 409 c 0
 235 409 165 325 165 229 c 0
 165 190 175 156 195 127 c 0
 222 87 258 68 310 68 c 0
 370 68 419 97 419 153 c 0
 419 185 398 217 367 217 c 0
 360 217 352 216 345 213 c 1
 342 202 341 195 341 192 c 1
 316 192 l 1
 324 309 393 432 510 432 c 0
 532 432 553 428 567 422 c 1
 582 429 601 433 623 433 c 0
 709 433 751 389 769 294 c 1
 639 294 l 2
 551 294 498 260 498 179 c 0
 498 91 562 25 650 25 c 0
 692 25 733 47 773 92 c 1
 797 75 l 1
 759 37 732 2 712 -39 c 128
 701 -60 696 -82 696 -103 c 0
 696 -128 704 -150 718 -168 c 128
 732 -186 759 -201 799 -210 c 1
 799 -238 l 1
 784 -241 766 -242 745 -242 c 0
 721 -241 705 -239 696 -234 c 0
 658 -214 639 -184 639 -143 c 0
 639 -104 662 -53 709 10 c 1
 674 3 642 -1 614 -1 c 0
529 368 m 0
 529 382 533 386 540 399 c 1
 530 402 520 403 510 403 c 0
 425 403 369 316 350 239 c 1
 357 240 363 241 369 241 c 0
 392 241 410 233 425 218 c 1
 434 250 456 276 491 296 c 0
 515 310 564 317 637 317 c 2
 732 317 l 1
 722 360 698 397 651 397 c 0
 626 397 617 390 604 366 c 128
 593 346 579 336 557 336 c 0
 538 336 529 347 529 368 c 0
EndSplineSet
EndChar
StartChar: si_Ndja
Encoding: 64 3494 136
Width: 637
GlyphClass: 2
Flags: HW
HStem: 0 71<191.07 473.492> 290 21<185.492 274.344 364.346 423 442.474 475.222> 393 39<183.158 261.472> 406 27<444.211 510.058>
VStem: 27 30<135.22 309.491> 71 37<134.457 237.286> 275 29<311.179 378.116> 331 30<309.328 379.284> 397 29<323.357 392.268> 527 31<321.59 390.44> 552 35<131.402 234.295>
LayerCount: 2
Back
Fore
SplineSet
475 406 m 0
 449 406 426 385 426 359 c 0xdfc0
 426 330 450 308 478 308 c 0
 504 308 527 329 527 355 c 128
 527 383 504 406 475 406 c 0
423 309 m 1
 407 318 397 337 397 363 c 0
 397 376 400 390 406 406 c 1
 376 389 361 365 361 334 c 0
 361 327 362 318 364 309 c 1
 371 310 382 310 397 311 c 0
 404 311 412 310 423 309 c 1
182 432 m 2
 192 432 l 2
 260 432 304 392 304 326 c 0
 304 314 303 301 300 288 c 1
 289 289 278 290 267 290 c 0
 210 290 163 278 134 248 c 0
 117 229 108 209 108 186 c 0
 108 98 232 71 336 71 c 0
 479 71 552 108 552 188 c 0
 552 264 472 290 393 290 c 0
 374 290 356 288 338 285 c 1
 333 301 331 316 331 331 c 0
 331 384 359 418 416 433 c 1
 429 468 449 504 478 539 c 0
 521 592 556 619 582 619 c 0
 598 619 606 612 606 597 c 0
 606 590 603 584 596 580 c 0
 576 569 545.730208463 550.584166771 510 522 c 0
 475.730208463 494.584166771 455 464 444 433 c 1
 471 433 l 2
 517 433 558 401 558 357 c 0
 558 325 543 302 512 289 c 1
 554 272 587 223 587 164 c 0
 587 47 464 0 336 0 c 0
 259 0 198 13 151 39 c 0
 150 40 149 41 148 42 c 1
 143 24 l 1
 116 37 86.6172322876 55.5132648546 64 87 c 0
 35.6172322876 126.513264855 27 174 27 221 c 0
 27 316 62 375 121 411 c 1
 136 425 157 432 182 432 c 2
275 331 m 0
 275 373 257 393 220 393 c 0
 199 393 187 385 181 369 c 0
 170 338 157 322 130 322 c 0
 110 322 98 331 95 349 c 1
 70 320 57 276 57 218 c 0
 57 150 80 100 124 68 c 1
 102 96 84 129 71 168 c 1
 69 260 151 312 246 312 c 0
 255 312 263 312 273 311 c 1
 274 318 275 324 275 331 c 0
EndSplineSet
EndChar
StartChar: si_Tta
Encoding: 73 3495 131
Width: 603
GlyphClass: 2
Flags: W
HStem: -0.0761905 70.8115<160.321 392.812> 365 26.3333<159.769 310.911> 553 24.0426<189.516 350.172>
VStem: 32.3208 34.0586<155.177 283.541> 524 33<207.936 379.045>
LayerCount: 2
Back
Fore
SplineSet
232 365 m 0,0,1
 160 365 160 365 113 324 c 0,2,3
 66.3793103448 284.551724138 66.3793103448 284.551724138 66.3793103448 223.400713436 c 0,4,5
 66.3793103448 216.344827586 66.3793103448 216.344827586 67 209 c 0,6,7
 73 135 73 135 146 99 c 0,8,9
 201.617647059 70.7352941176 201.617647059 70.7352941176 275.524221453 70.7352941176 c 0,10,11
 282.676470588 70.7352941176 282.676470588 70.7352941176 290 71 c 0,12,13
 402 75 402 75 465 140 c 0,14,15
 524 202 524 202 524 300 c 0,16,17
 524 397 524 397 454 473 c 0,18,19
 380 553 380 553 277 553 c 0,20,21
 213 553 213 553 172 535 c 0,22,23
 127 516 127 516 90 470 c 1,24,-1
 57 470 l 1,25,26
 130 575 130 575 271 577 c 0,27,28
 273.617021277 577.042553191 273.617021277 577.042553191 276.215934812 577.042553191 c 0,29,30
 395.765957447 577.042553191 395.765957447 577.042553191 477 487 c 0,31,32
 557 399 557 399 557 275 c 0,33,34
 557 161 557 161 489 84 c 0,35,36
 417 2 417 2 297 0 c 0,37,38
 292.466666667 -0.0761904761905 292.466666667 -0.0761904761905 288.006621315 -0.0761904761905 c 0,39,40
 175.39047619 -0.0761904761905 175.39047619 -0.0761904761905 109.5 48.5 c 0,41,42
 41 99 41 99 33 195 c 0,43,44
 32.320754717 203.037735849 32.320754717 203.037735849 32.320754717 210.896048416 c 0,45,46
 32.320754717 272.452830189 32.320754717 272.452830189 74 323 c 0,47,48
 124 384 124 384 207 390 c 0,49,50
 225.444444444 391.333333333 225.444444444 391.333333333 241.320987654 391.333333333 c 0,51,52
 296.888888889 391.333333333 296.888888889 391.333333333 321 375 c 1,53,-1
 321 346 l 1,54,55
 295 365 295 365 232 365 c 0,0,1
EndSplineSet
Validated: 1
EndChar
StartChar: si_Ttha
Encoding: 66 3496 139
Width: 638
GlyphClass: 2
Flags: HW
HStem: 0 71<123.038 258.091 342.538 487.264> 363 35<362.901 461.537> 374 24<159.859 221>
VStem: 33 36<139.134 285.34> 288 29<102.283 190> 309 29<426.302 548.943> 556 31<168.184 345.821>
LayerCount: 2
Back
Fore
SplineSet
338 479 m 0
 338 431 365 398 412 398 c 0
 446 398 471 415 487 450 c 1
 470 475 454 496 436 512 c 128
 418 528 405 539 398 545 c 0
 385 556 373 564 362 569 c 1xd2
 346 548 338 518 338 479 c 0
317 139 m 2xda
 317 94 370 71 417 71 c 0
 466 71 503 94 528 140 c 0
 547 174 556 214 556 259 c 0
 556 303 549 331 533 372 c 0
 522 398 513 415 505 423 c 1
 483 383 452 363 413 363 c 0
 360 363 313 403 309 452 c 0
 309 457 309 462 309 467 c 0
 309 514 322 560 350 603 c 1
 401 582 450 543 496 486 c 0
 547 423 576 357 584 289 c 0
 586 272 587 255 587 238 c 0
 587 116 535 0 422 0 c 0
 373 0 333 20 303 59 c 1
 272 20 234 0 188 -0 c 0
 138 0 99 23 69 68 c 0
 45 105 33 146 33 191 c 0
 33 288 82 360 152 387 c 0
 173 394 196 398 221 398 c 1
 221 374 l 1
 216 374 l 2
 134 374 69 300 69 218 c 0
 69 142 116 70 190 70 c 0
 239 70 288 92 288 139 c 2
 288 190 l 1
 317 190 l 1
 317 139 l 2xda
EndSplineSet
EndChar
StartChar: si_Ddha
Encoding: 68 3498 142
Width: 647
GlyphClass: 2
Flags: HW
HStem: -0.0206186 71.0206<128.496 270.376 355.649 495.022> 288 27<15 124 144.961 255> 335 97.0244<89.9492 146.66> 363 30<379.459 463.281> 391 41.0244<158.012 233.277>
VStem: 46 39<117.28 232.948> 255 34<315 365.496> 299 27<107.189 190> 317.51 29.4902<424.178 547.804> 564.9 33.1<168.142 345.418>
LayerCount: 2
Back
Fore
SplineSet
197.287703263 -0.020618556701 m 0
 112.014086846 -0.020618556701 46 73.7253307708 46 158 c 0
 46 203.040462174 59.1886539973 231.121041831 84 258 c 0
 98 273.333333333 111.333333333 283.333333333 124 288 c 1
 15 288 l 1
 15 315 l 1
 255 315 l 1
 255 348.770641238 228.693829026 391 196 391 c 0xcf40
 190.666666667 391 185.333333333 389.666666667 180 387 c 0
 165.333333333 380.333333333 153.666666667 369.333333333 145 354 c 0
 130.142543731 325.935915938 71 328.539085756 71 368 c 0
 71 409.57454982 105.684754951 432.024390244 172.765318263 432.024390244 c 0
 250.780216704 432.024390244 290.236500935 368.372560755 289 288 c 1
 195 288 l 2
 137.759659038 288 85 233.495411859 85 176 c 0
 85 116.410234948 136.029131516 71 198 71 c 0
 247.109899829 71 299 98.1580737401 299 146 c 2
 299 190 l 1
 326 190 l 1
 326 146 l 2
 326 98.5900441779 376.607903095 71 425 71 c 0
 473.666666667 71 510.666666667 94.3333333333 536 141 c 0
 555.266666667 175.566666667 564.9 215.6725 564.9 261.3175 c 0
 564.9 305.161132959 558.307753517 332.326779234 541 373 c 0
 531 397.666666667 522 414.666666667 514 424 c 1
 492.666666667 383.333333333 462 363 422 363 c 0
 363.035952924 363 317.509803922 406.955020637 317.509803922 466.892349097 c 0
 317.509803922 512.532743816 331.339869281 557.901960784 359 603 c 1
 425.666666667 576.333333333 482.166666667 527.333333333 528.5 456 c 128
 574.833333333 384.666666667 598 312.666666667 598 240 c 0
 598 117.705007376 544.011902361 0 431 0 c 0
 369.285699916 0 344.342973795 21.3884314468 313 59 c 1
 281.794349142 19.6537445708 243.989731699 -0.020618556701 197.287703263 -0.020618556701 c 0
372 567 m 1
 355.333333333 545 347 514.666666667 347 476 c 0
 347 444.666666667 357 422.333333333 377 409 c 0
 393.666666667 398.333333333 409.333333333 393 424 393 c 0xd640
 452 393 476.666666667 412 498 450 c 1
 486.666666667 467.333333333 469.333333333 487.666666667 446 511 c 0
 419.333333333 538.333333333 394.666666667 557 372 567 c 1
EndSplineSet
EndChar
StartChar: si_Nna
Encoding: 69 3499 143
Width: 963
GlyphClass: 2
Flags: HW
HStem: -1.78049 30.6138<758.219 827.384> -0.025641 73.0256<260.733 453.824> 35.9677 32.7419<605.137 685.615> 158.731 38.2688<311.595 394.498> 258.019 28.525<607.669 688.247> 283.013 39.1873<756.748 829.998> 407 26<277.276 434.336> 470 57<721.688 861.77>
VStem: 170 30.8594<287 344.783> 261.364 30.6364<217.893 292.418> 415 30<218.439 297.075> 709.067 33.0762<97.939 205.517> 851.15 64.2591<59.5 264.628>
LayerCount: 2
Back
Fore
SplineSet
353 318 m 0
 317.521035604 318 292 291.536298648 292 258 c 0x13f8
 292 223.739563472 320.727843786 197 354 197 c 0
 385.568180299 197 415 222.964020441 415 257 c 0
 415 291.2986035 388.052047302 318 353 318 c 0
851.15 156.555 m 0
 851.15 240.78538276 833.258909582 283.012658228 795.71559045 283.012658228 c 0
 762.495914116 283.012658228 742.924050633 257.341772152 737 206 c 1
 740.428571429 195.714285714 742.142857143 183.714285714 742.142857143 170 c 0
 742.142857143 142.720539405 736.956976549 118.700845135 729 97 c 1
 732.611833871 65.6974397831 760.687620943 28.8333333333 796.385416667 28.8333333333 c 0
 837.132405709 28.8333333333 851.15 78.8853526256 851.15 156.555 c 0
709.066666667 170.097777778 m 0
 709.066666667 228.91963652 690.20555412 258.018518519 651.085048011 258.018518519 c 0
 617.448102424 258.018518519 594.086419753 240.679012346 581 206 c 1
 581 190 578.333333333 171.333333333 573 150 c 1
 574.255408995 111.082321166 607.106375578 68.7096774194 646.697190427 68.7096774194 c 0
 690.186207707 68.7096774194 709.066666667 105.779787573 709.066666667 170.097777778 c 0
315 184 m 1
 283.485190492 194.9935382 261.363636364 217.763159122 261.363636364 255.049586777 c 0
 261.363636364 268.228650138 265.242424243 280.878787879 273 293 c 1
 205 258 l 1
 218.597700799 215.847127525 264.64338365 186.582390581 315 184 c 1
445 255 m 0
 445 194.223762963 380.020638762 158.731182796 316.859868193 158.731182796 c 0
 246.960457856 158.731182796 200.340501792 186.487455197 177 242 c 1
 163 234.666666667 142.333333333 223.333333333 115 208 c 1
 132.333333333 206 146.5 198.5 157.5 185.5 c 128
 168.5 172.5 179 159.666666667 189 147 c 0
 237.666666667 97.6666666667 291.333333333 73 350 73 c 0
 463.606210255 73 549.778846154 133.808926788 549.778846154 242.077385355 c 0
 549.778846154 304.128359221 520.852564103 349.769230769 463 379 c 1
 431.32911801 367.123419254 411.227866119 356.691146447 372 341 c 1
 411.418572235 332.638484677 445 300.436125014 445 255 c 0
201 287 m 1
 223.666666667 299 261 317.666666667 313 343 c 0
 355.666666667 362.333333333 396.333333333 379.333333333 435 394 c 1
 413 402.666666667 386.666666667 407 356 407 c 0
 315.333333333 407 283 399.666666667 259 385 c 0
 220.239583333 362.125 200.859375 331.376790365 200.859375 292.755371094 c 0
 200.859375 290.855957031 200.90625 288.9375 201 287 c 1
97.6180555556 181.083333333 m 0
 68.5188476804 181.083333333 57.3813811554 172.529849679 33 154 c 1
 22 178 l 1
 56.9981284251 206.821988114 114.16489273 237.424940406 171 269 c 1
 170.333333333 275 170 280.666666667 170 286 c 0
 170 380.65101825 255.142511354 433 356 433 c 0
 404 433 441 423.666666667 467 405 c 1
 523.666666667 432.333333333 591.666666667 460 671 488 c 0
 743.666666667 514 796 527 828 527 c 0
 851.333333333 527 863 518 863 500 c 0
 863 484.666666667 851.333333333 474.666666667 828 470 c 0
 798.666666667 465.333333333 750.333333333 456.333333333 683 443 c 0
 624.333333333 429.666666667 562.333333333 412 497 390 c 1
 518.333333333 377.333333333 539 355.666666667 559 325 c 0
 573 303.666666667 580 278.666666667 580 250 c 1
 595.449275362 274.362318841 618.313169502 286.543478261 648.59168242 286.543478261 c 0
 682.482538493 286.543478261 705.325549843 273.88487643 721 250 c 1
 731.766666667 298.133333333 762.689166667 322.2 813.7675 322.2 c 0
 856.024810376 322.2 881.90175726 300.595313973 899 255 c 0
 909.939393939 226.787878788 915.409090909 193.603305785 915.409090909 155.446280992 c 0
 915.409090909 75.0312734468 876.645259535 -1.78048780488 799.998810232 -1.78048780488 c 0
 758.178465199 -1.78048780488 728.845528455 20.4796747967 712 65 c 1
 695.870967742 45.6451612903 674.122788762 35.9677419355 646.755463059 35.9677419355 c 0
 604.672016111 35.9677419355 575.191041377 59.2067522398 557 103 c 1
 513.067862694 36.4741920793 463.941813177 -0.025641025641 360.918474688 -0.025641025641 c 0
 309.485645409 -0.025641025641 268.179487179 12.3162393162 237 37 c 0
 217.666666667 52.3333333333 191.666666667 84.3333333333 159 133 c 0
 145.078805477 153.108392089 131.598339762 181.083333333 97.6180555556 181.083333333 c 0
EndSplineSet
EndChar
StartChar: si_Ndda
Encoding: 78 3500 136
Width: 731
GlyphClass: 2
Flags: W
HStem: -0.0206186 71.0206<214.886 355.545 443.614 582.015> 288 27<103 213 234.93 349> 392 40.0227<243.629 325.12> 556 26<305.452 472.522>
VStem: 27 30<122.322 309.491> 134 36<120.75 230.739> 349 33<315 362.69> 387 27<104.855 178> 651.121 33.8788<169.534 372.805>
LayerCount: 2
Back
Fore
SplineSet
176 402 m 1,0,1
 163 398 163 398 149 393 c 0,2,3
 121 380 121 380 95 349 c 0,4,5
 57 305 57 305 57 218 c 0,6,7
 57 97 57 97 135 29 c 1,8,-1
 135 0 l 1,9,10
 81 27 81 27 52 93 c 0,11,12
 27 150 27 150 27 221 c 0,13,14
 27 285 27 285 47 327 c 128,-1,15
 67 369 67 369 102.5 398 c 128,-1,16
 138 427 138 427 177 431 c 0,17,18
 185.8 431.8 185.8 431.8 197 431.8 c 0,19,20
 213.8 431.8 213.8 431.8 236 430 c 0,21,22
 240 432 240 432 260 432 c 0,23,24
 261.295454545 432.022727273 261.295454545 432.022727273 262.578512397 432.022727273 c 0,25,26
 317.75 432.022727273 317.75 432.022727273 350 390 c 0,27,28
 381 351 381 351 382 288 c 1,29,-1
 287 288 l 2,30,31
 243 288 243 288 206.5 254.5 c 128,-1,32
 170 221 170 221 170 177 c 0,33,34
 170 134 170 134 203 102.5 c 128,-1,35
 236 71 236 71 286 71 c 0,36,37
 326 71 326 71 356.5 90 c 128,-1,38
 387 109 387 109 387 143 c 2,39,-1
 387 178 l 1,40,-1
 414 178 l 1,41,-1
 414 143 l 2,42,43
 414 110 414 110 445 89 c 0,44,45
 472 71 472 71 512 71 c 0,46,47
 585 71 585 71 622 140 c 0,48,49
 651.121212121 194.484848485 651.121212121 194.484848485 651.121212121 273.678604224 c 0,50,51
 651.121212121 278.787878788 651.121212121 278.787878788 651 284 c 0,52,53
 648 396 648 396 574.5 476 c 128,-1,54
 501 556 501 556 394 556 c 0,55,56
 267 556 267 556 194 468 c 1,57,-1
 161 468 l 1,58,59
 246 582 246 582 396 582 c 0,60,61
 526 582 526 582 608 483 c 0,62,63
 685 390 685 390 685 258 c 0,64,65
 685 152 685 152 648 83 c 0,66,67
 604 0 604 0 519 0 c 0,68,69
 448 0 448 0 401 59 c 1,70,71
 354 1 354 1 288 0 c 0,72,73
 286.639175258 -0.020618556701 286.639175258 -0.020618556701 285.287703263 -0.020618556701 c 0,74,75
 221.092783505 -0.020618556701 221.092783505 -0.020618556701 178 46.5 c 0,76,77
 134 94 134 94 134 158 c 0,78,79
 134 181 134 181 140 203 c 0,80,81
 148 232 148 232 172 258 c 0,82,83
 194 281 194 281 213 288 c 1,84,-1
 103 288 l 1,85,-1
 103 315 l 1,86,-1
 349 315 l 1,87,88
 348 344 348 344 329 368 c 128,-1,89
 310 392 310 392 285 392 c 0,90,91
 277 392 277 392 268 389 c 0,92,93
 245 380 245 380 234 358 c 0,94,95
 224 341 224 341 199 339 c 0,96,97
 185 338 185 338 174 347.5 c 128,-1,98
 163 357 163 357 163 371 c 0,99,100
 163 379 163 379 166 386 c 0,101,102
 171 397 171 397 176 402 c 1,0,1
EndSplineSet
Validated: 1
EndChar
StartChar: si_Ta
Encoding: 79 3501 137
Width: 704
GlyphClass: 2
Flags: W
HStem: -1.73469 74.7347<175.934 360.985> -0.666667 26.6667<465.326 562.175> 79.45 29.55<72.4125 120.896> 296.048 23.9524<206.437 345.533> 379 56<307.948 471.494> 389.024 43.9756<123.881 175.341>
VStem: 22 22<19.9091 47.8611> 37 77<313.438 383.971> 178 28<348.25 385.188> 417 42<124.484 245.428> 612 51.9474<83.1613 246.454>
LayerCount: 2
Back
Fore
SplineSet
159 265 m 1,0,1
 150 254 150 254 123 213 c 0,2,3
 96 169 96 169 72 100 c 1,4,5
 86 109 86 109 103 109 c 0,6,7
 127 109 127 109 170 88 c 0,8,9
 200 73 200 73 254 73 c 0,10,11
 287 73 287 73 317 79 c 0,12,13
 362 88 362 88 389.5 116.5 c 128,-1,14
 417 145 417 145 417 188 c 0,15,16
 417 200 417 200 415 213 c 0,17,18
 407 254 407 254 362 277 c 0,19,20
 324.857142857 296.047619048 324.857142857 296.047619048 283.179138322 296.047619048 c 0,21,22
 281.095238095 296.047619048 281.095238095 296.047619048 279 296 c 0,23,24
 205 294 205 294 159 265 c 1,0,1
174 322 m 1,25,26
 178 336 178 336 178 350 c 0,27,28
 178 389.024390244 178 389.024390244 153.252825699 389.024390244 c 0,29,30
 152.634146341 389.024390244 152.634146341 389.024390244 152 389 c 0,31,32
 127 388 127 388 121 357.5 c 128,-1,33
 115 327 115 327 114 325 c 0,34,35
 108 306 108 306 93 299 c 0,36,37
 84 295 84 295 73 295 c 0,38,39
 51 295 51 295 43 313 c 0,40,41
 37 327 37 327 37 342 c 0,42,43
 37 377 37 377 64.5 405 c 128,-1,44
 92 433 92 433 126 433 c 0,45,46
 204 433 204 433 206 348 c 1,47,48
 244 391 244 391 312 415 c 0,49,50
 371 435 371 435 435 435 c 0,51,52
 458 435 458 435 479 432 c 0,53,54
 554 421 554 421 608 349 c 0,55,56
 657 284 657 284 663 212 c 0,57,58
 663.947368421 199.684210526 663.947368421 199.684210526 663.947368421 187.767313019 c 0,59,60
 663.947368421 124.210526316 663.947368421 124.210526316 637 72 c 0,61,62
 602 5 602 5 539 0 c 0,63,64
 529.833333333 -0.666666666667 529.833333333 -0.666666666667 521.388888889 -0.666666666667 c 0,65,66
 479.166666667 -0.666666666667 479.166666667 -0.666666666667 455 16 c 1,67,-1
 460 42 l 1,68,69
 487 26 487 26 517 26 c 0,70,71
 538 26 538 26 554 34 c 0,72,73
 612 63 612 63 612 149 c 0,74,75
 612 275 612 275 495 345 c 0,76,77
 438 379 438 379 367 379 c 0,78,79
 261 379 261 379 201 306 c 1,80,81
 233 320 233 320 281 320 c 0,82,83
 343 320 343 320 384 297 c 0,84,85
 447 261 447 261 457 190 c 0,86,87
 459 175 459 175 459 161 c 0,88,89
 459 92 459 92 414.5 48 c 128,-1,90
 370 4 370 4 299 -1 c 0,91,92
 287.244897959 -1.73469387755 287.244897959 -1.73469387755 276.149521033 -1.73469387755 c 0,93,94
 196.632653061 -1.73469387755 196.632653061 -1.73469387755 151 36 c 0,95,96
 136 51 136 51 121 65 c 0,97,98
 103.15 79.45 103.15 79.45 86.745 79.45 c 0,99,100
 83.85 79.45 83.85 79.45 81 79 c 0,101,102
 57 75 57 75 44 9 c 1,103,-1
 22 25 l 1,104,105
 38 130 38 130 98 226 c 0,106,107
 141 294 141 294 174 322 c 1,25,26
EndSplineSet
Validated: 1
EndChar
StartChar: si_Tha
Encoding: 72 3502 148
Width: 614
GlyphClass: 2
Flags: HW
HStem: -1 72<182.702 409.961> 363 32<365.312 451.238> 405 25<177.123 245>
VStem: 33 34<169.153 312.923> 309 30<423.188 549.295> 530 36<192.271 361.15>
LayerCount: 2
Back
Fore
SplineSet
339 478 m 0
 339 431 364 395 409 395 c 0
 437 395 460 411 477 444 c 1
 467 463 451 484 430 507 c 0
 401 538 379 557 363 565 c 1
 347 549 339 520 339 478 c 0
67 245 m 0
 67 125 171 71 299 71 c 0
 369 71 424 89 468 130 c 128
 510 169 530 220 530 283 c 0
 530 335 518 378 493 412 c 1
 474 379 448 363 413 363 c 0
 360 363 313 403 309 452 c 0
 309 457 309 462 309 467 c 0
 309 514 322 560 350 603 c 1
 401 582 449 539 493 472 c 0
 542 400 566 327 566 254 c 128
 566 181 541 120 490 72 c 128
 439 23 374 -1 295 -1 c 0
 222 -1 161 21 110 65 c 0
 59 110 33 167 33 238 c 0
 33 348 134 426 245 430 c 1
 245 405 l 1
 151 404 67 338 67 245 c 0
EndSplineSet
EndChar
StartChar: si_Da
Encoding: 73 3503 149
Width: 456
GlyphClass: 2
Flags: HW
HStem: -234 24<369.81 409> -1 28<195.531 317.316> 294 23<175.297 343> 397 36<222.591 308.672>
VStem: 31 78<98.6738 249.594> 249 57<-168.386 -66.9869>
LayerCount: 2
Back
Fore
SplineSet
343 317 m 1
 334 358 307 397 261 397 c 0
 236 397 227 389 214 366 c 128
 203 346 189 336 167 336 c 0
 149 336 140 347 140 368 c 0
 140 373 141 377 142 382 c 0
 155 416 185 433 232 433 c 0
 318 433 361 389 379 294 c 1
 249 294 l 2
 161 294 109 260 109 179 c 0
 109 90 174 27 263 27 c 0
 306 27 346 49 384 92 c 1
 407 75 l 1
 369 37 342 2 322 -39 c 128
 311 -60 306 -82 306 -104 c 0
 306 -172 351 -195 409 -210 c 1
 409 -238 l 1
 395 -241 377 -242 355 -242 c 0
 331 -241 315 -239 306 -234 c 0
 268 -214 249 -183 249 -142 c 0
 249 -103 272 -53 319 10 c 1
 283 3 251 -1 224 -1 c 0
 202 -1 182 1 165 6 c 0
 78 30 31 83 31 170 c 0
 31 227 54 268 101 296 c 0
 125 310 174 317 248 317 c 2
 343 317 l 1
EndSplineSet
EndChar
StartChar: si_Dha
Encoding: 74 3504 151
Width: 638
GlyphClass: 2
Flags: HW
HStem: -0 71<122.751 262.159 346.629 482.412> 373 25<157.874 221> 557 23<214.314 373.148>
VStem: 33 34<141.853 282.202> 289 30<103.632 196> 556 33<182.583 372.521>
LayerCount: 2
Back
Fore
SplineSet
303 59 m 1
 272 20 234 0 188 -0 c 0
 138 0 99 23 69 68 c 0
 45 105 33 146 33 191 c 0
 33 288 82 360 152 387 c 0
 173 394 196 398 221 398 c 1
 221 373 l 1
 210 373 l 2
 176 373 144 359 115 330 c 0
 83 298 67 261 67 218 c 0
 67 142 115 71 188 71 c 0
 239 71 289 96 289 143 c 2
 289 196 l 1
 319 196 l 1
 319 143 l 2
 319 95 368 71 417 71 c 0
 515 71 556 186 556 295 c 0
 556 364 532 425 483 476 c 0
 432 530 369 557 294 557 c 0
 213 557 147 527 94 468 c 1
 65 468 l 1
 122 543 200 580 299 580 c 0
 378 580 446 551 501 494 c 0
 562 431 589 358 589 255 c 0
 589 195 579 142 558 97 c 0
 529 32 483 0 422 0 c 0
 373 0 333 20 303 59 c 1
EndSplineSet
EndChar
StartChar: si_Na
Encoding: 83 3505 154
Width: 806
GlyphClass: 2
Flags: W
HStem: -0.806452 27.4731<558.664 658.172> -0.121212 73.4633<143.809 389.569> 282 27<261.37 391.552> 370 62.1159<397.373 563.123> 383.439 47.561<145.374 210.589>
VStem: 55 85<300.312 378.75> 221 32.4848<317.292 370.806> 455 43.1818<130.338 239.203> 704 56<81.9122 238.129>
LayerCount: 2
Back
Fore
SplineSet
226 252 m 0,0,1
 204 234 204 234 181 201 c 0,2,3
 162 171 162 171 144 142.5 c 128,-1,4
 126 114 126 114 107 102 c 1,5,6
 175.605263158 73.3421052632 175.605263158 73.3421052632 261.556094183 73.3421052632 c 0,7,8
 274.578947368 73.3421052632 274.578947368 73.3421052632 288 74 c 0,9,10
 427 80 427 80 451 163 c 0,11,12
 455 176 455 176 455 188 c 0,13,14
 455 230 455 230 413 257 c 0,15,16
 375 282 375 282 322 282 c 0,17,18
 264 282 264 282 226 252 c 0,0,1
214 285 m 1,19,20
 221 303 221 303 221 323 c 0,21,22
 221 351 221 351 209 368.5 c 0,23,24
 198.756097561 383.43902439 198.756097561 383.43902439 181.224866151 383.43902439 c 0,25,26
 178.219512195 383.43902439 178.219512195 383.43902439 175 383 c 0,27,28
 145 378 145 378 140 345 c 0,29,30
 132 293 132 293 94 293 c 0,31,32
 55 293 55 293 55 340 c 0,33,34
 55 379 55 379 85 405 c 128,-1,35
 115 431 115 431 154 431 c 0,36,37
 199 431 199 431 228 396.5 c 0,38,39
 253.484848485 366.181818182 253.484848485 366.181818182 253.484848485 327.754820937 c 0,40,41
 253.484848485 322.454545455 253.484848485 322.454545455 253 317 c 1,42,43
 299 369 299 369 375 401.5 c 0,44,45
 446.594202899 432.115942029 446.594202899 432.115942029 518.188405797 432.115942029 c 2,46,-1
 527 432 l 2,47,48
 622 429 622 429 691 357 c 128,-1,49
 760 285 760 285 760 183 c 0,50,51
 760 113 760 113 727 62 c 0,52,53
 690 6 690 6 626 0 c 0,54,55
 617.774193548 -0.806451612903 617.774193548 -0.806451612903 610.016649324 -0.806451612903 c 0,56,57
 569.677419355 -0.806451612903 569.677419355 -0.806451612903 542 21 c 1,58,-1
 555 43 l 1,59,60
 574.444444444 26.6666666667 574.444444444 26.6666666667 606.592592593 26.6666666667 c 0,61,62
 615.777777778 26.6666666667 615.777777778 26.6666666667 626 28 c 0,63,64
 662 33 662 33 683 67.5 c 128,-1,65
 704 102 704 102 704 149 c 0,66,67
 704 206 704 206 670.5 260.5 c 128,-1,68
 637 315 637 315 581 341 c 0,69,70
 518 370 518 370 447 370 c 0,71,72
 335 370 335 370 266 295 c 1,73,74
 302 309 302 309 339 309 c 0,75,76
 408 309 408 309 454.5 266 c 0,77,78
 498.181818182 225.606060606 498.181818182 225.606060606 498.181818182 169.327823691 c 0,79,80
 498.181818182 165.696969697 498.181818182 165.696969697 498 162 c 0,81,82
 494 80 494 80 429 38 c 0,83,84
 374 2 374 2 288 0 c 0,85,86
 281.96969697 -0.121212121212 281.96969697 -0.121212121212 276.065197429 -0.121212121212 c 0,87,88
 87.1212121212 -0.121212121212 87.1212121212 -0.121212121212 27 124 c 1,89,90
 50 116 50 116 66 116 c 0,91,92
 84 116 84 116 94 125 c 0,93,94
 108 138 108 138 121.5 159.5 c 128,-1,95
 135 181 135 181 149 203 c 0,96,97
 187 261 187 261 214 285 c 1,19,20
EndSplineSet
Validated: 1
EndChar
StartChar: si_Nda
Encoding: 76 3507 155
Width: 526
GlyphClass: 2
Flags: HW
HStem: -238 28<438.251 480> -1 26<270.343 385.966> 294 23<246.297 414> 397 36<298.575 380.137> 405 27<140.754 220.539>
VStem: 32 28<167.931 322.451> 102 78<111.122 249.594> 320 58<-167.616 -65.1765>
LayerCount: 2
Back
Fore
SplineSet
180 181 m 0
 180 92 244 25 332 25 c 0
 375 25 415 47 455 92 c 1
 478 75 l 1
 477 74 464 59 440 32 c 0
 415 3 378 -50 378 -104 c 0
 378 -129 386 -150 400 -168 c 0
 414 -186 441 -201 480 -210 c 1
 480 -238 l 1
 466 -241 448 -242 427 -242 c 0
 403 -241 386 -239 377 -234 c 0
 339 -214 320 -183 320 -142 c 0
 320 -134 321 -126 322 -117 c 0
 326 -88 349 -46 391 10 c 1
 355 3 323 -1 296 -1 c 0
 218 -1 157 33 126 73 c 1xf7
 70 98 32 167 32 248 c 0
 32 319 60 365 101 398 c 0
 129 420 154 432 191 432 c 0xef
 210 432 227 428 242 419 c 1
 258 428 278 433 303 433 c 0
 390 433 433 390 451 294 c 1
 320 294 l 2
 233 294 180 261 180 181 c 0
110 110 m 1
 105 127 102 148 102 170 c 0
 102 227 125 268 172 296 c 0
 196 310 245 317 319 317 c 2
 414 317 l 1
 405 359 378 397 332 397 c 0xf7
 307 397 299 389 286 366 c 0
 275 346 261 336 239 336 c 0
 220 336 211 347 211 368 c 0
 211 382 215 386 221 398 c 1
 212 403 201 405 189 405 c 0
 154 405 121 386 89 347 c 0
 70 324 60 290 60 247 c 0
 60 187 77 141 110 110 c 1
EndSplineSet
EndChar
StartChar: si_Pa
Encoding: 77 3508 156
Width: 616
GlyphClass: 2
Flags: HW
HStem: 0 71<165.509 439.149> 301 26.25<144.881 245 353.231 480.809> 394 38<147.763 234.422> 403.167 29.9645<384.011 485.862>
VStem: 31.3468 37.6532<143.617 250.735> 60 85<339.345 390.211> 245 30<321.179 380.622> 321 32.2308<325 376.384> 505 35<315.515 387.01> 541 33<151.172 253.501>
LayerCount: 2
Back
Fore
SplineSet
408.5625 327.25 m 0
 440.160651989 327.25 469.109894448 322.103609126 489 315 c 1xc3c0
 499.666666667 323 505 334 505 348 c 0
 505 380.617708365 476.590229084 403.166666667 442.461805556 403.166666667 c 0
 396.220878583 403.166666667 353.230769231 379.917450034 353.230769231 335.74556213 c 0
 353.230769231 332.274161735 353.487179487 328.692307692 354 325 c 1
 379.5 326.5 397.6875 327.25 408.5625 327.25 c 0
150 432 m 0xe7c0
 229.603115937 432 275 404.358400451 275 335 c 0
 275 323.666666667 273.666666667 311 271 297 c 1
 256.111111111 298.555555555 241.740740741 299.333333333 227.888888889 299.333333333 c 0
 170.846314227 299.333333333 122.723224974 286.723224974 94 258 c 0
 77.3333333333 241.333333333 69 222.333333333 69 201 c 0xebc0
 69 153 99 117.666666667 159 95 c 0
 201 79 250.333333333 71 307 71 c 0
 361 71 410 80 454 98 c 0
 512 122 541 157.666666667 541 205 c 0
 541 256.913057178 495.98486891 289.977824062 448 297 c 0
 430.333333333 299.666666667 411.166666667 301 390.5 301 c 128
 369.833333333 301 347.666666667 299.666666667 324 297 c 1
 322 308.333333333 321 319 321 329 c 0
 321 396.510193422 367.306607645 433.131147541 438.124697662 433.131147541 c 0
 490.985685567 433.131147541 540 405.720257177 540 355 c 0
 540 331 531.333333333 313.666666667 514 303 c 1
 554 279.666666667 574 241.333333333 574 188 c 0
 574 55.937145696 448.198054735 0 307 0 c 0
 158.911991293 0 31.3467741935 46.0708805201 31.3467741935 183.116415193 c 0
 31.3467741935 249.920525494 66.8978494623 293.215053763 138 313 c 0
 163.777777778 320.111111111 188.074074074 323.666666667 210.888888889 323.666666667 c 0
 222.296296296 323.666666667 233.333333333 322.777777778 244 321 c 1
 244.666666667 326.333333333 245 331.666666667 245 337 c 0
 245 375 226.666666667 394 190 394 c 0
 165.333333333 394 150.333333333 386 145 370 c 0
 135 342 118 328 94 328 c 0
 74.4817684709 328 60 345.944435511 60 366 c 0
 60 373.333333333 61.6666666667 380 65 386 c 0
 80.3333333333 416.666666667 108.666666667 432 150 432 c 0xe7c0
EndSplineSet
EndChar
StartChar: si_Pha
Encoding: 86 3509 159
Width: 583
GlyphClass: 2
Flags: W
HStem: -0.0212766 71.0213<144.891 389.954> 288 27<123.81 248> 358.895 39.1053<328.279 428.068> 393 39.0227<144.18 223.071>
VStem: 32.5385 34.4476<137.363 243.371> 248 34<315 364.447> 271.967 31.0333<429.343 556.685> 501.023 32.7197<184.974 345.26>
LayerCount: 2
Back
Fore
SplineSet
442 439 m 1,0,1
 422 471 422 471 388 504 c 0,2,3
 370 523 370 523 322 561 c 1,4,5
 303 542 303 542 303 492 c 0,6,7
 303 415 303 415 359 401 c 0,8,9
 371 398 371 398 382 398 c 0,10,11
 424 398 424 398 442 439 c 1,0,1
206 315 m 2,12,-1
 248 315 l 1,13,14
 247 345 247 345 228 369 c 128,-1,15
 209 393 209 393 184 393 c 0,16,17
 177 393 177 393 171 391 c 0,18,19
 146 384 146 384 136 362 c 128,-1,20
 126 340 126 340 101 335 c 0,21,22
 84 332 84 332 74 342.5 c 128,-1,23
 64 353 64 353 64 369 c 0,24,25
 64 391 64 391 87 411 c 128,-1,26
 110 431 110 431 163 432 c 0,27,28
 164.272727273 432.022727273 164.272727273 432.022727273 165.533057851 432.022727273 c 0,29,30
 219.727272727 432.022727273 219.727272727 432.022727273 251 390 c 0,31,32
 280 351 280 351 282 288 c 1,33,-1
 188 288 l 2,34,35
 135 288 135 288 101.5 261 c 0,36,37
 66.9861111111 233.182835821 66.9861111111 233.182835821 66.9861111111 194.118055556 c 0,38,39
 66.9861111111 127.555555556 66.9861111111 127.555555556 137 96 c 0,40,41
 193 71 193 71 278 71 c 0,42,43
 374 71 374 71 434 118 c 0,44,45
 501.022727273 169.790289256 501.022727273 169.790289256 501.022727273 270.494834711 c 0,46,47
 501.022727273 345.522727273 501.022727273 345.522727273 459 411 c 1,48,49
 437 362 437 362 374 359 c 0,50,51
 371.631578947 358.894736842 371.631578947 358.894736842 369.307479224 358.894736842 c 0,52,53
 327.473684211 358.894736842 327.473684211 358.894736842 300 393 c 0,54,55
 271.966666667 427.8 271.966666667 427.8 271.966666667 473.813333333 c 0,56,57
 271.966666667 556.015873016 271.966666667 556.015873016 315 597 c 1,58,59
 353 577 353 577 398 534 c 0,60,61
 448 485 448 485 481 428 c 0,62,63
 533.742424242 337.712121212 533.742424242 337.712121212 533.742424242 242.629476584 c 0,64,65
 533.742424242 231.348484848 533.742424242 231.348484848 533 220 c 0,66,67
 527 125 527 125 458.5 63 c 128,-1,68
 390 1 390 1 290 0 c 0,69,70
 287.340425532 -0.0212765957447 287.340425532 -0.0212765957447 284.707559982 -0.0212765957447 c 0,71,72
 163.595744681 -0.0212765957447 163.595744681 -0.0212765957447 99 45 c 0,73,74
 32.5384615385 91.1538461538 32.5384615385 91.1538461538 32.5384615385 169.686390533 c 0,75,76
 32.5384615385 176.230769231 32.5384615385 176.230769231 33 183 c 0,77,78
 37 251 37 251 91 288 c 0,79,80
 130 315 130 315 206 315 c 2,12,-1
EndSplineSet
Validated: 1
EndChar
StartChar: si_Ba
Encoding: 79 3510 159
Width: 619
GlyphClass: 2
Flags: HW
HStem: -2 66<309.749 422.815> -1 27<115.093 182.754> 122 29<114.271 182.773> 320 76<143.74 344.807> 558 27<199.709 383.269>
VStem: 33 29<96.7656 227.481> 80 20<88 103.663> 198 32<39.7215 108.178> 273 31<71.4885 131.976> 388 35<194.157 280.658> 530 45<201.036 417.678>
LayerCount: 2
Back
Fore
SplineSet
149 122 m 128
 123 122 100 101 100 75 c 0x3fe0
 100 47 121 26 149 26 c 0
 175 26 198 48 198 74 c 128
 198 100 175 122 149 122 c 128
388 240 m 0
 388 300 305 320 235 320 c 0
 156 320 96 279 73 221 c 0
 66 204 62 185 62 166 c 0
 62 140 68 114 80 88 c 1
 80 132 112 151 153 151 c 0
 197 151 222 127 229 79 c 0
 229 76 230 72 230 69 c 0
 230 26 189 -1 146 -1 c 0
 105 -1 74 23 54 71 c 0
 40 104 33 143 33 187 c 0
 33 314 120 396 247 396 c 0
 339 396 423 345 423 257 c 0
 423 214 412.031282173 178.935015443 383 165 c 2
 333 141 l 2
 314 131 304 118 304 101 c 0
 304 76 320 64 351 64 c 0
 364 64 380 67 397 73 c 0
 438 88 471 122 497 175 c 0
 519 220 530 265 530 311 c 0
 530 456 440 558 297 558 c 0
 200 558 133 529 95 470 c 1
 64 470 l 1
 100 544 181 585 302 585 c 0
 451 585 554 482 571 347 c 0
 574 326 575 305 575 284 c 0
 575 156 523 21 423 2 c 0
 408 -1 394 -2 381 -2 c 0xbfe0
 321 -2 273 35 273 94 c 0
 273 120 282.170506175 141.39267479 303 154 c 0
 320.170506175 164.39267479 338 174 356 184 c 128
 375 195 388 213 388 240 c 0
EndSplineSet
EndChar
StartChar: si_Bha
Encoding: 88 3511 146
Width: 670
GlyphClass: 2
Flags: W
HStem: -1.125 26.4432<368 474.121> -0.355556 71.3147<135.07 306.227> 208.286 28.4762<291.203 339.724> 276 27<6 139 159.227 224> 364 68.0093<373.194 506.359> 384.281 47.7613<127.688 201.414>
VStem: 50.8475 38.3525<116.551 216.762> 348 34.1228<109.842 203.295> 575.03 45.988<115.623 287.033>
LayerCount: 2
Back
Fore
SplineSet
255 281 m 1,0,1
 247.64516129 281.516129032 247.64516129 281.516129032 240.440166493 281.516129032 c 0,2,3
 191.806451613 281.516129032 191.806451613 281.516129032 150 258 c 0,4,5
 95 228 95 228 90 183 c 0,6,7
 89.2 176.066666667 89.2 176.066666667 89.2 169.524444444 c 0,8,9
 89.2 127 89.2 127 123 101 c 0,10,11
 159 73 159 73 224 71 c 0,12,13
 226.204081633 70.9591836735 226.204081633 70.9591836735 228.376509788 70.9591836735 c 0,14,15
 279.428571429 70.9591836735 279.428571429 70.9591836735 313 93.5 c 0,16,17
 348 117 348 117 348 160 c 0,18,19
 348 208.285714286 348 208.285714286 311.785714286 208.285714286 c 0,20,21
 309 208.285714286 309 208.285714286 306 208 c 0,22,23
 291 207 291 207 278 192 c 1,24,-1
 255 192 l 1,25,26
 260 261 260 261 298 327 c 0,27,28
 358.429906542 432.009345794 358.429906542 432.009345794 449.283081492 432.009345794 c 0,29,30
 450.140186916 432.009345794 450.140186916 432.009345794 451 432 c 0,31,32
 531 431 531 431 578 363 c 0,33,34
 621.018348624 300.520969856 621.018348624 300.520969856 621.018348624 210.961535224 c 0,35,36
 621.018348624 129.880733945 621.018348624 129.880733945 568.5 70 c 0,37,38
 515 9 515 9 432 0 c 0,39,40
 420.75 -1.125 420.75 -1.125 408.9375 -1.125 c 0,41,42
 389.25 -1.125 389.25 -1.125 368 2 c 1,43,-1
 368 29 l 1,44,45
 388.454545455 25.3181818182 388.454545455 25.3181818182 407.570247934 25.3181818182 c 0,46,47
 435.181818182 25.3181818182 435.181818182 25.3181818182 460 33 c 0,48,49
 512 49 512 49 544 89.5 c 0,50,51
 575.03030303 128.772727273 575.03030303 128.772727273 575.03030303 182.620293848 c 0,52,53
 575.03030303 255.365726228 575.03030303 255.365726228 545 303 c 0,54,55
 511 356 511 356 449 363 c 0,56,57
 438 364 438 364 428 364 c 0,58,59
 372 364 372 364 336.5 328.5 c 128,-1,60
 301 293 301 293 291 231 c 1,61,62
 302 236.761904762 302 236.761904762 313.823129252 236.761904762 c 0,63,64
 324.571428571 236.761904762 324.571428571 236.761904762 336 232 c 0,65,66
 373 217 373 217 381 153 c 0,67,68
 382.122807018 143.877192982 382.122807018 143.877192982 382.122807018 135.187750077 c 0,69,70
 382.122807018 81.9649122807 382.122807018 81.9649122807 340 45 c 0,71,72
 295 4 295 4 226 0 c 0,73,74
 219.777777778 -0.355555555556 219.777777778 -0.355555555556 213.697777778 -0.355555555556 c 0,75,76
 151.377777778 -0.355555555556 151.377777778 -0.355555555556 104 37 c 0,77,78
 50.8474576271 78.7627118644 50.8474576271 78.7627118644 50.8474576271 143.948577995 c 0,79,80
 50.8474576271 147.440677966 50.8474576271 147.440677966 51 151 c 0,81,82
 54 236 54 236 139 276 c 1,83,-1
 6 276 l 1,84,-1
 6 303 l 1,85,-1
 224 303 l 1,86,87
 219 337 219 337 206 358 c 0,88,89
 189.6875 384.28125 189.6875 384.28125 163.51953125 384.28125 c 0,90,91
 160.8125 384.28125 160.8125 384.28125 158 384 c 0,92,93
 136 382 136 382 123.5 356.5 c 128,-1,94
 111 331 111 331 95 329 c 0,95,96
 89.5714285714 328.142857143 89.5714285714 328.142857143 84.8367346939 328.142857143 c 0,97,98
 56.4285714286 328.142857143 56.4285714286 328.142857143 53 359 c 0,99,100
 52.4666666667 362.866666667 52.4666666667 362.866666667 52.4666666667 366.617777778 c 0,101,102
 52.4666666667 391 52.4666666667 391 75 410.5 c 0,103,104
 99.8936170213 432.042553191 99.8936170213 432.042553191 136.704391127 432.042553191 c 0,105,106
 138.340425532 432.042553191 138.340425532 432.042553191 140 432 c 0,107,108
 190 431 190 431 222 389.5 c 128,-1,109
 254 348 254 348 255 281 c 1,0,1
EndSplineSet
Validated: 1
EndChar
StartChar: si_Ma
Encoding: 81 3512 162
Width: 635
GlyphClass: 2
Flags: HW
HStem: -0.514286 71.5143<181.308 416.905> 184.265 33.5753<243.449 364.603> 276.66 31.3396<276.537 341.452> 405 27<119.594 173.548 277.613 348.109> 560.042 26.0608<221.492 385.843>
VStem: 32.9714 34.7235<175.586 337.411> 173 32<254.455 404.018> 233 30<322.071 391.994> 360 28<323.381 376.678> 401.64 29.36<260.819 372.805> 553 32.2051<219.363 388.704>
LayerCount: 2
Back
Fore
SplineSet
313 407 m 0
 285.208418661 407 263 383.764703804 263 356 c 0
 263 330.077575554 284.370746508 308 310 308 c 0
 339.477664153 308 360 331.2522632 360 359 c 0
 360 385.83195025 340.169982582 407 313 407 c 0
311 71 m 0
 455.466132038 71 553.121621622 170.9905248 553.121621622 315.147279036 c 0
 553.121621622 379.089633553 530.414414415 435.207207207 485 483.5 c 0
 436.324837991 535.260207489 377.461424582 560.042105263 303.67700831 560.042105263 c 0
 221.548476454 560.042105263 156.989473684 529.694736842 110 469 c 1
 78 469 l 1
 133.753217015 545.830652715 208.974613594 586.102857143 307.049110204 586.102857143 c 0
 382.223989115 586.102857143 446.207619047 558.901904762 499 504.5 c 0
 556.142900682 445.614937712 585.205128205 376.251959373 585.205128205 288.876397107 c 0
 585.205128205 214.616918694 561.803418803 149.658119658 515 94 c 0
 461.422616134 30.2863543215 394.15743662 -0.514285714286 300.58122449 -0.514285714286 c 0
 143.392423637 -0.514285714286 32.9714285714 92.8615701525 32.9714285714 245.990204082 c 0
 32.9714285714 327.214025081 80.9400502349 432 155 432 c 0
 194.573383318 432 208 410.202528219 208 369.75 c 128
 208 350.253584985 205 311.311497509 205 299 c 0
 206.519143257 248.868272534 251.369448101 217.84 305.384 217.84 c 0
 366.369329349 217.84 401.64 253.999529415 401.64 323.2736 c 0
 401.64 345.6512 395.76 363.56 384 377 c 1
 386.666666667 369.666666667 388 362 388 354 c 0
 388 310.884246462 353.35507131 276.660377358 307.857956568 276.660377358 c 0
 263.909581836 276.660377358 233 312.853132738 233 356 c 0
 233 402.888826068 272.944987856 437 320 437 c 0
 385.931887033 437 431 377.201748002 431 309 c 0
 431 237.461495851 372.359810712 184.264705882 299.37716263 184.264705882 c 0
 232.805766485 184.264705882 174.192738633 229.977591102 173 292 c 0
 173 304.486492238 178 356.09372846 178 368 c 0
 178 392.666666667 169 405 151 405 c 0
 101.866974794 405 67.6949152542 313.556591662 67.6949152542 257.531169204 c 0
 67.6949152542 126.379522043 172.684973656 71 311 71 c 0
EndSplineSet
EndChar
StartChar: si_Mba
Encoding: 82 3513 164
Width: 636
GlyphClass: 2
Flags: HW
HStem: -0 70<129.121 233 402.73 475.712> 177 27<281.735 358.402> 230 27<243.76 352.02> 291 28<286.807 351.688> 405 27<109.888 162.397 283.408 351.077> 554 24<208.412 384.058>
VStem: 30 31<165.31 328.554> 169 29<301.305 394.433> 228 29<71.9204 151.744> 243 30<331.949 396.192> 365 27<332.408 364.592> 377 30<71.3407 159.909> 394 28<295.707 364.002> 554 36<178.637 376.19>
LayerCount: 2
Back
Fore
SplineSet
320 409 m 0
 295 409 273 388 273 364 c 0xff24
 273 339 295 319 320 319 c 0
 344 319 365 339 365 364 c 128
 365 389 344 409 320 409 c 0
411 71 m 0
 506 71 554 184 554 286 c 0
 554 355 534 414 494 465 c 0
 446 526 384 554 301 554 c 0
 205 554 136 525 93 466 c 1
 62 466 l 1
 93 509 129 539 170 556 c 0
 204 571 250 578 306 578 c 0
 397 578 466 546 520 477 c 0
 567 416 590 342 590 254 c 0
 590 125 540 0 420 0 c 0
 389 0 364 6 344 19 c 1
 366 47 377 77 377 108 c 0
 377 153 358 177 319 177 c 0
 279 177 257 141 257 101 c 0
 257 68 266 41 285 21 c 1
 249 3 247 0 202 -0 c 0
 138 0 100 22 67 80 c 0
 43 122 30 169 30 222 c 0
 30 318 65 432 150 432 c 0
 182 432 198 411 198 368 c 0
 198 363 198 358 198 353 c 0
 198 301 240 257 292 257 c 0
 340 257 373 275 389 311 c 0
 392 318 394 328 394 340 c 0
 394 347 393 356 392 365 c 1
 393 324 359 291 318 291 c 0
 275 291 243 319 243 360 c 0
 243 403 278 434 321 434 c 0
 381 434 422 399 422 341 c 0
 422 275 364 230 298 230 c 0
 266 230 237 239 211 258 c 0
 183 279 169 307 169 342 c 2
 169 390 l 1
 166 401 158 405 144 405 c 0
 117 405 96 386 80 347 c 0
 67 317 61 286 61 253 c 0
 61 154 108 70 204 70 c 0
 214 70 224 71 233 73 c 1
 230 84 228 94 228 105 c 0xffa4
 228 160 268 204 323 204 c 0
 371 204 407 158 407 108 c 0
 407 96 405 84 402 71 c 1
 405 71 408 71 411 71 c 0
EndSplineSet
EndChar
StartChar: si_Ya
Encoding: 83 3514 165
Width: 636
GlyphClass: 2
Flags: HW
HStem: -1 71<121.411 258.645 356.282 508.11> 300 25<350.391 486.523> 362 27<155.276 251> 397.2 36.0133<383.292 505.555>
VStem: 30.3421 32.6579<138.724 274.735> 295 27<112.389 176> 321 29<319 361.938> 519 39<315.731 379.115> 557 35.4902<121.174 243.42>
LayerCount: 2
Back
Fore
SplineSet
350 319 m 1xfb
 364.666666667 323 384.666666667 325 410 325 c 0
 446 325 475 321.333333333 497 314 c 1
 511.666666667 322 519 334 519 350 c 0
 519 359.333333333 516 367.666666667 510 375 c 0
 498.910134165 389.786487779 477.192134085 397.2 447.54 397.2 c 0
 392.455282215 397.2 352.468211421 369.59833415 350 319 c 1xfb
186 -1 m 0
 93.4020821153 -1 30.3421052632 76.937750551 30.3421052632 181.432132964 c 0
 30.3421052632 272.424780629 64.8697315995 333.361289947 130 367 c 0
 159.333333333 381.666666667 190.333333333 389 223 389 c 0
 233 389 242.333333333 388.333333333 251 387 c 1
 251 359 l 1
 240.333333333 361 229.666666667 362 219 362 c 0
 130.062752161 362 63 296.628473455 63 206 c 0
 63 131.115154795 118.285774452 70 193 70 c 0
 235.946436329 70 295 104.801012 295 146 c 2
 295 176 l 1
 322 176 l 1
 322 147 l 2
 322 101.768771826 376.71533082 70.6470588235 424.993079585 70.6470588235 c 0
 512.10707569 70.6470588235 557 115.40437691 557 189 c 0
 557 242.892555314 515.770877601 282.47655254 469 293 c 0
 450.333333333 297.666666667 429.666666667 300 407 300 c 0
 377 300 348.666666667 296.333333333 322 289 c 1xfc80
 321.333333333 296.333333333 321 303.333333333 321 310 c 0
 321 391.658382777 366.935759272 433.213333333 456.905777778 433.213333333 c 0
 514.168592593 433.213333333 547.533333333 410.808888889 557 366 c 0xfa80
 557.666666667 362.666666667 558 359.322916667 558 355.96875 c 0xf9
 558 332.781611374 539.281689804 305.285211225 521 303 c 1
 566.568345997 275.658992402 592.490196078 227.728769122 592.490196078 159.619569396 c 0xf880
 592.490196078 119.043124439 578.660130719 82.6699346405 551 50.5 c 0
 521.438438439 16.1186186186 484.752806861 -1.07207207207 440.943105267 -1.07207207207 c 0
 372.394763411 -1.07207207207 327.231578087 24.4673703996 307 71 c 1
 284.333333333 23 244 -1 186 -1 c 0
EndSplineSet
EndChar
StartChar: si_Ra
Encoding: 84 3515 167
Width: 528
GlyphClass: 2
Flags: HW
HStem: 0 74<151.794 335.487>
VStem: 29 36<163.273 301.151> 430 52<171.072 320.498>
LayerCount: 2
Back
Fore
SplineSet
248 0 m 0
 124 0 29 92 29 216 c 0
 29 322 102 388 182 421 c 0
 216 434 250 446 283 459 c 0
 326 476 365 497 402 520 c 0
 423 533 440 548 455 565 c 0
 472 584 484 596 490 600 c 128
 496 604 501 606 508 606 c 0
 520 606 526 600 526 588 c 0
 526 562 503 536 456 509 c 0
 393 473 339 448 293 435 c 1
 398 425 482 339 482 225 c 0
 482 156 452 96 393 47 c 0
 355 16 307 0 248 0 c 0
65 236 m 0
 65 141 147 74 243 74 c 0
 302 74 350 95 385 136 c 0
 415 171 430 211 430 254 c 0
 430 299 413 337 380 370 c 0
 352 397 315 411 270 411 c 0
 213 411 163 392 119 354 c 0
 83 323 65 283 65 236 c 0
EndSplineSet
EndChar
StartChar: si_La
Encoding: 93 3517 169
Width: 670
GlyphClass: 2
Flags: W
HStem: -154.211 42.2105<274.651 474.453> 171.286 44.6678<420.427 547.707> 282 26<265 368 396 518> 404.041 27.9588<280.855 480.909>
VStem: 30.963 76.037<47.8848 252.475> 368 28<247.475 282> 575 36<243.697 342.619> 594.05 30.2167<2.00513 84>
LayerCount: 2
Back
Fore
SplineSet
265 308 m 1,0,-1
 518 308 l 1,1,-1
 518 282 l 1,2,-1
 396 282 l 1,3,4
 393 257 393 257 422 236 c 0,5,6
 448 217 448 217 479 216 c 0,7,8
 481 215.953488372 481 215.953488372 482.96430503 215.953488372 c 0,9,10
 523.23255814 215.953488372 523.23255814 215.953488372 548.5 235.5 c 0,11,12
 575 256 575 256 575 291 c 0,13,14
 575 301 575 301 573 311 c 0,15,16
 552.432989691 404.041237113 552.432989691 404.041237113 371.681581465 404.041237113 c 0,17,18
 367.87628866 404.041237113 367.87628866 404.041237113 364 404 c 0,19,20
 264 403 264 403 190 341 c 0,21,22
 107 271 107 271 107 161 c 0,23,24
 107 145 107 145 109 129 c 0,25,26
 132 -75 132 -75 341 -109 c 0,27,28
 360 -112 360 -112 380 -112 c 0,29,30
 464 -112 464 -112 521 -71 c 0,31,32
 569 -36 569 -36 588 26 c 0,33,34
 594.05 46.35 594.05 46.35 594.05 61.86 c 0,35,36
 594.05 74.55 594.05 74.55 590 84 c 1,37,-1
 624 84 l 1,38,39
 624.266666667 78.9333333333 624.266666667 78.9333333333 624.266666667 73.7955555556 c 0,40,41
 624.266666667 40.4 624.266666667 40.4 613 4 c 0,42,43
 594 -60 594 -60 533 -103 c 0,44,45
 464 -151 464 -151 368 -154 c 0,46,47
 360.736842105 -154.210526316 360.736842105 -154.210526316 353.592797784 -154.210526316 c 0,48,49
 225 -154.210526316 225 -154.210526316 135 -86 c 0,50,51
 30.962962963 -7.48148148148 30.962962963 -7.48148148148 30.962962963 129.798696845 c 0,52,53
 30.962962963 132.388888889 30.962962963 132.388888889 31 135 c 0,54,55
 33 281 33 281 133 361 c 0,56,57
 223 432 223 432 364 432 c 0,58,59
 456 432 456 432 519 405 c 0,60,61
 597 371 597 371 609 301 c 0,62,63
 611 290 611 290 611 280 c 0,64,65
 611 227 611 227 569.5 197 c 0,66,67
 533.928571429 171.285714286 533.928571429 171.285714286 489.908163265 171.285714286 c 0,68,69
 482.571428571 171.285714286 482.571428571 171.285714286 475 172 c 0,70,71
 426 177 426 177 397 205.5 c 128,-1,72
 368 234 368 234 368 282 c 1,73,-1
 265 282 l 1,74,-1
 265 308 l 1,0,-1
EndSplineSet
Validated: 33
EndChar
StartChar: si_Va
Encoding: 86 3520 170
Width: 597
GlyphClass: 2
Flags: HW
HStem: -0.03125 71.0312<135.892 392.496> 280 24<131.562 257> 397 35<145.554 231.898> 552 25.0421<193.274 351.433>
VStem: 32.9882 34.0118<129.131 233.858> 57.8966 72.6034<335.273 385.726> 257.148 34.996<304 370.971> 515 33<205.668 381.377>
LayerCount: 2
Back
Fore
SplineSet
194 280 m 2xf7
 164 280 137 273 113 259 c 128
 89 245 74.6666666667 226.666666667 70 204 c 0
 68 196 67 188 67 180 c 0xfb
 67 107.333333333 138.666666667 71 282 71 c 0
 356.666666667 71 415 93.3333333333 457 138 c 0
 495.666666667 180 515 234 515 300 c 0
 515 367.333333333 493 425.666666667 449 475 c 0
 402.333333333 526.333333333 344.666666667 552 276 552 c 0
 196.666666667 552 134.666666667 524.666666667 90 470 c 1
 57 470 l 1
 105.666666667 540 177 575.666666667 271 577 c 0
 272.726315789 577.028070175 274.446131117 577.042105263 276.159445983 577.042105263 c 0
 355.828587258 577.042105263 421.442105263 546.694736842 473 486 c 0
 523 427.333333333 548 356.666666667 548 274 c 0
 548 198 525.333333333 134.333333333 480 83 c 0
 432 28.3333333333 368.333333333 0.666666666667 289 0 c 0
 286.6875 -0.0208333333333 284.390950521 -0.03125 282.110351562 -0.03125 c 0
 211.411783854 -0.03125 156.041666667 9.97916666667 116 30 c 0
 60.6588235294 57.0117647059 32.9882352941 103.23017301 32.9882352941 168.655224913 c 0
 32.9882352941 207.544719294 47.3254901961 239.826310989 76 265.5 c 128
 104.666666667 291.166666667 140.666666667 304 184 304 c 2
 257 304 l 2
 257.098765432 306.469135803 257.148148148 308.890717879 257.148148148 311.264746228 c 0
 257.148148148 340.940100595 249.432098765 363.185185185 234 378 c 0
 220.666666667 390.666666667 205.666666667 397 189 397 c 0
 177 397 165.333333333 393.666666667 154 387 c 128
 142.666666667 380.333333333 134.833333333 369.666666667 130.5 355 c 128
 126.166666667 340.333333333 118.666666667 330.666666667 108 326 c 0
 102.666666667 324 97.3333333333 323 92 323 c 0
 81.3333333333 323 72.5 327 65.5 335 c 0
 60.4310344827 340.793103448 57.8965517241 347.984542211 57.8965517241 356.57431629 c 0
 57.8965517241 359.846611177 58.2643678161 363.321839081 59 367 c 0
 67.6666666667 410.333333333 101.333333333 432 160 432 c 0
 169.333333333 432 179 431.333333333 189 430 c 0
 257.762762763 420.360360361 292.144144144 373.551659768 292.144144144 289.573898223 c 0
 292.144144144 286.434542651 292.096096096 283.243243243 292 280 c 1
 194 280 l 2xf7
EndSplineSet
EndChar
StartChar: si_Sha
Encoding: 87 3521 172
Width: 631
GlyphClass: 2
Flags: HW
HStem: -3 29<406.859 468.144> -1 71<134.305 275.662> 156 26<432.494 540.532> 218 24<242.183 287.471> 370 62<320.118 453.103> 408 24<174.371 251>
VStem: 34 32<152.631 302.279> 208 25<192 213.81> 309 35<105.72 202.516> 367 31<33.6391 127.159> 542 40<71.5055 152.778 175 256.082>
LayerCount: 2
Back
Fore
SplineSet
398 76 m 0
 398 48 408 26 432 26 c 0
 448 26 488 50 492 51 c 0
 496 52 500 53 503 53 c 0
 511 53 517 49 519 42 c 1x33e0
 533 76 542 103 542 144 c 1
 535 152 505 156 485 156 c 128
 428 156 398 126 398 76 c 0
201 -1 m 0
 92 -1 34 91 34 204 c 0
 34 275 53 332 92 372 c 128
 131 412 174 432 223 432 c 0x37e0
 232 432 242 431 251 430 c 1
 251 408 l 1
 237 408 l 2
 137 408 66 329 66 230 c 0
 66 139 123 70 211 70 c 0
 234 70 255 76 275 90 c 0
 298 106 309 127 309 152 c 0
 309 184 290 218 259 218 c 0
 253 218 246 217 239 214 c 1
 238 210 236 203 233 192 c 1
 208 192 l 1
 218 311 282 432 401 432 c 0
 466 432 510 403 543 347 c 0
 569 303 582 253 582 196 c 0
 582 128 558 37 529 1 c 1
 502 1 l 1
 505 6 507 10 507 14 c 0
 507 21 503 24 496 24 c 0
 493 24 490 23 487 22 c 2
 459 6 l 2
 449 0 439 -3 430 -3 c 0
 392 -3 367 34 367 72 c 0
 367 114 384 146 419 168 c 0
 435 178 458 182 489 182 c 0
 508 182 526 180 541 175 c 1
 540 215 527 254 504 292 c 0
 477 337 444 362 405 368 c 0
 398 369 390 370 383 370 c 0x3be0
 307 370 252 308 242 240 c 1
 249 241 255 242 262 242 c 0
 314 242 344 204 344 137 c 0
 344 59 279 -1 201 -1 c 0
EndSplineSet
EndChar
StartChar: si_Ssa
Encoding: 88 3522 173
Width: 598
GlyphClass: 2
Flags: HW
HStem: 0 71<154.894 430.379> 135 25<221.916 384.25> 230 22<218.479 379.508> 394 39<145.095 225.422> 407 25<367.093 465.771>
VStem: 30 34<140.589 242.285> 55 86<334.376 390.95> 172 30<174.842 218.686> 238 26<316.341 376.868> 307 28<318 379.459> 402 30<173.292 215.798> 489 28<307.699 386.13> 517 33<139.825 239.855>
LayerCount: 2
Back
Fore
SplineSet
298 230 m 0xe1e0
 234 230 202 220 202 200 c 0
 202 173 234 160 299 160 c 0
 368 160 402 172 402 194 c 0
 402 218 367 230 298 230 c 0xe1e0
377 319 m 0
 414 319 445 312 468 300 c 1
 482 313 489 329 489 347 c 0xe1f0
 489 385 461 407 422 407 c 0
 372 407 335 385 335 339 c 0
 335 332 336 325 338 318 c 1
 354 319 367 319 377 319 c 0
159 433 m 0
 229 433 264 399 264 328 c 0
 264 317 263 306 261 295 c 1
 210 295 175 293 157 290 c 0
 110 281 64 244 64 191 c 0xe5e0
 64 102 193 71 296 71 c 0
 394 71 517 103 517 188 c 0
 517 225 503 252 474 270 c 1
 453 257 434 246 403 239 c 1
 422 230 432 216 432 197 c 0
 432 190 430 184 427 177 c 0
 414 151 365 135 290 135 c 0
 239 135 172 154 172 198 c 0
 172 235 215 251 297 252 c 0
 317 252 396 255 421 267 c 128
 428 270 438 276 451 283 c 1
 443 287 431 291 414 294 c 0
 396 296 377 296 358 296 c 0
 343 296 329 296 313 295 c 1
 309 310 307 323 307 336 c 0
 307 399 353 432 419 432 c 0
 475 432 517 400 517 345 c 0
 517 320 508 301 490 288 c 1
 530 259 550 222 550 174 c 0
 550 52 429 0 298 0 c 0
 155 0 30 50 30 181 c 0
 30 253 91 302 155 312 c 0
 172 315 200 316 237 316 c 1
 238 323 238 329 238 334 c 0
 238 373 219 394 180 394 c 0
 160 394 147 386 141 369 c 0
 131 341 118 325 92 325 c 0
 70 325 55 343 55 364 c 0xe3f0
 55 369 56 373 58 378 c 0
 74 415 107 433 159 433 c 0
EndSplineSet
EndChar
StartChar: si_Sa
Encoding: 89 3523 174
Width: 670
GlyphClass: 2
Flags: HW
HStem: -1 73<140.028 284.357 382.801 541.884> 284 24<5 142 170.682 280 457.432 530.713> 288 28<386.426 525.713> 385 48<192.688 261.75 405.93 518.827>
VStem: 51 40<119.662 232.854> 319 31<105.902 182> 541 38<306.411 377.178> 590 38<121.421 237.172>
LayerCount: 2
Back
Fore
SplineSet
541 340 m 0
 541 375 506 392 471 392 c 0
 418 392 389 365 386 310 c 1x9f
 403 314 427 316 456 316 c 0
 487 315 510 312 526 306 c 1
 536 317 541 328 541 340 c 0
183 433 m 0
 269 433 312 385 312 298 c 0
 312 292 311 286 311 279 c 1
 282 281 258 281 240 281 c 0
 161 281 91 249 91 175 c 0
 91 116 152 72 212 72 c 0
 265 72 319 97 319 145 c 2
 319 182 l 1
 350 182 l 1
 350 145 l 2
 350 93 412 72 470 72 c 0
 531 72 590 117 590 178 c 0
 590 241 539 281 481 286 c 0
 467 287 453 288 439 288 c 0
 409 288 381 285 353 279 c 1
 353 283 353 287 353 291 c 0
 353 376 398 432 481 432 c 0
 532 432 564 410 577 365 c 0
 578 360 579 354 579 349 c 0
 579 328 566 301 550 297 c 1
 600 273 628 227 628 160 c 0
 628 120 614 85 586 54 c 0
 554 18 514 0 464 0 c 0
 399 0 356 27 333 82 c 1
 312 27 267 -1 199 -1 c 0
 116 -1 51 70 51 154 c 0
 51 222 81 265 142 284 c 1
 5 284 l 1
 5 308 l 1
 280 308 l 1xdf
 276 359 253 385 211 385 c 2
 209 385 l 2
 193 385 180 375 170 354 c 0
 161 334 146 323 125 323 c 0
 101 323 89 336 89 362 c 0
 89 406 135 433 183 433 c 0
EndSplineSet
EndChar
StartChar: si_Ha
Encoding: 90 3524 176
Width: 653
GlyphClass: 2
Flags: HW
HStem: -1 28<352 463.204> -1 73<117.308 290.686> 211 26<271.385 318.998> 279 25<134.039 206> 362 70<355.474 490.719> 383 49<108.941 184.298>
VStem: 33 37<119.531 227.775> 239 22<188.818 201.082> 329 36<110.006 201.376> 557 48<115.457 287.181>
LayerCount: 2
Back
Fore
SplineSet
35 365 m 0
 35 405 77 432 118 432 c 0
 197 432 238 361 239 278 c 1xbbc0
 228 279 219 279 209 279 c 0
 171 279 141 273 120 260 c 0
 87 240 70 213 70 180 c 0
 70 106 131 72 208 72 c 0
 275 72 329 100 329 164 c 0
 329 189 319 211 294 211 c 0
 278 211 267 202 261 182 c 1
 239 192 l 1
 242 241 256 286 280 327 c 0
 320 397 370 432 430 432 c 0
 542 432 605 328 605 211 c 0
 605 92 512 -1 392 -1 c 0
 379 -1 366 0 352 2 c 1
 352 29 l 1
 363 28 374 27 385 27 c 0
 449 27 488 45 521 86 c 0
 545 115 557 146 557 181 c 0
 557 283 511 362 414 362 c 0
 341 362 293 318 271 229 c 1
 279 234 288 237 297 237 c 0
 304 237 311 235 319 232 c 0
 349 220 365 188 365 140 c 0
 365 54 290 -1 195 -1 c 0
 154 -1 118 13 86 38 c 0
 51 66 33 104 33 151 c 0
 33 197 48 234 78 262 c 128
 108 290 144 304 186 304 c 0
 193 304 199 304 206 303 c 1
 203 330 197 348 188 359 c 0
 175 375 160 383 144 383 c 0
 126 383 115 374 106 356 c 128
 96 335 86 327 66 327 c 0
 46 327 35 340 35 365 c 0
EndSplineSet
EndChar
StartChar: si_Lla
Encoding: 91 3525 178
Width: 636
GlyphClass: 2
Flags: HW
HStem: -153.301 45.0843<255.387 454.332> 42.6269 61.0924<244.477 435.524> 271 27.2727<163 541> 401 31.0169<209.006 306.241 399.215 499.336>
VStem: 30.9892 65.0108<40.4314 208.647> 131 31.9167<191.849 247 295 354.03> 541 35<296 357.272> 591 27<15.4453 74>
LayerCount: 2
Back
Fore
SplineSet
333 330 m 1
 330.469392867 365.42849987 303.235534516 402.16 264.0432 402.16 c 0
 205.080028221 402.16 163 354.72989491 163 295 c 1
 170.272727273 297.181818182 211.066115702 298.272727273 285.380165289 298.272727273 c 0
 347.308539945 298.272727273 432.515151515 297.515151515 541 296 c 1
 539.707262017 350.294995246 506.438044388 401 451 401 c 0
 405.118539482 401 369.352310708 370.142330308 364 330 c 1
 333 330 l 1
30.9891891892 111.49633309 m 0
 30.9891891892 192.121374952 72.660638638 259.198466279 127 287 c 1
 126.333333333 324.333333333 138.666666667 357.833333333 164 387.5 c 128
 189.333333333 417.166666667 221.333333333 432 260 432 c 0
 304 432 334 413 350 375 c 1
 367.694915254 413.011299435 400.529924351 432.016949153 448.505027291 432.016949153 c 0
 532.830265823 432.016949153 574.727578296 358.79709751 576 271 c 1
 249 271 l 2
 201.666666667 271 173 269 163 265 c 0
 162.944444445 263.166666667 162.916666667 261.344907407 162.916666667 259.534722222 c 0
 162.916666667 166.33260549 240.962124941 103.719298246 335.690981841 103.719298246 c 0
 414.359379119 103.719298246 469.995494291 127.762183377 497 170 c 1
 526 170 l 1
 499.426370007 88.9163597658 433.385874003 42.6268656716 329.435954556 42.6268656716 c 0
 278.010989827 42.6268656716 232.865671642 61.7512437811 194 100 c 0
 152 141.333333333 131 190.333333333 131 247 c 1
 107.666666667 220.333333333 96 185.333333333 96 142 c 0
 96 37.815838167 153.779754379 -33.3383175151 226 -72.5 c 0
 269.911646587 -96.31124498 316.979000339 -108.21686747 367.202061257 -108.21686747 c 0
 434.394159332 -108.21686747 486.427981006 -89.3148170948 529 -51 c 128
 569 -15 589.666666667 26.6666666667 591 74 c 1
 618 74 l 1
 618 -66.9865019135 476.294919531 -153.301204819 326.59391784 -153.301204819 c 0
 247.189940485 -153.301204819 178.825301205 -128.867469879 121.5 -80 c 0
 61.1594594595 -28.5621621622 30.9891891892 35.2699488678 30.9891891892 111.49633309 c 0
EndSplineSet
EndChar
StartChar: si_Fa
Encoding: 100 3526 181
Width: 616
GlyphClass: 2
Flags: W
HStem: -1 27<141.275 219.438 388 460.342> 360.161 70.8387<120.32 252.961 344.939 479.211>
VStem: 32.8947 34.5535<108.559 290.831> 280 32<222 325.88> 531.126 36.8978<110.646 293.357>
LayerCount: 2
Back
Fore
SplineSet
506 38 m 0,0,1
 471 0 471 0 420 0 c 0,2,3
 404 0 404 0 388 4 c 1,4,-1
 388 29 l 1,5,6
 400 26 400 26 412 26 c 0,7,8
 465 26 465 26 500 80 c 0,9,10
 530 125 530 125 531 172 c 0,11,12
 531.125984252 177.88976378 531.125984252 177.88976378 531.125984252 183.594023188 c 0,13,14
 531.125984252 359 531.125984252 359 412 359 c 0,15,16
 374 359 374 359 344 340 c 0,17,18
 312 318 312 318 312 284 c 2,19,-1
 312 222 l 1,20,-1
 280 222 l 1,21,-1
 280 284 l 2,22,23
 280 318 280 318 251 340 c 0,24,25
 225.193548387 360.161290323 225.193548387 360.161290323 190.281997919 360.161290323 c 0,26,27
 181.903225806 360.161290323 181.903225806 360.161290323 173 359 c 0,28,29
 117 352 117 352 89 301 c 0,30,31
 67.4482758621 260.482758621 67.4482758621 260.482758621 67.4482758621 198.413793103 c 0,32,33
 67.4482758621 188.482758621 67.4482758621 188.482758621 68 178 c 0,34,35
 71 119 71 119 105 74 c 0,36,37
 140 26 140 26 187 26 c 0,38,39
 204 26 204 26 220 32 c 1,40,-1
 220 6 l 1,41,42
 200 -1 200 -1 182 -1 c 0,43,44
 150 -1 150 -1 115 21 c 0,45,46
 37 71 37 71 33 210 c 0,47,48
 32.8947368421 214.263157895 32.8947368421 214.263157895 32.8947368421 218.48199446 c 0,49,50
 32.8947368421 294.421052632 32.8947368421 294.421052632 67 356 c 0,51,52
 108 431 108 431 178 431 c 0,53,54
 262 431 262 431 296 359 c 1,55,56
 324 427 324 427 418 431 c 0,57,58
 420.828571429 431.128571429 420.828571429 431.128571429 423.616734694 431.128571429 c 0,59,60
 485.885714286 431.128571429 485.885714286 431.128571429 528 367 c 0,61,62
 568.023809524 304.523809524 568.023809524 304.523809524 568.023809524 216.318027211 c 0,63,64
 568.023809524 105.192460317 568.023809524 105.192460317 506 38 c 0,0,1
EndSplineSet
Validated: 1
EndChar
StartChar: si_Halant
Encoding: 93 3530 181
Width: 8
GlyphClass: 2
Flags: HW
HStem: 468 28<-112.437 -37.7171>
VStem: -140 27<377 478 498.094 638> -27 37<504.107 586.595>
LayerCount: 2
Back
Fore
SplineSet
-113 638 m 5
 -113 503 l 5
 -104 498 -93 496 -80 496 c 4
 -44 496 -27 511 -27 542 c 4
 -27 577 -55 605 -113 638 c 5
10 541 m 4
 10 499 -26 468 -68 468 c 4
 -83 468 -98 471 -113 478 c 5
 -113 331 l 5
 -140 377 l 5
 -140 681 l 5
 -129 672 -108 660 -79 647 c 132
 -27 623 10 603 10 541 c 4
EndSplineSet
EndChar
StartChar: si_Virama
Encoding: 101 3530 182
Width: 8
GlyphClass: 2
Flags: W
HStem: 468 28<-112.437 -37.7171>
VStem: -140 27<377 478 498.094 638> -26.7377 36.7803<504.107 586.595>
LayerCount: 2
Back
Fore
SplineSet
-113 638 m 1,0,-1
 -113 503 l 1,1,2
 -100 496 -100 496 -80 496 c 0,3,4
 -26.737704918 496 -26.737704918 496 -26.737704918 542.277076055 c 0,5,6
 -26.737704918 545.524590164 -26.737704918 545.524590164 -27 549 c 0,7,8
 -30 591 -30 591 -113 638 c 1,0,-1
-140 377 m 1,9,-1
 -140 681 l 1,10,11
 -123 667 -123 667 -79 647 c 128,-1,12
 -35 627 -35 627 -18 611 c 0,13,14
 10.0425531915 583.99605989 10.0425531915 583.99605989 10.0425531915 541.377093708 c 0,15,16
 10.0425531915 512.042553191 10.0425531915 512.042553191 -11.5 490.5 c 0,17,18
 -34 468 -34 468 -68 468 c 0,19,20
 -90 468 -90 468 -113 478 c 1,21,-1
 -113 331 l 1,22,-1
 -140 377 l 1,9,-1
EndSplineSet
Validated: 1
EndChar
StartChar: si_MatraAa
Encoding: 94 3535 183
Width: 299
GlyphClass: 2
Flags: HW
HStem: -1 39.9048<70.8093 164.781> 364.02 36.9979<84.2822 170.954>
VStem: 22 26<70.5737 131 256 315.149> 204.2 65.9212<81.4691 327.817>
LayerCount: 2
Back
Fore
SplineSet
124.405273438 364.01953125 m 0
 74.9231783931 364.01953125 40.4072265625 319.330212813 40.4072265625 268.48828125 c 0
 40.4072265625 264.41015625 40.6044921875 260.247070312 41 256 c 1
 13 256 l 1
 12.7197265625 260.280273438 12.5791015625 264.489257812 12.5791015625 268.625976562 c 0
 12.5791015625 342.747265971 62.8744048971 401.017578125 135.236328125 401.017578125 c 0
 226.961063769 401.017578125 260.12109375 311.997188367 260.12109375 210.243164062 c 0
 260.12109375 72.3863849973 213.981279287 -1 124 -1 c 0
 56.5879239608 -1 12 40.8523068842 12 109 c 0
 12 116.333007812 12.3330078125 123.666992188 13 131 c 1
 39 131 l 1
 38.3330078125 126.333007812 38 121.333007812 38 116 c 0
 38 72.2059246279 68.0325566256 38.904296875 111.860351562 38.904296875 c 0
 167.293446459 38.904296875 194.200195312 103.033907114 194.200195312 212.940429688 c 0
 194.200195312 277.566200218 177.845212211 364.01953125 124.405273438 364.01953125 c 0
EndSplineSet
EndChar
StartChar: si_MatraAe
Encoding: 95 3536 184
Width: 337
GlyphClass: 2
Flags: HW
HStem: -147 54<199.424 283.654> 313 26<3 211>
VStem: 84 69<-43.6523 130.486>
LayerCount: 2
Back
Fore
SplineSet
213 -147 m 4
 127 -147 84 -81 84 7 c 4
 84 68 99 125 127 183 c 4
 156 242 184 286 211 313 c 5
 3 313 l 5
 3 339 l 5
 249 339 l 5
 248 337 247 332 246 323 c 5
 184 232 153 141 153 49 c 4
 153 1 161 -32 187 -60 c 132
 207 -82 233 -93 264 -93 c 4
 277 -93 289 -91 302 -88 c 5
 306 -106 l 5
 281 -134 251 -147 213 -147 c 4
EndSplineSet
EndChar
StartChar: si_MatraAee
Encoding: 104 3537 163
Width: 331
GlyphClass: 2
Flags: W
HStem: -148 42<210.434 303.812> 199 22<119 235> 315 24<4 205>
VStem: 90 69<-59.8392 68.3485>
LayerCount: 2
Back
Fore
SplineSet
4 339 m 5,0,-1
 249 339 l 5,1,-1
 249 317 l 5,2,-1
 119 221 l 5,3,-1
 272 221 l 5,4,-1
 272 201 l 5,5,6
 258 193 258 193 217 146 c 4,7,8
 159 79 159 79 159 11 c 4,9,10
 159 -72 159 -72 234 -96 c 4,11,12
 265 -106 265 -106 306 -106 c 5,13,-1
 305 -131 l 5,14,15
 267 -148 267 -148 229 -148 c 4,16,17
 214 -148 214 -148 200 -145 c 4,18,19
 90 -123 90 -123 90 -12 c 4,20,21
 90 1 90 1 92 16 c 4,22,23
 98 64 98 64 156 130 c 4,24,25
 190 169 190 169 235 199 c 5,26,-1
 72 199 l 5,27,-1
 72 218 l 5,28,-1
 205 315 l 5,29,-1
 4 315 l 5,30,-1
 4 339 l 5,0,-1
EndSplineSet
Validated: 1
EndChar
StartChar: si_MatraI
Encoding: 105 3538 187
Width: 8
GlyphClass: 2
Flags: W
HStem: 396 21<-462.266 -430 -203 -163.469> 598 73<-441.705 -184.176>
VStem: -542 32.75<452.232 544.083> -117 32<457.009 548.92>
LayerCount: 2
Back
Fore
SplineSet
-430 396 m 1,0,1
 -542 405 -542 405 -542 518 c 0,2,3
 -542 594 -542 594 -471 635 c 0,4,5
 -409 671 -409 671 -310 671 c 0,6,7
 -213 671 -213 671 -151 632 c 0,8,9
 -85 591 -85 591 -85 519 c 0,10,11
 -85 472 -85 472 -109 440 c 0,12,13
 -140 397 -140 397 -203 396 c 1,14,-1
 -203 417 l 1,15,16
 -160 418 -160 418 -136 452 c 0,17,18
 -117 479 -117 479 -117 508 c 0,19,20
 -117 553 -117 553 -176 577 c 0,21,22
 -227 598 -227 598 -310 598 c 0,23,24
 -389 598 -389 598 -443 577 c 0,25,26
 -506 552 -506 552 -509 508 c 0,27,28
 -509.25 504.5 -509.25 504.5 -509.25 501.09375 c 0,29,30
 -509.25 477.25 -509.25 477.25 -497 458 c 0,31,32
 -478 424 -478 424 -430 417 c 1,33,-1
 -430 396 l 1,0,1
EndSplineSet
Validated: 1
EndChar
StartChar: si_MatraIi
Encoding: 98 3539 188
Width: 8
GlyphClass: 2
Flags: HW
HStem: 429 28<-223.052 -144.725> 600 71<-446.946 -222.018>
VStem: -551 36<433.698 542.898> -282 38<472.796 555.747> -124 41<475.782 559.956>
LayerCount: 2
Back
Fore
SplineSet
-184 575 m 0
 -216 575 -244 550 -244 516 c 0
 -244 483 -218 457 -184 457 c 0
 -152 457 -124 482 -124 516 c 0
 -124 549 -150 575 -184 575 c 0
-310 600 m 0
 -408 600 -515 575 -515 492 c 0
 -515 456 -502 430 -477 415 c 1
 -477 388 l 1
 -522 401 -551 446 -551 505 c 0
 -551 626 -441 671 -311 671 c 0
 -196 671 -83 628 -83 524 c 0
 -83 472 -131 429 -184 429 c 0
 -234 429 -282 464 -282 515 c 0
 -282 552 -253 585 -221 591 c 1
 -243 597 -273 600 -310 600 c 0
EndSplineSet
EndChar
StartChar: si_MatraU
Encoding: 99 3540 190
Width: 8
GlyphClass: 2
Flags: HW
HStem: -235 32<-548.078 -109> -81 30<-545.342 -457.21>
VStem: -605 37<-185.477 -99.3864> -109 33<-202 149>
LayerCount: 2
Back
Fore
SplineSet
-498 -81 m 0
 -536 -81 -568 -104 -568 -142 c 0
 -568 -183 -541 -203 -488 -203 c 2
 -109 -202 l 1
 -109 149 l 1
 -76 206 l 1
 -76 -235 l 1
 -499 -235 l 2
 -560 -235 -605 -206 -605 -147 c 0
 -605 -90 -557 -51 -498 -51 c 0
 -457 -51 -428 -71 -410 -110 c 1
 -440 -122 l 1
 -450 -95 -469 -81 -498 -81 c 0
EndSplineSet
Substitution2: "Single Substitution lookup 14 subtable" si_MatraU.alt
Substitution2: "Single Substitution lookup 15 subtable" si_MatraAe
EndChar
StartChar: si_matraUu
Encoding: 108 3542 170
Width: 8
GlyphClass: 2
Flags: W
HStem: -236.029 45.0294<-525.311 -400.298> -146 28.3721<-298.585 -178.133> -68 28.1579<-528.68 -432.243>
VStem: -584.973 33.973<-167.703 -86.468> -106 30<-171 149>
LayerCount: 2
Back
Fore
SplineSet
-76 -232 m 1,0,-1
 -98 -232 l 1,1,2
 -111 -196 -111 -196 -155.5 -171 c 128,-1,3
 -200 -146 -200 -146 -241 -146 c 0,4,5
 -284 -146 -284 -146 -357 -190.5 c 128,-1,6
 -430 -235 -430 -235 -473 -236 c 0,7,8
 -474.617647059 -236.029411765 -474.617647059 -236.029411765 -476.214532872 -236.029411765 c 0,9,10
 -528.911764706 -236.029411765 -528.911764706 -236.029411765 -559 -204 c 0,11,12
 -584.972972973 -176.351351351 -584.972972973 -176.351351351 -584.972972973 -138.875091308 c 0,13,14
 -584.972972973 -131.621621622 -584.972972973 -131.621621622 -584 -124 c 0,15,16
 -579 -87 -579 -87 -551 -64.5 c 128,-1,17
 -523 -42 -523 -42 -484 -40 c 0,18,19
 -480.631578947 -39.8421052632 -480.631578947 -39.8421052632 -477.346260388 -39.8421052632 c 0,20,21
 -418.210526316 -39.8421052632 -418.210526316 -39.8421052632 -386 -91 c 1,22,-1
 -414 -101 l 1,23,24
 -434 -68 -434 -68 -479 -68 c 0,25,26
 -537 -68 -537 -68 -549 -113 c 0,27,28
 -551 -121 -551 -121 -551 -129 c 0,29,30
 -551 -157 -551 -157 -526 -175 c 0,31,32
 -504 -190 -504 -190 -475 -191 c 0,33,34
 -474.05 -191.025 -474.05 -191.025 -473.074375 -191.025 c 0,35,36
 -435.025 -191.025 -435.025 -191.025 -358 -153 c 0,37,38
 -286.348837209 -117.627906977 -286.348837209 -117.627906977 -240.198485668 -117.627906977 c 0,39,40
 -235.465116279 -117.627906977 -235.465116279 -117.627906977 -231 -118 c 0,41,42
 -157 -125 -157 -125 -106 -171 c 1,43,-1
 -106 149 l 1,44,-1
 -76 206 l 1,45,-1
 -76 -232 l 1,0,-1
EndSplineSet
Validated: 1
Substitution2: "Single Substitution lookup 14 subtable" si_MatraUu.alt
Substitution2: "Single Substitution lookup 15 subtable" si_MatraAee
EndChar
StartChar: si_MatraR
Encoding: 109 3544 195
Width: 312
GlyphClass: 2
Flags: W
HStem: -1.09524 30.0952<92.2722 188.044> 17 26<158.564 204.915> 194 28<110.271 201> 358 35<88.473 167.751>
VStem: 32.8689 23.7026<242 311.165> 33 31<57.4081 157.82> 201 62.0345<118.257 194 222 316.083> 202 45<40.6339 193.335>
LayerCount: 2
Back
Fore
SplineSet
201 194 m 1,0,1
 175 194 175 194 123 185 c 1,2,3
 75 171 75 171 66 129 c 0,4,5
 64 118 64 118 64 107 c 0,6,7
 64 75 64 75 83 52.5 c 128,-1,8
 102 30 102 30 133 29 c 0,9,10
 147 29 147 29 168 36 c 128,-1,11
 189 43 189 43 195 43 c 128,-1,12
 201 43 201 43 205 40 c 1,13,14
 202 60 202 60 202 116.5 c 128,-1,15
 202 173 202 173 201 194 c 1,0,1
57 242 m 1,16,-1
 33 242 l 1,17,18
 32.868852459 246.262295082 32.868852459 246.262295082 32.868852459 250.429991938 c 0,19,20
 32.868852459 309.819672131 32.868852459 309.819672131 59.5 350 c 0,21,22
 88 393 88 393 143 393 c 0,23,24
 204 393 204 393 236 328 c 0,25,26
 263.034482759 274.896551724 263.034482759 274.896551724 263.034482759 196.623067776 c 0,27,28
 263.034482759 193.827586207 263.034482759 193.827586207 263 191 c 0,29,30
 263 157 263 157 255 100.5 c 128,-1,31
 247 44 247 44 247 24 c 0,32,33
 247 12 247 12 248 3 c 1,34,-1
 217 3 l 1,35,36
 213 17 213 17 202 17 c 0,37,38
 196 17 196 17 169 7.5 c 0,39,40
 144.571428571 -1.09523809524 144.571428571 -1.09523809524 125.873015873 -1.09523809524 c 0,41,42
 123.904761905 -1.09523809524 123.904761905 -1.09523809524 122 -1 c 0,43,44
 94 1 94 1 69 22.5 c 128,-1,45
 44 44 44 44 37 73 c 0,46,47
 33 90 33 90 33 107 c 0,48,49
 33 176 33 176 99 205 c 0,50,51
 138 222 138 222 201 222 c 1,52,53
 191 358 191 358 133 358 c 0,54,55
 93 358 93 358 72 319 c 0,56,57
 56.5714285714 289.857142857 56.5714285714 289.857142857 56.5714285714 254.102040816 c 0,58,59
 56.5714285714 248.142857143 56.5714285714 248.142857143 57 242 c 1,16,-1
EndSplineSet
Validated: 1
EndChar
StartChar: si_MatraE
Encoding: 102 3545 195
Width: 603
GlyphClass: 2
Flags: HW
HStem: -0.0240964 71.0008<171.375 384.288> 166 32<251.305 332.316> 292 30.4717<249.801 322.561> 403 29<207.279 390.721>
VStem: 33 44.1899<158.872 303.856> 202.965 33.0351<211.586 279.246> 345 34<210.718 279.174> 455 36.5496<132.975 238.86> 555 29<206 258.879>
LayerCount: 2
Back
Fore
SplineSet
289 292 m 0
 260.680689331 292 236 273.820295159 236 246 c 0
 236 215.815814058 262.389115752 198 293 198 c 0
 323.400642324 198 345 216.074259066 345 244 c 0
 345 272.296189047 320.709400623 292 289 292 c 0
269.079837422 -0.0240963855422 m 0
 136.042908404 -0.0240963855422 33 81.6250025289 33 212 c 0
 33 280 61.3333333333 334.666666667 118 376 c 0
 169.333333333 413.333333333 230.333333333 432 301 432 c 0
 448.707025307 432 571.822206459 339.955728947 584 206 c 1
 555 206 l 1
 549.666666667 258.666666667 522.333333333 304.666666667 473 344 c 128
 423.666666667 383.333333333 366.333333333 403 301 403 c 0
 193.95009907 403 77.1898734177 343.634066781 77.1898734177 241.520589649 c 0
 77.1898734177 135.57644236 163.289522145 70.976744186 270.292861006 70.976744186 c 0
 361.637017031 70.976744186 455 104.708223839 455 189 c 0
 455 243.911166831 408.951991218 277.675811197 360 287 c 1
 372.666666667 273 379 258 379 242 c 0
 379 198.092291086 334.447069422 166 289 166 c 0
 244.88594097 166 202.964912281 200.630925972 202.964912281 244.302862419 c 0
 202.964912281 296.678629278 257.107490566 322.471698113 311.271448914 322.471698113 c 0
 400.190385694 322.471698113 491.549618321 260.486805837 491.549618321 174.465007867 c 0
 491.549618321 170.36874308 491.366412214 166.213740458 491 162 c 0
 481.120481928 53.983935743 407.147094402 -0.0240963855422 269.079837422 -0.0240963855422 c 0
EndSplineSet
EndChar
StartChar: si_MatraLs
Encoding: 108 3551 203
Width: 441
GlyphClass: 2
Flags: HW
HStem: -2 27.9655<195.32 276.055> 211.933 25.0667<96.6582 168.95> 408.067 23.9333<213.505 282.814>
VStem: 33 29<271.029 395.725> 134 27<65.7863 157> 165.342 27.484<337.189 389.783> 186 43<249.259 333.089> 323.178 69.8545<103.058 343.92>
LayerCount: 2
Back
Fore
SplineSet
62 322 m 0xfb
 62 298.666666667 69 278.666666667 83 262 c 128
 97 245.333333333 115.333333333 237 138 237 c 0
 152 237 163.5 242.166666667 172.5 252.5 c 128
 181.5 262.833333333 186 275.333333333 186 290 c 0
 186 307.333333333 179.333333333 323 166 337 c 0
 165.561403509 341.035087719 165.342105263 344.977839335 165.342105263 348.828254848 c 0
 165.342105263 374.24099723 174.894736842 395.631578947 194 413 c 0
 208 425.666666667 233.333333333 432 270 432 c 0
 310 432 341.333333333 408.666666667 364 362 c 0
 383.35483871 322.64516129 393.032258065 277.046826222 393.032258065 225.204994797 c 0
 393.032258065 223.47693375 393.021505377 221.741935484 393 220 c 0
 392.333333333 161.333333333 379.666666667 111.333333333 355 70 c 0
 327 22 288.333333333 -2 239 -2 c 0
 207.666666667 -2 182.333333333 9.66666666667 163 33 c 128
 143.666666667 56.3333333333 134 85.3333333333 134 120 c 0
 134 132 135.333333333 144.333333333 138 157 c 1
 164 157 l 1
 162 146.333333333 161 135.666666667 161 125 c 0
 161 95.6666666667 168.166666667 71.6666666667 182.5 53 c 0
 196.33908046 34.9770114943 214.994649227 25.9655172414 238.466706302 25.9655172414 c 0
 239.304994055 25.9655172414 240.149425287 25.9770114943 241 26 c 0
 295.785185185 27.9111111111 323.177777778 92.5208230451 323.177777778 219.829135802 c 0
 323.177777778 225.750452675 323.118518519 231.807407407 323 238 c 0
 321 350 298.333333333 406.666666667 255 408 c 0
 253.844444445 408.044444445 252.702222222 408.066666667 251.573333333 408.066666667 c 0
 235.768888889 408.066666667 222.577777778 403.711111111 212 395 c 0
 199.217391305 384.652173913 192.826086957 369.302457467 192.826086957 348.950850662 c 0
 192.826086957 347.012602395 192.884057971 345.028985507 193 343 c 0
 217 330.333333333 229 312 229 288 c 0
 229 280.666666667 227.666666667 273.333333333 225 266 c 0
 219.666666667 248 208 234.333333333 190 225 c 0
 173.2 216.288888889 155.238518519 211.933333333 136.115555556 211.933333333 c 0
 134.74962963 211.933333333 133.377777778 211.955555555 132 212 c 0
 102.666666667 212.666666667 78.8333333333 223.5 60.5 244.5 c 128
 42.1666666667 265.5 33 291 33 321 c 0
 33 369.666666667 45.3333333333 405.333333333 70 428 c 1
 105 428 l 1
 76.3333333333 410 62 374.666666667 62 322 c 0xfb
EndSplineSet
EndChar
StartChar: si_MatraLl
Encoding: 110 3571 204
Width: 430
GlyphClass: 2
Flags: HW
HStem: -2 145<173.658 274> 211.933 25.0667<96.6582 168.95> 408.067 23.9333<213.505 282.814>
VStem: 33 29<271.029 395.725> 152 145<64.4541 120.826> 165.342 27.484<337.189 389.783> 186 43<249.259 333.089> 323.178 69.8545<103.761 343.92>
LayerCount: 2
Back
Fore
SplineSet
163 33 m 1029,0,-1
152 70 m 128,-1,2
 152 90 159 107.166666667 173 121.5 c 128,-1,3
 187 135.833333333 204 143 224 143 c 128,-1,4
 244 143 261.166666667 135.833333333 275.5 121.5 c 128,-1,5
 289.833333333 107.166666667 297 90 297 70 c 0,6,7
 297 67.8828572971 296.919692247 65.7993317932 296.759076741 63.7494234881 c 1,8,9
 314.371544098 95.61950384 323.177777777 147.646074611 323.177777778 219.829135802 c 0,10,11
 323.177777778 225.750452675 323.118518519 231.807407407 323 238 c 0,12,13
 321 350 298.333333333 406.666666667 255 408 c 0,14,15
 253.844444445 408.044444445 252.702222222 408.066666667 251.573333333 408.066666667 c 0,16,17
 235.768888889 408.066666667 222.577777778 403.711111111 212 395 c 0,18,19
 199.217391305 384.652173913 192.826086957 369.302457467 192.826086957 348.950850662 c 0,20,21
 192.826086957 347.012602395 192.884057971 345.028985507 193 343 c 0,22,23
 217 330.333333333 229 312 229 288 c 0,24,25
 229 280.666666667 227.666666667 273.333333333 225 266 c 0,26,27
 219.666666667 248 208 234.333333333 190 225 c 0,28,29
 173.2 216.288888889 155.238518519 211.933333333 136.115555556 211.933333333 c 0,30,31
 134.74962963 211.933333333 133.377777778 211.955555555 132 212 c 0,32,33
 102.666666667 212.666666667 78.8333333333 223.5 60.5 244.5 c 128,-1,34
 42.1666666667 265.5 33 291 33 321 c 0,35,36
 33 369.666666667 45.3333333333 405.333333333 70 428 c 1,37,-1
 105 428 l 1,38,39
 76.3333333333 410 62 374.666666667 62 322 c 0,40,41
 62 298.666666667 69 278.666666667 83 262 c 128,-1,42
 97 245.333333333 115.333333333 237 138 237 c 0,43,44
 152 237 163.5 242.166666667 172.5 252.5 c 128,-1,45
 181.5 262.833333333 186 275.333333333 186 290 c 0,46,47
 186 307.333333333 179.333333333 323 166 337 c 0,48,49
 165.561403509 341.035087719 165.342105263 344.977839335 165.342105263 348.828254848 c 0,50,51
 165.342105263 374.24099723 174.894736842 395.631578947 194 413 c 0,52,53
 208 425.666666667 233.333333333 432 270 432 c 0,54,55
 310 432 341.333333333 408.666666667 364 362 c 0,56,57
 383.35483871 322.64516129 393.032258065 277.046826222 393.032258065 225.204994797 c 0,58,59
 393.032258065 223.47693375 393.021505377 221.741935484 393 220 c 0,60,61
 392.333333333 161.333333333 379.666666667 111.333333333 355 70 c 0,62,63
 327 22 288.333333333 -2 239 -2 c 0,64,65
 236.18708768 -2 233.423491279 -1.90958656126 230.709210796 -1.72875968378 c 0,66,67
 228.509403503 -1.90958816261 226.272999904 -2.00000160135 224 -2 c 0,68,69
 204 -2 187 5 173 19 c 128,-1,1
 159 33 152 50 152 70 c 128,-1,2
EndSplineSet
EndChar
StartChar: si_kundaliya
Encoding: 111 3572 2
Width: 1208
GlyphClass: 2
Flags: HW
HStem: 0 45<222.275 275.168> 23 48<1144.08 1196.28>
VStem: 142 80<43.0703 78.5947> 382 29<233.854 271> 532 27<366.094 393> 969 60<152 214.316> 1199 80<72.4091 127.489>
LayerCount: 2
Back
Fore
SplineSet
516 269 m 1
 488 202 459 122 423 62 c 1
 395 62 l 1x7e
 393 88 381 134 373 154 c 1
 357 118 342 90 328 69 c 128
 301.633205245 29.4498078674 282.27026991 0 225 0 c 0
 185 0 158 23 147 51 c 128
 144 60 142 67 142 73 c 0
 142 102 158 127 188 127 c 0
 214 127 232 105 232 79 c 0
 232 70 230 63 227 57 c 0
 224 50 222 46 222 43 c 1
 223 44 227 45 232 45 c 0xbe
 245 45 261 53 279 70 c 1
 279 69 l 1
 301 91 322 134 338 166 c 128
 354 198 370 239 382 271 c 1
 411 271 l 1
 411 246 419 217 425 195 c 128
 428 185 430 177 433 170 c 1
 447 199 458 229 471 259 c 0
 489 299 512 355 532 393 c 1
 559 393 l 1
 559 355 571 315 580 282 c 128
 585 264 589 249 594 234 c 1
 630 305 672 387 718 448 c 1
 750 448 l 1
 745 434 744 433 744 424 c 2
 744 413 l 2
 744 359.092086427 749.089817802 296.371275386 756 248 c 1
 797 298 840 358 885 404 c 128
 895 414 903 420 908 422 c 1
 932 422 l 1
 922 360 914 282 910 215 c 1
 916 221 l 1
 916 220 l 1
 946 251 989 295 1025 319 c 1
 1057 319 l 1
 1042 273 1031 212 1029 152 c 1
 1050 169 1069 182 1086 190 c 128
 1103 198 1116 202 1123 202 c 1
 1131 160 1129 106 1153 80 c 128
 1158 74 1165 71 1174 71 c 0
 1186 71 1199 72 1199 79 c 0
 1199 88 1190 105 1190 111 c 0
 1190 136 1205 157 1230 157 c 128
 1261 157 1279 136 1279 100 c 0
 1279 62 1249 41 1219 30 c 128
 1206 25 1190 23 1172 23 c 0
 1103 23 1080 69 1075 132 c 1
 1051 118 1029 91 1012 70 c 128
 1006 63 1002 57 1000 53 c 1
 971 53 l 1
 970 66 968 101 968 116 c 0
 968 149 969 185 972 215 c 1
 944 187 914 153 887 123 c 128
 878 112 870 103 864 94 c 1
 837 94 l 1
 851 303 l 1
 809 256 762 189 727 137 c 1
 702 137 l 1
 683 319 l 1
 653 270 621 202 598 146 c 128
 590 128 585 114 583 105 c 1
 556 105 l 1
 553 113 548 140 546 150 c 0
 539 183 526 239 516 269 c 1
EndSplineSet
EndChar
StartChar: zwnj
Encoding: 120 8204 224
Width: 22
GlyphClass: 2
Flags: W
VStem: -9 40<-226 639>
LayerCount: 2
Back
Fore
SplineSet
31 -226 m 1,0,-1
 -9 -226 l 1,1,-1
 -9 639 l 1,2,-1
 31 639 l 1,3,-1
 31 -226 l 1,0,-1
EndSplineSet
Validated: 1
EndChar
StartChar: zwj
Encoding: 113 8205 0
Width: 21
GlyphClass: 2
Flags: HW
VStem: -9 39<-226 509>
LayerCount: 2
Back
Fore
SplineSet
-21 560 m 1
 -35.9887590527 574.988759053 -56.2623805411 596.262380542 -71 611 c 1
 -40 642 l 1
 11 592 l 1
 60 641 l 1
 93 612 l 1
 42 560 l 1
 93 510 l 1
 61 478 l 1
 30 509 l 1
 30 -226 l 1
 -9 -226 l 1
 -9 509 l 1
 -20.5224837276 498.757792243 -29.7117362872 487.87723075 -41 478 c 1
 -69 512 l 1
 -21 560 l 1
EndSplineSet
EndChar
StartChar: short_dash2
Encoding: 114 8208 214
Width: 344
GlyphClass: 2
Flags: HW
HStem: 187 47<43 271>
VStem: 43 228<187 234>
LayerCount: 2
Back
Fore
SplineSet
43 234 m 1
 271 234 l 1
 271 187 l 1
 43 187 l 1
 43 234 l 1
EndSplineSet
Validated: 1
EndChar
StartChar: finedash
Encoding: 123 8211 211
Width: 238
GlyphClass: 2
Flags: W
HStem: -2 18<37 177>
VStem: 37 140<-2 16>
LayerCount: 2
Back
Fore
SplineSet
37 16 m 1,0,-1
 177 16 l 1,1,-1
 177 -2 l 1,2,-1
 37 -2 l 1,3,-1
 37 16 l 1,0,-1
EndSplineSet
Validated: 1
EndChar
StartChar: quoteleft
Encoding: 116 8216 229
Width: 238
GlyphClass: 2
Flags: HW
HStem: 573.5 79.5<109.16 160.99>
VStem: 62 40<506.43 616.5>
LayerCount: 2
Back
Fore
SplineSet
119 653 m 0
 144.602154672 653 168 633.459415479 168 609 c 0
 168 588.519986655 150.281620663 574.72112155 134 573.5 c 128
 110.526935364 571.739520152 102 561.205284332 102 541 c 0
 102 520.333333333 116.666666667 496 146 468 c 1
 116 468 l 1
 80.3865512106 497.677873991 62 528.081134256 62 580 c 0
 62 628.666666667 81 653 119 653 c 0
EndSplineSet
EndChar
StartChar: quoteright
Encoding: 117 8217 226
Width: 238
GlyphClass: 2
Flags: HW
HStem: 574 80<68.0004 118.84>
VStem: 126 41<503.596 595>
LayerCount: 2
Back
Fore
SplineSet
167 580 m 0
 167 527 147 492 112 468 c 1
 84 468 l 1
 112 497 126 521 126 540 c 0
 126 561 117 572 94 574 c 128
 78 575 61 589 61 609 c 0
 61 633 84 654 109 654 c 0
 147 654 167 621 167 580 c 0
EndSplineSet
EndChar
StartChar: dblquote_left
Encoding: 118 8220 245
Width: 365
GlyphClass: 2
Flags: HW
HStem: 573.5 79.5<109.16 160.99 249.16 300.326>
VStem: 62 40<506.43 616.5> 202 40<506.312 616.5>
LayerCount: 2
Back
Fore
SplineSet
259 653 m 0
 284.080375262 653 307 633.731429514 307 610 c 0
 307 588.941359361 289.955221148 574.765786242 273.5 573.5 c 128
 250.064087261 571.697237482 242 560.692568669 242 540 c 0
 242 520.666666667 256.333333333 496.666666667 285 468 c 1
 256 468 l 1
 220.475948046 496.757565868 202 527.95344342 202 580 c 0
 202 628.666666667 221 653 259 653 c 0
119 653 m 0
 144.602154672 653 168 633.459415479 168 609 c 0
 168 588.519986655 150.281620663 574.72112155 134 573.5 c 128
 110.526935364 571.739520152 102 561.205284332 102 541 c 0
 102 520.333333333 116.666666667 496 146 468 c 1
 116 468 l 1
 80.3865512106 497.677873991 62 528.081134256 62 580 c 0
 62 628.666666667 81 653 119 653 c 0
EndSplineSet
EndChar
StartChar: dblquote_right
Encoding: 119 8221 244
Width: 365
GlyphClass: 2
Flags: HW
HStem: 574 80<68.0004 118.84 207.674 258.84>
VStem: 126 41<503.596 595> 266 40<505.68 616.5>
LayerCount: 2
Back
Fore
SplineSet
167 580 m 0
 167 527 147 492 112 468 c 1
 84 468 l 1
 112 497 126 521 126 540 c 0
 126 561 117 572 94 574 c 128
 78 575 61 589 61 609 c 0
 61 633 84 654 109 654 c 0
 147 654 167 621 167 580 c 0
306 580 m 0
 306 528 286 495 252 468 c 1
 222 468 l 1
 251 496 266 520 266 541 c 0
 266 561 257 572 234 574 c 128
 218 575 201 589 201 610 c 0
 201 634 224 654 249 654 c 0
 287 654 306 629 306 580 c 0
EndSplineSet
EndChar
StartChar: uni25CC
Encoding: 120 9676 1
Width: 471
VWidth: 2048
GlyphClass: 2
Flags: HW
HStem: 0 64<211.949 264.051> 12 65<150.949 202.086 273.949 326.051> 47 64<110.234 151.051 326.798 365.439> 100 65<90 102.568 374.432 387> 162 64<49.9141 75> 223 65<90 103.843 371.251 387> 277 63<109.127 151.173 325.827 367.873> 312 64<150.949 202.086 273.949 326.051> 324 64<211.949 264.051>
VStem: 49 55<165.192 222.809> 62 54<108.283 161.777 226.161 279.717> 97 55<47.5 101.748 284.252 339.5> 150 53<12.3948 76.6052 312.371 375.605> 211 54<0.394775 63.6292 324.395 387.629> 273 54<12.3828 76.6052 312.371 375.605> 326 54<47.3828 102.717 283.283 339.629> 361 55<108.125 161.777 226.192 280.656> 373 55<165.192 222.809>
LayerCount: 2
Back
Fore
SplineSet
368 317 m 0x0004
 368 305 363 299 351 299 c 0
 339 299 332 305 332 317 c 0
 332 329 339 335 351 335 c 0
 363 335 368 329 368 317 c 0x0004
404 262 m 0
 404 249 397 243 385 243 c 0
 373 243 368 249 368 262 c 0
 368 274 374 280 386 280 c 0
 398 280 404 274 404 262 c 0
315 353 m 0
 315 341 309 335 297 335 c 0
 285 335 279 341 279 353 c 0
 279 366 285 372 297 372 c 0
 309 372 315 366 315 353 c 0
416 198 m 256
 416 186 410 180 398 180 c 0
 386 180 380 186 380 198 c 256
 380 210 386 216 398 216 c 0
 410 216 416 210 416 198 c 256
252 367 m 0
 252 354 247 348 235 348 c 256
 223 348 218 354 218 367 c 0
 218 379 223 385 235 385 c 256
 247 385 252 379 252 367 c 0
404 133 m 0
 404 121 397 115 385 115 c 0
 373 115 368 121 368 133 c 0
 368 146 373 152 385 152 c 0
 397 152 404 146 404 133 c 0
191 353 m 0
 191 341 185 335 173 335 c 0
 161 335 156 341 156 353 c 0
 156 366 161 372 173 372 c 0
 185 372 191 366 191 353 c 0
368 78 m 0
 368 66 363 60 351 60 c 0
 339 60 333 66 333 78 c 0
 333 90 339 97 351 97 c 0
 363 97 368 90 368 78 c 0
138 317 m 0
 138 305 132 299 120 299 c 0
 108 299 103 305 103 316 c 0
 103 329 108 335 120 335 c 0
 132 335 138 329 138 317 c 0
315 42 m 0
 315 30 309 24 297 24 c 0
 285 24 280 30 280 42 c 0
 280 55 285 61 297 61 c 0
 309 61 315 55 315 42 c 0
103 262 m 0
 103 249 97 243 86 243 c 0
 74 243 68 249 68 262 c 0
 68 274 73 280 85 280 c 0
 97 280 103 274 103 262 c 0
90 198 m 256
 90 186 85 180 73 180 c 0
 61 180 55 186 55 198 c 256
 55 210 61 216 73 216 c 0
 85 216 90 210 90 198 c 256
252 29 m 0
 252 16 247 10 235 10 c 256
 223 10 218 16 218 29 c 0
 218 41 223 47 235 47 c 256
 247 47 252 41 252 29 c 0
191 43 m 0
 191 30 185 24 173 24 c 0
 161 24 156 30 156 42 c 0
 156 55 161 61 173 61 c 0
 185 61 191 55 191 43 c 0
103 133 m 0
 103 121 97 115 85 115 c 0
 73 115 68 121 68 133 c 0
 68 146 73 152 85 152 c 0
 97 152 103 146 103 133 c 0
138 78 m 0
 138 66 133 60 121 60 c 0
 109 60 103 66 103 78 c 0
 103 90 108 97 120 97 c 0
 132 97 138 90 138 78 c 0
EndSplineSet
EndChar
StartChar: kna_unused
Encoding: 246 -1 205
Width: 113
GlyphClass: 2
Flags: HW
HStem: 0 21G<108 135> 406 26<150.109 273.476>
VStem: 27 30<122.322 309.491>
LayerCount: 2
Back
Fore
SplineSet
135 0 m 1
 68 33 27 119 27 221 c 0
 27 307 55 359 102 398 c 128
 134 424 160 432 206 432 c 0
 234 432 258 428 279 419 c 1
 270 396 l 1
 247 403 227 406 208 406 c 0
 165 406 127 387 95 349 c 0
 70 320 57 276 57 218 c 0
 57 137 83 74 135 29 c 1
 135 0 l 1
EndSplineSet
EndChar
StartChar: knaasi_bandi
Encoding: 219 -1 125
Width: 497
GlyphClass: 2
Flags: HW
HStem: 0 70<128.012 267.545 356.634 495.814> 219.933 28.7262<175.626 326.09> 234 29<118.971 275.63> 271.837 29.1633<119.954 190.045> 399 33.4464<119.694 203.951> 407 25<213 275.207> 558 24<225.356 381.139>
VStem: 50 38<110.642 209.01> 70 35<314.206 385.279> 205 36<313.812 386.164> 299 27<106.388 177> 341 31.4324<262.217 357.273> 565.444 32.6692<167.951 371.719>
LayerCount: 2
Back
Fore
SplineSet
156 399 m 0
 128.781993849 399 105 377.975183249 105 351 c 0x9af8
 105 322.881939822 126.506669597 301 154 301 c 0
 182.613619282 301 205 321.662665533 205 350 c 128
 205 377.29017486 182.967277679 399 156 399 c 0
326 144 m 2
 326 97.7838629517 376.835658482 70 427 70 c 0
 475.666666667 70 512.333333333 93.3333333333 537 140 c 0
 555.962962963 175.555555555 565.444444444 217.958847736 565.444444444 267.209876543 c 0
 565.444444444 354.15958963 539.302726611 420.375430691 486 478 c 128
 436.666666667 531.333333333 376.333333333 558 305 558 c 0
 225.666666667 558 159 528 105 468 c 1xb6f8
 73 468 l 1
 132.333333333 544 210.666666667 582 308 582 c 0
 386.666666667 582 453.666666667 553 509 495 c 0
 570.847267177 431.625639807 598.113636364 358.411508521 598.113636364 254.880681818 c 0
 598.113636364 194.475378788 587.742424243 141.848484849 567 97 c 0
 537.666666667 32.3333333333 492.333333333 0 431 0 c 0
 369.285699916 0 344.342973795 21.3884314468 313 59 c 1
 281.760822017 19.6114712393 243.969886748 -0.0224719101124 197.178386567 -0.0224719101124 c 0
 117.574169532 -0.0224719101124 50 66.1095595642 50 144 c 0xb778
 50 215.080119177 101.736967706 263 174 263 c 0
 200.163314053 263 263.366960659 248.659574468 285.021276596 248.659574468 c 0
 323.882772399 248.659574468 341 269.326827701 341 308 c 0
 341 369.121775296 277.682568831 407 213 407 c 1
 231.666666667 394.333333333 241 374 241 346 c 0
 241 305.104136311 201.519193001 271.836734694 158.81091212 271.836734694 c 0
 109.508740283 271.836734694 70 303.065501813 70 350 c 0xb6f8
 70 362.666666667 73.3333333333 374.666666667 80 386 c 0
 98.214285714 416.964285714 136.61065051 432.446428571 195.189094388 432.446428571 c 0
 294.448533542 432.446428571 372.432432432 395.616787162 372.432432432 302.681519357 c 0
 372.432432432 242.021663767 340.165307432 219.933333333 276.644444444 219.933333333 c 0
 254.97037037 219.933333333 235.088888889 222.622222222 217 228 c 0
 203.666666667 232 190 234 176 234 c 0
 135.333333333 234 108.666666667 220.333333333 96 193 c 0
 90.6666666667 182.333333333 88 171.333333333 88 160 c 0xb778
 88 107.004507063 142.188215656 71 198 71 c 0
 247.067785332 71 299 96.1622031034 299 144 c 2
 299 177 l 1
 326 177 l 1
 326 144 l 2
EndSplineSet
Ligature2: "'akhn' Akhand in Sinhala lookup 3 subtable" si_Nga zwj si_Halant
EndChar
StartChar: reph.yansa
Encoding: 195 -1 76
Width: 544
GlyphClass: 2
Flags: HW
HStem: -0.970874 71.9709<218.045 399.251> 406 26<35.812 129.817 306.158 402.09> 446 33<200.434 290.455> 543 30.25<235.201 289.875> 602 29.7812<192.946 328.398>
VStem: 117 36<490.506 572.169> 186 30.7778<178.572 343.289> 195.265 34.7353<483.135 538.728> 249 31<318.872 386.111> 295 31<484.341 537.883> 365.273 32.7273<465.273 568.541> 430 31<321 381.616> 456 40.7101<126.479 243.129>
LayerCount: 2
Back
Fore
SplineSet
263 543 m 128
 245.849032996 543 230 528.176469203 230 511 c 128xfce0
 230 494.355397044 245.664989874 479 262 479 c 0
 279.150967004 479 295 493.823530797 295 511 c 128
 295 528.177019338 280.176469203 543 263 543 c 128
264 602 m 0
 210.514319824 602 153 579.880432565 153 531 c 0
 153 496.773836067 182.510044189 474.570471981 220 471 c 1
 203.509803921 480.098039216 195.264705882 493.803633218 195.264705882 512.116782007 c 0
 195.264705882 547.877585472 222.461786612 573.25 257.8359375 573.25 c 0
 302.850697464 573.25 326 550.743381934 326 510 c 0
 326 465.275299675 282.61981622 446 234 446 c 0
 177.729197902 446 117 474.733956452 117 526 c 0
 117 562 134.666666667 589.666666667 170 609 c 0
 197.5625 624.1875 229.159179687 631.78125 264.790039062 631.78125 c 0
 310.004685049 631.78125 340.290255042 620.414889253 366 593.5 c 128
 387.333333333 571.166666667 398 546 398 518 c 0
 398 494 389.666666667 472.333333333 373 453 c 1
 338 453 l 1
 356.181818182 469.96969697 365.272727273 490.245179064 365.272727273 513.826446281 c 0
 365.272727273 573.090450239 328.759989815 602 264 602 c 0
186 268 m 0xfef0
 186 338.165658038 149.042225734 406 84 406 c 0
 68.6666666667 406 52.3333333333 402.333333333 35 395 c 1
 35 422 l 1
 52.3333333333 428.666666667 69.3333333333 432 86 432 c 0
 169.804574046 432 216.777777778 351.885719984 216.777777778 265.037037037 c 0
 216.777777778 209.530864198 200.185185185 157.185185185 167 108 c 1
 206.333333333 83.3333333333 251.666666667 71 303 71 c 0
 359.948896163 71 394.424849729 82.3985972242 426 114.5 c 128
 446 134.833333333 456 158.666666667 456 186 c 0xfee8
 456 244.715373201 419.509207293 273.518888802 360 279 c 0
 327.333333333 282.333333333 310 284 308 284 c 0
 273.349099044 290.41683351 249 311.078314249 249 348 c 0
 249 405.81333606 296.161161653 432.142857143 360.492346939 432.142857143 c 0
 416.056879832 432.142857143 461 394.993053712 461 341 c 0
 461 334.333333333 460.333333333 327.666666667 459 321 c 1
 428 321 l 1
 429.333333333 327 430 333 430 339 c 0
 430 378.094239242 398.296984727 407 358 407 c 0
 321.638497608 407 280 388.373619305 280 353 c 0
 280 317.295937187 300.147409097 309.714032828 349 307 c 0
 391.666666667 303.666666667 422.333333333 295.333333333 441 282 c 0
 478.140096619 255.043478261 496.710144928 215.97605545 496.710144928 164.797731569 c 0
 496.710144928 62.0085573732 412.610259729 -0.970873786408 308.928174192 -0.970873786408 c 0
 241.908096899 -0.970873786408 187.932038835 27.0194174757 147 83 c 1
 115.985348229 47.9399588666 71.9292388105 14.8888713798 29 1 c 1
 12 19 l 1
 99.8512087632 52.9691340551 186 144.767875935 186 268 c 0xfef0
EndSplineSet
Ligature2: "'abvs' Above Base Substitutions in Sinhala lookup 8 subtable" si_reph si_yansa
EndChar
StartChar: si_BI
Encoding: 174 -1 55
Width: 619
GlyphClass: 2
Flags: HW
HStem: -2 66<309.749 423.133> -1.42857 27.4286<115.093 182.754> 122 29<114.271 182.773> 320.036 75.9636<143.74 344.807> 475 29<146.167 422.99> 611 59.463<135.914 452.848>
VStem: 33 29<96.7656 227.481> 67 43<523.111 587.056> 80 20<88 103.663> 198 31.6275<39.7215 108.178> 273 31<71.4885 131.976> 387.632 35.3684<194.157 280.658> 497 47<509.187 577.906> 527.114 48.9283<188.706 372.532>
LayerCount: 2
Back
Fore
SplineSet
302 504 m 0x3f78
 352.666666667 501.333333333 391 497.333333333 417 492 c 1
 443 493.333333333 463.333333333 499.333333333 478 510 c 0
 490.666666667 519.333333333 497 530.666666667 497 544 c 0
 497 552 494.333333333 559.333333333 489 566 c 0
 463.666666667 596 396 611 286 611 c 0
 221.333333333 611 174.333333333 605.333333333 145 594 c 0
 121.666666667 584.666666667 110 572 110 556 c 0
 110 536 121 523.666666667 143 519 c 0
 172.333333333 512.333333333 225.333333333 507.333333333 302 504 c 0x3f78
493 414 m 0
 475.666666667 436.666666667 452 452.333333333 422 461 c 0
 398.666666667 468.333333333 362.666666667 473 314 475 c 0
 248 478.333333333 192.666666667 483 148 489 c 0
 108.666666667 494.333333333 83.6666666667 509 73 533 c 0
 69 543 67 553 67 563 c 0xbf70
 67 580.333333333 73 596.666666667 85 612 c 0
 105.666666667 638 139.666666667 655 187 663 c 0
 205 666.333333333 237 668.666666667 283 670 c 0
 293.12345679 670.308641975 302.943987197 670.462962963 312.461591221 670.462962963 c 0
 405.734110654 670.462962963 469.913580247 655.641975309 505 626 c 0
 531 604 544 579.333333333 544 552 c 0
 544 545.333333333 543.333333333 539 542 533 c 0
 538.666666667 521 528.833333333 509.166666667 512.5 497.5 c 128
 496.166666667 485.833333333 479.333333333 478.666666667 462 476 c 1
 502 456 532.333333333 422.666666667 553 376 c 0
 565.666666667 346.666666667 573 318.333333333 575 291 c 0
 575.695035461 281.567375887 576.042553191 272.208691716 576.042553191 262.923947488 c 0
 576.042553191 209.868266184 564.695035461 159.226950355 542 111 c 0
 512.666666667 48.3333333333 473 12 423 2 c 0
 407.666666667 -0.666666666667 393.666666667 -2 381 -2 c 0
 350.333333333 -2 324.666666667 6.66666666667 304 24 c 128
 283.333333333 41.3333333333 273 64.6666666667 273 94 c 0
 273 120 283 140 303 154 c 1
 321 163.333333333 338.833333333 173.166666667 356.5 183.5 c 128
 374.166666667 193.833333333 384.333333333 209.666666667 387 231 c 0
 387.421052631 234.157894737 387.631578947 237.238227147 387.631578947 240.24099723 c 0
 387.631578947 265.764542936 372.421052631 285.684210526 342 300 c 0
 315.333333333 312.666666667 281 319.333333333 239 320 c 0
 237.593939394 320.024242424 236.193829201 320.036363636 234.799669421 320.036363636 c 0
 197.854435262 320.036363636 165.087878788 311.524242424 136.5 294.5 c 0
 106.833333333 276.833333333 85.6666666667 252.333333333 73 221 c 0
 65.6666666667 203.666666667 62 185.333333333 62 166 c 0
 62 140 68 114 80 88 c 1
 80 105.333333333 84 118.333333333 92 127 c 0
 106.666666667 143 127 151 153 151 c 0
 197 151 222.333333333 127 229 79 c 0
 229.418300653 75.7581699347 229.62745098 72.5819556581 229.62745098 69.4713571703 c 0
 229.62745098 52.7518902986 223.58496732 37.9281045751 211.5 25 c 0
 197.166666667 9.66666666667 178.666666667 1 156 -1 c 0
 152.714285714 -1.28571428571 149.489795918 -1.42857142857 146.326530612 -1.42857142857 c 0
 105.204081633 -1.42857142857 74.4285714286 22.7142857143 54 71 c 0
 40 104.333333333 33 143 33 187 c 0
 33 250.333333333 52.6666666667 301 92 339 c 128
 131.333333333 377 183 396 247 396 c 0
 293 396 332.666666667 384.666666667 366 362 c 0
 404 336.666666667 423 301.666666667 423 257 c 0
 423 250.333333333 422.666666667 243.666666667 422 237 c 0
 418 205 405 181 383 165 c 1
 358 153 358 153 333 141 c 0
 313.666666667 131 304 117.666666667 304 101 c 0
 304 76.3333333333 319.666666667 64 351 64 c 0xbef8
 364.333333333 64 379.666666667 67 397 73 c 0
 439 88.3333333333 472 119.666666667 496 167 c 0
 516.742857143 208.485714286 527.114285714 253.527346939 527.114285714 302.124897959 c 0
 527.114285714 305.070204082 527.076190476 308.028571429 527 311 c 0
 525.666666667 352.333333333 514.333333333 386.666666667 493 414 c 0
100 75 m 0x3ef0
 100 61 104.666666667 49.3333333333 114 40 c 128
 123.333333333 30.6666666667 135 26 149 26 c 0
 162.333333333 26 173.833333333 30.6666666667 183.5 40 c 128
 193.166666667 49.3333333333 198 60.6666666667 198 74 c 128
 198 87.3333333333 193.166666667 98.6666666667 183.5 108 c 128
 173.833333333 117.333333333 162.333333333 122 149 122 c 128
 135.666666667 122 124.166666667 117.5 114.5 108.5 c 128
 104.833333333 99.5 100 88.3333333333 100 75 c 0x3ef0
EndSplineSet
Ligature2: "'abvs' Above Base Substitutions in Sinhala lookup 8 subtable" si_Ba si_MatraI
EndChar
StartChar: si_BIi
Encoding: 176 -1 57
Width: 619
GlyphClass: 2
Flags: HW
HStem: -2 66<309.749 423.133> -1 27<115.093 182.754> 122 29<114.271 182.773> 320 76<143.74 344.807> 475 24<197.844 390.84 462 485.22> 611 59<137.562 377.962 409.424 463.74>
VStem: 33 29<96.7656 227.481> 69 41<523.296 586.545> 80 20<88 103.663> 198 32<39.7215 108.178> 273 31<71.4885 131.976> 359 37<512.017 585.875> 388 35<194.157 280.658> 506 35<514.548 591.334> 527 49<188.706 372.532>
LayerCount: 2
Back
Fore
SplineSet
450 607 m 0
 421 607 396 586 396 552 c 0
 396 523 418 499 451 499 c 0
 481 499 506 523 506 553 c 0
 506 583 480 607 450 607 c 0
247 396 m 0
 339 396 423 345 423 257 c 0
 423 214 412.031282173 178.935015443 383 165 c 2
 333 141 l 2
 314 131 304 118 304 101 c 0
 304 76 320 64 351 64 c 0
 364 64 380 67 397 73 c 0
 473.804723738 100.430258478 527 195.87237529 527 302 c 0
 527 385 488 442 422 461 c 0
 399 468 363 473 314 475 c 0
 248 478 193 483 148 489 c 0
 100 496 69 516 69 563 c 0xbf60
 69 580 75 597 87 612 c 0
 128 664 207 670 312 670 c 0
 405 670 468 656 502 626 c 0
 528 603 541 579 541 552 c 0
 541 508 505 475 462 475 c 1
 528 443 576 362 576 263 c 0
 576 210 565 159 542 111 c 0
 513 48 473 12 423 2 c 0
 408 -1 394 -2 381 -2 c 0
 321 -2 273 35 273 94 c 0
 273 120 282.170506175 141.39267479 303 154 c 0
 320.170506175 164.39267479 338 174 356 184 c 128
 375 195 388 213 388 240 c 0
 388 300 305 320 235 320 c 0
 156 320 96 279 73 221 c 0
 66 204 62 185 62 166 c 0
 62 140 68 114 80 88 c 1xbee4
 80 132 112 151 153 151 c 0
 197 151 222 127 229 79 c 0
 229 76 230 72 230 69 c 0
 230 26 189 -1 146 -1 c 0
 105 -1 74 23 54 71 c 0
 40 104 33 143 33 187 c 0
 33 314 120 396 247 396 c 0
392 496 m 1
 370 509 359 528 359 554 c 0
 359 573 366 591 379 606 c 1
 357 609 326 611 286 611 c 0
 221 611 174 605 145 594 c 0
 122 585 110 572 110 556 c 0x3f70
 110 536 121 524 143 519 c 0
 172 512 225 507 302 504 c 0
 337 503 367 500 392 496 c 1
149 122 m 128
 123 122 100 101 100 75 c 0x3ee0
 100 47 121 26 149 26 c 0
 175 26 198 48 198 74 c 128
 198 100 175 122 149 122 c 128
EndSplineSet
Ligature2: "'abvs' Above Base Substitutions in Sinhala lookup 8 subtable" si_Ba si_MatraIi
EndChar
